<?xml version="1.0" encoding="utf-8" standalone="no"?>
<!DOCTYPE svg PUBLIC "-//W3C//DTD SVG 1.1//EN"
  "http://www.w3.org/Graphics/SVG/1.1/DTD/svg11.dtd">
<svg xmlns:xlink="http://www.w3.org/1999/xlink" width="720pt" height="1080pt" viewBox="0 0 720 1080" xmlns="http://www.w3.org/2000/svg" version="1.1">
 <metadata>
  <rdf:RDF xmlns:dc="http://purl.org/dc/elements/1.1/" xmlns:cc="http://creativecommons.org/ns#" xmlns:rdf="http://www.w3.org/1999/02/22-rdf-syntax-ns#">
   <cc:Work>
    <dc:type rdf:resource="http://purl.org/dc/dcmitype/StillImage"/>
    <dc:date>2023-06-26T21:32:50.357178</dc:date>
    <dc:format>image/svg+xml</dc:format>
    <dc:creator>
     <cc:Agent>
      <dc:title>Matplotlib v3.6.2, https://matplotlib.org/</dc:title>
     </cc:Agent>
    </dc:creator>
   </cc:Work>
  </rdf:RDF>
 </metadata>
 <defs>
  <style type="text/css">*{stroke-linejoin: round; stroke-linecap: butt}</style>
 </defs>
 <g id="figure_1">
  <g id="patch_1">
   <path d="M 0 1080 
L 720 1080 
L 720 0 
L 0 0 
z
" style="fill: #ffffff"/>
  </g>
  <g id="axes_1">
   <g id="patch_2">
    <path d="M 62.3 517.27 
L 709.2 517.27 
L 709.2 10.8 
L 62.3 10.8 
z
" style="fill: #ffffff"/>
   </g>
   <g id="matplotlib.axis_1">
    <g id="xtick_1">
     <g id="line2d_1">
      <defs>
       <path id="mf2f5b34ee1" d="M 0 0 
L 0 3.5 
" style="stroke: #000000; stroke-width: 0.8"/>
      </defs>
      <g>
       <use xlink:href="#mf2f5b34ee1" x="91.704545" y="517.27" style="stroke: #000000; stroke-width: 0.8"/>
      </g>
     </g>
    </g>
    <g id="xtick_2">
     <g id="line2d_2">
      <g>
       <use xlink:href="#mf2f5b34ee1" x="165.215909" y="517.27" style="stroke: #000000; stroke-width: 0.8"/>
      </g>
     </g>
    </g>
    <g id="xtick_3">
     <g id="line2d_3">
      <g>
       <use xlink:href="#mf2f5b34ee1" x="238.727273" y="517.27" style="stroke: #000000; stroke-width: 0.8"/>
      </g>
     </g>
    </g>
    <g id="xtick_4">
     <g id="line2d_4">
      <g>
       <use xlink:href="#mf2f5b34ee1" x="312.238636" y="517.27" style="stroke: #000000; stroke-width: 0.8"/>
      </g>
     </g>
    </g>
    <g id="xtick_5">
     <g id="line2d_5">
      <g>
       <use xlink:href="#mf2f5b34ee1" x="385.75" y="517.27" style="stroke: #000000; stroke-width: 0.8"/>
      </g>
     </g>
    </g>
    <g id="xtick_6">
     <g id="line2d_6">
      <g>
       <use xlink:href="#mf2f5b34ee1" x="459.261364" y="517.27" style="stroke: #000000; stroke-width: 0.8"/>
      </g>
     </g>
    </g>
    <g id="xtick_7">
     <g id="line2d_7">
      <g>
       <use xlink:href="#mf2f5b34ee1" x="532.772727" y="517.27" style="stroke: #000000; stroke-width: 0.8"/>
      </g>
     </g>
    </g>
    <g id="xtick_8">
     <g id="line2d_8">
      <g>
       <use xlink:href="#mf2f5b34ee1" x="606.284091" y="517.27" style="stroke: #000000; stroke-width: 0.8"/>
      </g>
     </g>
    </g>
    <g id="xtick_9">
     <g id="line2d_9">
      <g>
       <use xlink:href="#mf2f5b34ee1" x="679.795455" y="517.27" style="stroke: #000000; stroke-width: 0.8"/>
      </g>
     </g>
    </g>
   </g>
   <g id="matplotlib.axis_2">
    <g id="ytick_1">
     <g id="line2d_10">
      <defs>
       <path id="mdfa7955c8e" d="M 0 0 
L -3.5 0 
" style="stroke: #000000; stroke-width: 0.8"/>
      </defs>
      <g>
       <use xlink:href="#mdfa7955c8e" x="62.3" y="494.248636" style="stroke: #000000; stroke-width: 0.8"/>
      </g>
     </g>
     <g id="text_1">
      <!-- 0 -->
      <g transform="translate(48.9375 498.047855) scale(0.1 -0.1)">
       <defs>
        <path id="DejaVuSans-30" d="M 2034 4250 
Q 1547 4250 1301 3770 
Q 1056 3291 1056 2328 
Q 1056 1369 1301 889 
Q 1547 409 2034 409 
Q 2525 409 2770 889 
Q 3016 1369 3016 2328 
Q 3016 3291 2770 3770 
Q 2525 4250 2034 4250 
z
M 2034 4750 
Q 2819 4750 3233 4129 
Q 3647 3509 3647 2328 
Q 3647 1150 3233 529 
Q 2819 -91 2034 -91 
Q 1250 -91 836 529 
Q 422 1150 422 2328 
Q 422 3509 836 4129 
Q 1250 4750 2034 4750 
z
" transform="scale(0.015625)"/>
       </defs>
       <use xlink:href="#DejaVuSans-30"/>
      </g>
     </g>
    </g>
    <g id="ytick_2">
     <g id="line2d_11">
      <g>
       <use xlink:href="#mdfa7955c8e" x="62.3" y="402.163182" style="stroke: #000000; stroke-width: 0.8"/>
      </g>
     </g>
     <g id="text_2">
      <!-- 20 -->
      <g transform="translate(42.575 405.962401) scale(0.1 -0.1)">
       <defs>
        <path id="DejaVuSans-32" d="M 1228 531 
L 3431 531 
L 3431 0 
L 469 0 
L 469 531 
Q 828 903 1448 1529 
Q 2069 2156 2228 2338 
Q 2531 2678 2651 2914 
Q 2772 3150 2772 3378 
Q 2772 3750 2511 3984 
Q 2250 4219 1831 4219 
Q 1534 4219 1204 4116 
Q 875 4013 500 3803 
L 500 4441 
Q 881 4594 1212 4672 
Q 1544 4750 1819 4750 
Q 2544 4750 2975 4387 
Q 3406 4025 3406 3419 
Q 3406 3131 3298 2873 
Q 3191 2616 2906 2266 
Q 2828 2175 2409 1742 
Q 1991 1309 1228 531 
z
" transform="scale(0.015625)"/>
       </defs>
       <use xlink:href="#DejaVuSans-32"/>
       <use xlink:href="#DejaVuSans-30" x="63.623047"/>
      </g>
     </g>
    </g>
    <g id="ytick_3">
     <g id="line2d_12">
      <g>
       <use xlink:href="#mdfa7955c8e" x="62.3" y="310.077727" style="stroke: #000000; stroke-width: 0.8"/>
      </g>
     </g>
     <g id="text_3">
      <!-- 40 -->
      <g transform="translate(42.575 313.876946) scale(0.1 -0.1)">
       <defs>
        <path id="DejaVuSans-34" d="M 2419 4116 
L 825 1625 
L 2419 1625 
L 2419 4116 
z
M 2253 4666 
L 3047 4666 
L 3047 1625 
L 3713 1625 
L 3713 1100 
L 3047 1100 
L 3047 0 
L 2419 0 
L 2419 1100 
L 313 1100 
L 313 1709 
L 2253 4666 
z
" transform="scale(0.015625)"/>
       </defs>
       <use xlink:href="#DejaVuSans-34"/>
       <use xlink:href="#DejaVuSans-30" x="63.623047"/>
      </g>
     </g>
    </g>
    <g id="ytick_4">
     <g id="line2d_13">
      <g>
       <use xlink:href="#mdfa7955c8e" x="62.3" y="217.992273" style="stroke: #000000; stroke-width: 0.8"/>
      </g>
     </g>
     <g id="text_4">
      <!-- 60 -->
      <g transform="translate(42.575 221.791491) scale(0.1 -0.1)">
       <defs>
        <path id="DejaVuSans-36" d="M 2113 2584 
Q 1688 2584 1439 2293 
Q 1191 2003 1191 1497 
Q 1191 994 1439 701 
Q 1688 409 2113 409 
Q 2538 409 2786 701 
Q 3034 994 3034 1497 
Q 3034 2003 2786 2293 
Q 2538 2584 2113 2584 
z
M 3366 4563 
L 3366 3988 
Q 3128 4100 2886 4159 
Q 2644 4219 2406 4219 
Q 1781 4219 1451 3797 
Q 1122 3375 1075 2522 
Q 1259 2794 1537 2939 
Q 1816 3084 2150 3084 
Q 2853 3084 3261 2657 
Q 3669 2231 3669 1497 
Q 3669 778 3244 343 
Q 2819 -91 2113 -91 
Q 1303 -91 875 529 
Q 447 1150 447 2328 
Q 447 3434 972 4092 
Q 1497 4750 2381 4750 
Q 2619 4750 2861 4703 
Q 3103 4656 3366 4563 
z
" transform="scale(0.015625)"/>
       </defs>
       <use xlink:href="#DejaVuSans-36"/>
       <use xlink:href="#DejaVuSans-30" x="63.623047"/>
      </g>
     </g>
    </g>
    <g id="ytick_5">
     <g id="line2d_14">
      <g>
       <use xlink:href="#mdfa7955c8e" x="62.3" y="125.906818" style="stroke: #000000; stroke-width: 0.8"/>
      </g>
     </g>
     <g id="text_5">
      <!-- 80 -->
      <g transform="translate(42.575 129.706037) scale(0.1 -0.1)">
       <defs>
        <path id="DejaVuSans-38" d="M 2034 2216 
Q 1584 2216 1326 1975 
Q 1069 1734 1069 1313 
Q 1069 891 1326 650 
Q 1584 409 2034 409 
Q 2484 409 2743 651 
Q 3003 894 3003 1313 
Q 3003 1734 2745 1975 
Q 2488 2216 2034 2216 
z
M 1403 2484 
Q 997 2584 770 2862 
Q 544 3141 544 3541 
Q 544 4100 942 4425 
Q 1341 4750 2034 4750 
Q 2731 4750 3128 4425 
Q 3525 4100 3525 3541 
Q 3525 3141 3298 2862 
Q 3072 2584 2669 2484 
Q 3125 2378 3379 2068 
Q 3634 1759 3634 1313 
Q 3634 634 3220 271 
Q 2806 -91 2034 -91 
Q 1263 -91 848 271 
Q 434 634 434 1313 
Q 434 1759 690 2068 
Q 947 2378 1403 2484 
z
M 1172 3481 
Q 1172 3119 1398 2916 
Q 1625 2713 2034 2713 
Q 2441 2713 2670 2916 
Q 2900 3119 2900 3481 
Q 2900 3844 2670 4047 
Q 2441 4250 2034 4250 
Q 1625 4250 1398 4047 
Q 1172 3844 1172 3481 
z
" transform="scale(0.015625)"/>
       </defs>
       <use xlink:href="#DejaVuSans-38"/>
       <use xlink:href="#DejaVuSans-30" x="63.623047"/>
      </g>
     </g>
    </g>
    <g id="ytick_6">
     <g id="line2d_15">
      <g>
       <use xlink:href="#mdfa7955c8e" x="62.3" y="33.821364" style="stroke: #000000; stroke-width: 0.8"/>
      </g>
     </g>
     <g id="text_6">
      <!-- 100 -->
      <g transform="translate(36.2125 37.620582) scale(0.1 -0.1)">
       <defs>
        <path id="DejaVuSans-31" d="M 794 531 
L 1825 531 
L 1825 4091 
L 703 3866 
L 703 4441 
L 1819 4666 
L 2450 4666 
L 2450 531 
L 3481 531 
L 3481 0 
L 794 0 
L 794 531 
z
" transform="scale(0.015625)"/>
       </defs>
       <use xlink:href="#DejaVuSans-31"/>
       <use xlink:href="#DejaVuSans-30" x="63.623047"/>
       <use xlink:href="#DejaVuSans-30" x="127.246094"/>
      </g>
     </g>
    </g>
    <g id="text_7">
     <!-- Population -->
     <g transform="translate(30.132813 290.301406) rotate(-90) scale(0.1 -0.1)">
      <defs>
       <path id="DejaVuSans-50" d="M 1259 4147 
L 1259 2394 
L 2053 2394 
Q 2494 2394 2734 2622 
Q 2975 2850 2975 3272 
Q 2975 3691 2734 3919 
Q 2494 4147 2053 4147 
L 1259 4147 
z
M 628 4666 
L 2053 4666 
Q 2838 4666 3239 4311 
Q 3641 3956 3641 3272 
Q 3641 2581 3239 2228 
Q 2838 1875 2053 1875 
L 1259 1875 
L 1259 0 
L 628 0 
L 628 4666 
z
" transform="scale(0.015625)"/>
       <path id="DejaVuSans-6f" d="M 1959 3097 
Q 1497 3097 1228 2736 
Q 959 2375 959 1747 
Q 959 1119 1226 758 
Q 1494 397 1959 397 
Q 2419 397 2687 759 
Q 2956 1122 2956 1747 
Q 2956 2369 2687 2733 
Q 2419 3097 1959 3097 
z
M 1959 3584 
Q 2709 3584 3137 3096 
Q 3566 2609 3566 1747 
Q 3566 888 3137 398 
Q 2709 -91 1959 -91 
Q 1206 -91 779 398 
Q 353 888 353 1747 
Q 353 2609 779 3096 
Q 1206 3584 1959 3584 
z
" transform="scale(0.015625)"/>
       <path id="DejaVuSans-70" d="M 1159 525 
L 1159 -1331 
L 581 -1331 
L 581 3500 
L 1159 3500 
L 1159 2969 
Q 1341 3281 1617 3432 
Q 1894 3584 2278 3584 
Q 2916 3584 3314 3078 
Q 3713 2572 3713 1747 
Q 3713 922 3314 415 
Q 2916 -91 2278 -91 
Q 1894 -91 1617 61 
Q 1341 213 1159 525 
z
M 3116 1747 
Q 3116 2381 2855 2742 
Q 2594 3103 2138 3103 
Q 1681 3103 1420 2742 
Q 1159 2381 1159 1747 
Q 1159 1113 1420 752 
Q 1681 391 2138 391 
Q 2594 391 2855 752 
Q 3116 1113 3116 1747 
z
" transform="scale(0.015625)"/>
       <path id="DejaVuSans-75" d="M 544 1381 
L 544 3500 
L 1119 3500 
L 1119 1403 
Q 1119 906 1312 657 
Q 1506 409 1894 409 
Q 2359 409 2629 706 
Q 2900 1003 2900 1516 
L 2900 3500 
L 3475 3500 
L 3475 0 
L 2900 0 
L 2900 538 
Q 2691 219 2414 64 
Q 2138 -91 1772 -91 
Q 1169 -91 856 284 
Q 544 659 544 1381 
z
M 1991 3584 
L 1991 3584 
z
" transform="scale(0.015625)"/>
       <path id="DejaVuSans-6c" d="M 603 4863 
L 1178 4863 
L 1178 0 
L 603 0 
L 603 4863 
z
" transform="scale(0.015625)"/>
       <path id="DejaVuSans-61" d="M 2194 1759 
Q 1497 1759 1228 1600 
Q 959 1441 959 1056 
Q 959 750 1161 570 
Q 1363 391 1709 391 
Q 2188 391 2477 730 
Q 2766 1069 2766 1631 
L 2766 1759 
L 2194 1759 
z
M 3341 1997 
L 3341 0 
L 2766 0 
L 2766 531 
Q 2569 213 2275 61 
Q 1981 -91 1556 -91 
Q 1019 -91 701 211 
Q 384 513 384 1019 
Q 384 1609 779 1909 
Q 1175 2209 1959 2209 
L 2766 2209 
L 2766 2266 
Q 2766 2663 2505 2880 
Q 2244 3097 1772 3097 
Q 1472 3097 1187 3025 
Q 903 2953 641 2809 
L 641 3341 
Q 956 3463 1253 3523 
Q 1550 3584 1831 3584 
Q 2591 3584 2966 3190 
Q 3341 2797 3341 1997 
z
" transform="scale(0.015625)"/>
       <path id="DejaVuSans-74" d="M 1172 4494 
L 1172 3500 
L 2356 3500 
L 2356 3053 
L 1172 3053 
L 1172 1153 
Q 1172 725 1289 603 
Q 1406 481 1766 481 
L 2356 481 
L 2356 0 
L 1766 0 
Q 1100 0 847 248 
Q 594 497 594 1153 
L 594 3053 
L 172 3053 
L 172 3500 
L 594 3500 
L 594 4494 
L 1172 4494 
z
" transform="scale(0.015625)"/>
       <path id="DejaVuSans-69" d="M 603 3500 
L 1178 3500 
L 1178 0 
L 603 0 
L 603 3500 
z
M 603 4863 
L 1178 4863 
L 1178 4134 
L 603 4134 
L 603 4863 
z
" transform="scale(0.015625)"/>
       <path id="DejaVuSans-6e" d="M 3513 2113 
L 3513 0 
L 2938 0 
L 2938 2094 
Q 2938 2591 2744 2837 
Q 2550 3084 2163 3084 
Q 1697 3084 1428 2787 
Q 1159 2491 1159 1978 
L 1159 0 
L 581 0 
L 581 3500 
L 1159 3500 
L 1159 2956 
Q 1366 3272 1645 3428 
Q 1925 3584 2291 3584 
Q 2894 3584 3203 3211 
Q 3513 2838 3513 2113 
z
" transform="scale(0.015625)"/>
      </defs>
      <use xlink:href="#DejaVuSans-50"/>
      <use xlink:href="#DejaVuSans-6f" x="56.677734"/>
      <use xlink:href="#DejaVuSans-70" x="117.859375"/>
      <use xlink:href="#DejaVuSans-75" x="181.335938"/>
      <use xlink:href="#DejaVuSans-6c" x="244.714844"/>
      <use xlink:href="#DejaVuSans-61" x="272.498047"/>
      <use xlink:href="#DejaVuSans-74" x="333.777344"/>
      <use xlink:href="#DejaVuSans-69" x="372.986328"/>
      <use xlink:href="#DejaVuSans-6f" x="400.769531"/>
      <use xlink:href="#DejaVuSans-6e" x="461.951172"/>
     </g>
    </g>
   </g>
   <g id="line2d_16">
    <path d="M 91.704545 33.821364 
L 97.830492 50.396745 
L 100.893466 60.986573 
L 103.956439 72.036827 
L 107.019413 79.864091 
L 110.082386 88.612209 
L 113.14536 98.281182 
L 116.208333 107.489727 
L 119.271307 113.935709 
L 122.33428 119.921264 
L 125.397254 131.892373 
L 128.460227 137.4175 
L 131.523201 145.244764 
L 134.586174 151.230318 
L 137.649148 157.6763 
L 140.712121 163.201427 
L 143.775095 170.107836 
L 146.838068 180.237236 
L 149.901042 186.683218 
L 152.964015 193.589627 
L 156.026989 199.114755 
L 159.089962 203.719027 
L 165.215909 212.006718 
L 171.341856 224.898682 
L 174.40483 229.502955 
L 180.530777 241.474064 
L 186.656723 251.603464 
L 189.719697 257.128591 
L 192.78267 263.114145 
L 195.845644 268.639273 
L 198.908617 270.941409 
L 201.971591 275.085255 
L 208.097538 282.452091 
L 211.160511 286.595936 
L 214.223485 289.3585 
L 217.286458 296.264909 
L 220.349432 299.027473 
L 223.412405 302.710891 
L 226.475379 305.473455 
L 229.538352 308.696445 
L 232.601326 312.840291 
L 235.664299 316.523709 
L 238.727273 317.444564 
L 241.790246 322.509264 
L 244.85322 323.430118 
L 247.916193 326.653109 
L 250.979167 330.336527 
L 254.04214 332.178236 
L 257.105114 335.401227 
L 260.168087 340.0055 
L 263.231061 341.847209 
L 266.294034 342.307636 
L 269.357008 344.609773 
L 272.419981 347.832764 
L 275.482955 351.516182 
L 281.608902 357.962164 
L 287.734848 362.566436 
L 290.797822 363.487291 
L 293.860795 366.249855 
L 299.986742 370.854127 
L 303.049716 372.695836 
L 306.112689 374.997973 
L 309.175663 375.918827 
L 312.238636 377.760536 
L 315.30161 378.681391 
L 321.427557 381.443955 
L 324.49053 385.5878 
L 327.553504 388.350364 
L 333.679451 392.033782 
L 336.742424 394.796345 
L 339.805398 395.7172 
L 342.868371 397.558909 
L 348.994318 403.084036 
L 352.057292 403.544464 
L 355.120265 406.767455 
L 358.183239 409.069591 
L 361.246212 410.450873 
L 364.309186 413.213436 
L 370.435133 415.976 
L 373.498106 416.436427 
L 376.56108 419.198991 
L 385.75 426.1054 
L 388.812973 427.947109 
L 391.875947 428.867964 
L 394.93892 430.249245 
L 398.001894 432.090955 
L 401.064867 433.011809 
L 404.127841 433.472236 
L 407.190814 434.393091 
L 410.253788 436.2348 
L 413.316761 437.155655 
L 416.379735 439.457791 
L 428.631629 444.982918 
L 431.694602 445.443345 
L 440.883523 445.443345 
L 443.946496 446.3642 
L 447.00947 446.824627 
L 450.072443 448.666336 
L 453.135417 448.666336 
L 459.261364 450.508045 
L 462.324337 452.810182 
L 468.450284 452.810182 
L 471.513258 454.191464 
L 477.639205 456.033173 
L 480.702178 456.4936 
L 486.828125 458.335309 
L 492.954072 459.256164 
L 502.142992 462.018727 
L 505.205966 462.479155 
L 508.268939 463.400009 
L 511.331913 463.400009 
L 514.394886 464.781291 
L 523.583807 466.162573 
L 526.64678 466.162573 
L 529.709754 467.083427 
L 532.772727 467.543855 
L 535.835701 468.925136 
L 538.898674 469.385564 
L 541.961648 470.306418 
L 545.024621 470.306418 
L 548.087595 471.227273 
L 554.213542 472.148127 
L 557.276515 472.148127 
L 563.402462 473.068982 
L 569.528409 473.068982 
L 572.591383 473.529409 
L 575.654356 474.910691 
L 578.71733 474.910691 
L 581.780303 475.831545 
L 584.843277 475.831545 
L 587.90625 476.7524 
L 590.969223 476.7524 
L 594.032197 477.673255 
L 597.09517 477.673255 
L 600.158144 478.133682 
L 606.284091 479.975391 
L 612.410038 479.975391 
L 615.473011 480.435818 
L 636.913826 480.435818 
L 639.976799 481.356673 
L 649.16572 482.737955 
L 655.291667 482.737955 
L 664.480587 484.119236 
L 670.606534 484.119236 
L 676.732481 485.040091 
L 679.795455 485.040091 
L 679.795455 485.040091 
" clip-path="url(#p5554b268c4)" style="fill: none; stroke: #0000ff; stroke-width: 1.5; stroke-linecap: square"/>
   </g>
   <g id="line2d_17">
    <path d="M 91.704545 494.248636 
L 97.830492 477.673255 
L 100.893466 467.543855 
L 103.956439 456.954027 
L 107.019413 449.587191 
L 110.082386 441.2995 
L 113.14536 431.630527 
L 116.208333 422.882409 
L 119.271307 417.357282 
L 122.33428 412.292582 
L 125.397254 400.7819 
L 128.460227 396.177627 
L 131.523201 390.6525 
L 134.586174 386.508655 
L 137.649148 381.904382 
L 140.712121 376.839682 
L 143.775095 371.314555 
L 146.838068 361.645582 
L 149.901042 355.660027 
L 152.964015 349.214045 
L 159.089962 341.847209 
L 162.152936 339.084645 
L 165.215909 336.782509 
L 168.278883 331.717809 
L 171.341856 325.732255 
L 174.40483 323.890545 
L 177.467803 320.667555 
L 180.530777 315.602855 
L 183.59375 313.300718 
L 189.719697 305.933882 
L 192.78267 301.329609 
L 195.845644 297.185764 
L 198.908617 296.725336 
L 201.971591 292.581491 
L 205.034564 289.3585 
L 208.097538 287.056364 
L 214.223485 286.135509 
L 217.286458 281.070809 
L 220.349432 280.610382 
L 223.412405 279.689527 
L 229.538352 276.006109 
L 232.601326 275.545682 
L 235.664299 273.243545 
L 238.727273 274.624827 
L 241.790246 271.401836 
L 244.85322 272.783118 
L 247.916193 270.941409 
L 250.979167 268.639273 
L 254.04214 270.020555 
L 263.231061 268.639273 
L 266.294034 270.480982 
L 272.419981 269.560127 
L 275.482955 267.718418 
L 278.545928 268.639273 
L 281.608902 267.718418 
L 284.671875 268.639273 
L 287.734848 268.639273 
L 290.797822 269.0997 
L 293.860795 268.178845 
L 296.923769 269.0997 
L 299.986742 269.0997 
L 303.049716 268.639273 
L 306.112689 267.718418 
L 312.238636 268.639273 
L 318.364583 272.322691 
L 321.427557 272.783118 
L 324.49053 270.480982 
L 327.553504 269.560127 
L 330.616477 269.0997 
L 333.679451 270.020555 
L 336.742424 268.178845 
L 342.868371 273.703973 
L 345.931345 272.322691 
L 348.994318 272.322691 
L 352.057292 273.703973 
L 355.120265 274.1644 
L 361.246212 274.1644 
L 364.309186 275.085255 
L 367.372159 274.624827 
L 370.435133 276.926964 
L 373.498106 277.387391 
L 376.56108 276.926964 
L 379.624053 276.006109 
L 382.687027 274.624827 
L 385.75 273.703973 
L 388.812973 275.085255 
L 391.875947 277.387391 
L 394.93892 278.308245 
L 398.001894 278.308245 
L 401.064867 280.149955 
L 404.127841 282.912518 
L 407.190814 283.372945 
L 410.253788 285.214655 
L 413.316761 286.135509 
L 416.379735 285.675082 
L 419.442708 286.135509 
L 422.505682 287.056364 
L 425.568655 287.056364 
L 428.631629 287.977218 
L 431.694602 290.739782 
L 434.757576 293.962773 
L 437.820549 296.264909 
L 440.883523 298.106618 
L 443.946496 298.106618 
L 447.00947 299.948327 
L 450.072443 299.948327 
L 453.135417 301.790036 
L 456.19839 303.171318 
L 459.261364 304.092173 
L 462.324337 303.631745 
L 465.387311 304.092173 
L 468.450284 306.394309 
L 471.513258 305.933882 
L 474.576231 308.696445 
L 477.639205 308.696445 
L 480.702178 309.6173 
L 483.765152 310.077727 
L 486.828125 310.998582 
L 489.891098 312.840291 
L 492.954072 315.142427 
L 496.017045 316.063282 
L 499.080019 317.444564 
L 502.142992 318.365418 
L 505.205966 318.825845 
L 508.268939 319.7467 
L 511.331913 322.509264 
L 514.394886 322.048836 
L 517.45786 322.969691 
L 520.520833 324.350973 
L 523.583807 324.350973 
L 526.64678 325.732255 
L 529.709754 329.415673 
L 532.772727 332.178236 
L 535.835701 333.099091 
L 538.898674 334.480373 
L 541.961648 334.9408 
L 545.024621 336.322082 
L 548.087595 337.242936 
L 551.150568 338.624218 
L 554.213542 340.465927 
L 557.276515 342.768064 
L 560.339489 343.228491 
L 563.402462 344.609773 
L 566.465436 347.372336 
L 569.528409 349.214045 
L 572.591383 350.1349 
L 575.654356 349.674473 
L 581.780303 352.437036 
L 587.90625 356.120455 
L 590.969223 357.041309 
L 594.032197 357.501736 
L 597.09517 358.883018 
L 600.158144 358.422591 
L 603.221117 358.422591 
L 606.284091 359.803873 
L 609.347064 360.2643 
L 612.410038 361.645582 
L 615.473011 363.947718 
L 618.535985 365.329 
L 624.661932 367.170709 
L 627.724905 368.551991 
L 633.850852 369.472845 
L 636.913826 370.3937 
L 639.976799 371.774982 
L 643.039773 372.235409 
L 646.102746 371.774982 
L 649.16572 372.695836 
L 652.228693 374.537545 
L 655.291667 375.4584 
L 664.480587 375.4584 
L 667.543561 377.300109 
L 673.669508 379.141818 
L 676.732481 379.141818 
L 679.795455 380.062673 
L 679.795455 380.062673 
" clip-path="url(#p5554b268c4)" style="fill: none; stroke: #008000; stroke-width: 1.5; stroke-linecap: square"/>
   </g>
   <g id="line2d_18">
    <path d="M 91.704545 494.248636 
L 97.830492 494.248636 
L 110.082386 492.406927 
L 113.14536 492.406927 
L 116.208333 491.9465 
L 122.33428 490.104791 
L 125.397254 489.644364 
L 128.460227 488.723509 
L 131.523201 486.421373 
L 137.649148 482.737955 
L 140.712121 482.277527 
L 143.775095 480.896245 
L 152.964015 479.514964 
L 156.026989 477.673255 
L 159.089962 476.7524 
L 162.152936 475.371118 
L 165.215909 473.529409 
L 168.278883 472.148127 
L 171.341856 471.6877 
L 177.467803 466.162573 
L 180.530777 465.241718 
L 183.59375 462.479155 
L 186.656723 461.097873 
L 189.719697 459.256164 
L 195.845644 456.4936 
L 198.908617 454.651891 
L 201.971591 454.651891 
L 205.034564 454.191464 
L 208.097538 452.810182 
L 211.160511 449.126764 
L 214.223485 446.824627 
L 217.286458 444.982918 
L 220.349432 442.680782 
L 223.412405 439.918218 
L 226.475379 438.997364 
L 229.538352 437.616082 
L 232.601326 433.932664 
L 235.664299 432.551382 
L 238.727273 430.249245 
L 241.790246 428.407536 
L 244.85322 426.1054 
L 250.979167 423.342836 
L 254.04214 420.119845 
L 257.105114 417.357282 
L 260.168087 413.213436 
L 263.231061 411.832155 
L 266.294034 409.530018 
L 269.357008 407.688309 
L 272.419981 404.925745 
L 275.482955 403.084036 
L 278.545928 398.940191 
L 281.608902 396.638055 
L 284.671875 393.415064 
L 287.734848 391.112927 
L 290.797822 389.731645 
L 293.860795 387.889936 
L 296.923769 384.666945 
L 299.986742 382.364809 
L 309.175663 378.220964 
L 312.238636 375.918827 
L 315.30161 373.156264 
L 318.364583 369.933273 
L 327.553504 364.408145 
L 330.616477 363.026864 
L 333.679451 360.2643 
L 336.742424 359.343445 
L 339.805398 355.660027 
L 342.868371 351.055755 
L 345.931345 349.674473 
L 348.994318 346.911909 
L 352.057292 345.0702 
L 355.120265 341.386782 
L 358.183239 339.084645 
L 361.246212 337.703364 
L 364.309186 334.019945 
L 367.372159 333.099091 
L 370.435133 329.415673 
L 373.498106 328.494818 
L 376.56108 326.192682 
L 379.624053 324.8114 
L 382.687027 323.890545 
L 385.75 322.509264 
L 391.875947 316.063282 
L 394.93892 313.761145 
L 398.001894 311.919436 
L 401.064867 309.156873 
L 404.127841 305.933882 
L 407.190814 304.5526 
L 410.253788 300.869182 
L 419.442708 295.344055 
L 422.505682 293.041918 
L 425.568655 291.660636 
L 428.631629 289.3585 
L 434.757576 282.912518 
L 437.820549 280.610382 
L 440.883523 278.768673 
L 443.946496 277.847818 
L 447.00947 275.545682 
L 453.135417 271.862264 
L 456.19839 269.560127 
L 462.324337 265.876709 
L 465.387311 265.416282 
L 468.450284 263.114145 
L 471.513258 262.193291 
L 474.576231 258.509873 
L 477.639205 257.589018 
L 483.765152 254.826455 
L 486.828125 252.984745 
L 489.891098 250.682609 
L 492.954072 247.920045 
L 496.017045 246.078336 
L 499.080019 243.7762 
L 502.142992 241.934491 
L 505.205966 241.013636 
L 508.268939 239.171927 
L 511.331913 236.409364 
L 514.394886 235.488509 
L 517.45786 234.107227 
L 520.520833 232.265518 
L 523.583807 231.805091 
L 526.64678 230.423809 
L 529.709754 225.819536 
L 532.772727 222.596545 
L 535.835701 220.294409 
L 538.898674 218.4527 
L 545.024621 215.690136 
L 551.150568 212.006718 
L 557.276515 207.402445 
L 560.339489 206.481591 
L 563.402462 204.639882 
L 566.465436 201.877318 
L 569.528409 200.035609 
L 572.591383 198.654327 
L 575.654356 197.733473 
L 578.71733 196.352191 
L 581.780303 194.050055 
L 584.843277 192.208345 
L 587.90625 189.445782 
L 590.969223 188.524927 
L 597.09517 185.762364 
L 600.158144 185.762364 
L 603.221117 184.841509 
L 606.284091 182.539373 
L 609.347064 182.078945 
L 612.410038 180.697664 
L 615.473011 177.9351 
L 618.535985 176.553818 
L 624.661932 174.712109 
L 627.724905 173.330827 
L 633.850852 172.409973 
L 636.913826 171.489118 
L 639.976799 169.186982 
L 643.039773 168.266127 
L 646.102746 168.266127 
L 649.16572 166.884845 
L 652.228693 165.043136 
L 655.291667 164.122282 
L 664.480587 162.741 
L 667.543561 160.899291 
L 670.606534 159.978436 
L 673.669508 158.597155 
L 676.732481 158.136727 
L 679.795455 157.215873 
L 679.795455 157.215873 
" clip-path="url(#p5554b268c4)" style="fill: none; stroke: #ff0000; stroke-width: 1.5; stroke-linecap: square"/>
   </g>
   <g id="patch_3">
    <path d="M 62.3 517.27 
L 62.3 10.8 
" style="fill: none; stroke: #000000; stroke-width: 0.8; stroke-linejoin: miter; stroke-linecap: square"/>
   </g>
   <g id="patch_4">
    <path d="M 709.2 517.27 
L 709.2 10.8 
" style="fill: none; stroke: #000000; stroke-width: 0.8; stroke-linejoin: miter; stroke-linecap: square"/>
   </g>
   <g id="patch_5">
    <path d="M 62.3 517.27 
L 709.2 517.27 
" style="fill: none; stroke: #000000; stroke-width: 0.8; stroke-linejoin: miter; stroke-linecap: square"/>
   </g>
   <g id="patch_6">
    <path d="M 62.3 10.8 
L 709.2 10.8 
" style="fill: none; stroke: #000000; stroke-width: 0.8; stroke-linejoin: miter; stroke-linecap: square"/>
   </g>
   <g id="legend_1">
    <g id="patch_7">
     <path d="M 642.742188 63.66875 
L 702.2 63.66875 
Q 704.2 63.66875 704.2 61.66875 
L 704.2 17.8 
Q 704.2 15.8 702.2 15.8 
L 642.742188 15.8 
Q 640.742188 15.8 640.742188 17.8 
L 640.742188 61.66875 
Q 640.742188 63.66875 642.742188 63.66875 
z
" style="fill: #ffffff; opacity: 0.8; stroke: #cccccc; stroke-linejoin: miter"/>
    </g>
    <g id="line2d_19">
     <path d="M 644.742188 23.898438 
L 654.742188 23.898438 
L 664.742188 23.898438 
" style="fill: none; stroke: #0000ff; stroke-width: 1.5; stroke-linecap: square"/>
    </g>
    <g id="text_8">
     <!-- E_NS -->
     <g transform="translate(672.742188 27.398438) scale(0.1 -0.1)">
      <defs>
       <path id="DejaVuSans-45" d="M 628 4666 
L 3578 4666 
L 3578 4134 
L 1259 4134 
L 1259 2753 
L 3481 2753 
L 3481 2222 
L 1259 2222 
L 1259 531 
L 3634 531 
L 3634 0 
L 628 0 
L 628 4666 
z
" transform="scale(0.015625)"/>
       <path id="DejaVuSans-5f" d="M 3263 -1063 
L 3263 -1509 
L -63 -1509 
L -63 -1063 
L 3263 -1063 
z
" transform="scale(0.015625)"/>
       <path id="DejaVuSans-4e" d="M 628 4666 
L 1478 4666 
L 3547 763 
L 3547 4666 
L 4159 4666 
L 4159 0 
L 3309 0 
L 1241 3903 
L 1241 0 
L 628 0 
L 628 4666 
z
" transform="scale(0.015625)"/>
       <path id="DejaVuSans-53" d="M 3425 4513 
L 3425 3897 
Q 3066 4069 2747 4153 
Q 2428 4238 2131 4238 
Q 1616 4238 1336 4038 
Q 1056 3838 1056 3469 
Q 1056 3159 1242 3001 
Q 1428 2844 1947 2747 
L 2328 2669 
Q 3034 2534 3370 2195 
Q 3706 1856 3706 1288 
Q 3706 609 3251 259 
Q 2797 -91 1919 -91 
Q 1588 -91 1214 -16 
Q 841 59 441 206 
L 441 856 
Q 825 641 1194 531 
Q 1563 422 1919 422 
Q 2459 422 2753 634 
Q 3047 847 3047 1241 
Q 3047 1584 2836 1778 
Q 2625 1972 2144 2069 
L 1759 2144 
Q 1053 2284 737 2584 
Q 422 2884 422 3419 
Q 422 4038 858 4394 
Q 1294 4750 2059 4750 
Q 2388 4750 2728 4690 
Q 3069 4631 3425 4513 
z
" transform="scale(0.015625)"/>
      </defs>
      <use xlink:href="#DejaVuSans-45"/>
      <use xlink:href="#DejaVuSans-5f" x="63.183594"/>
      <use xlink:href="#DejaVuSans-4e" x="113.183594"/>
      <use xlink:href="#DejaVuSans-53" x="187.988281"/>
     </g>
    </g>
    <g id="line2d_20">
     <path d="M 644.742188 38.854687 
L 654.742188 38.854687 
L 664.742188 38.854687 
" style="fill: none; stroke: #008000; stroke-width: 1.5; stroke-linecap: square"/>
    </g>
    <g id="text_9">
     <!-- H_NS -->
     <g transform="translate(672.742188 42.354687) scale(0.1 -0.1)">
      <defs>
       <path id="DejaVuSans-48" d="M 628 4666 
L 1259 4666 
L 1259 2753 
L 3553 2753 
L 3553 4666 
L 4184 4666 
L 4184 0 
L 3553 0 
L 3553 2222 
L 1259 2222 
L 1259 0 
L 628 0 
L 628 4666 
z
" transform="scale(0.015625)"/>
      </defs>
      <use xlink:href="#DejaVuSans-48"/>
      <use xlink:href="#DejaVuSans-5f" x="75.195312"/>
      <use xlink:href="#DejaVuSans-4e" x="125.195312"/>
      <use xlink:href="#DejaVuSans-53" x="200"/>
     </g>
    </g>
    <g id="line2d_21">
     <path d="M 644.742188 53.810938 
L 654.742188 53.810938 
L 664.742188 53.810938 
" style="fill: none; stroke: #ff0000; stroke-width: 1.5; stroke-linecap: square"/>
    </g>
    <g id="text_10">
     <!-- M_NS -->
     <g transform="translate(672.742188 57.310938) scale(0.1 -0.1)">
      <defs>
       <path id="DejaVuSans-4d" d="M 628 4666 
L 1569 4666 
L 2759 1491 
L 3956 4666 
L 4897 4666 
L 4897 0 
L 4281 0 
L 4281 4097 
L 3078 897 
L 2444 897 
L 1241 4097 
L 1241 0 
L 628 0 
L 628 4666 
z
" transform="scale(0.015625)"/>
      </defs>
      <use xlink:href="#DejaVuSans-4d"/>
      <use xlink:href="#DejaVuSans-5f" x="86.279297"/>
      <use xlink:href="#DejaVuSans-4e" x="136.279297"/>
      <use xlink:href="#DejaVuSans-53" x="211.083984"/>
     </g>
    </g>
   </g>
  </g>
  <g id="axes_2">
   <g id="patch_8">
    <path d="M 62.3 1038.04 
L 709.2 1038.04 
L 709.2 531.57 
L 62.3 531.57 
z
" style="fill: #ffffff"/>
   </g>
   <g id="matplotlib.axis_3">
    <g id="xtick_10">
     <g id="line2d_22">
      <g>
       <use xlink:href="#mf2f5b34ee1" x="91.704545" y="1038.04" style="stroke: #000000; stroke-width: 0.8"/>
      </g>
     </g>
     <g id="text_11">
      <!-- 0 -->
      <g transform="translate(88.523295 1052.638438) scale(0.1 -0.1)">
       <use xlink:href="#DejaVuSans-30"/>
      </g>
     </g>
    </g>
    <g id="xtick_11">
     <g id="line2d_23">
      <g>
       <use xlink:href="#mf2f5b34ee1" x="165.215909" y="1038.04" style="stroke: #000000; stroke-width: 0.8"/>
      </g>
     </g>
     <g id="text_12">
      <!-- 1 -->
      <g transform="translate(162.034659 1052.638438) scale(0.1 -0.1)">
       <use xlink:href="#DejaVuSans-31"/>
      </g>
     </g>
    </g>
    <g id="xtick_12">
     <g id="line2d_24">
      <g>
       <use xlink:href="#mf2f5b34ee1" x="238.727273" y="1038.04" style="stroke: #000000; stroke-width: 0.8"/>
      </g>
     </g>
     <g id="text_13">
      <!-- 2 -->
      <g transform="translate(235.546023 1052.638438) scale(0.1 -0.1)">
       <use xlink:href="#DejaVuSans-32"/>
      </g>
     </g>
    </g>
    <g id="xtick_13">
     <g id="line2d_25">
      <g>
       <use xlink:href="#mf2f5b34ee1" x="312.238636" y="1038.04" style="stroke: #000000; stroke-width: 0.8"/>
      </g>
     </g>
     <g id="text_14">
      <!-- 3 -->
      <g transform="translate(309.057386 1052.638438) scale(0.1 -0.1)">
       <defs>
        <path id="DejaVuSans-33" d="M 2597 2516 
Q 3050 2419 3304 2112 
Q 3559 1806 3559 1356 
Q 3559 666 3084 287 
Q 2609 -91 1734 -91 
Q 1441 -91 1130 -33 
Q 819 25 488 141 
L 488 750 
Q 750 597 1062 519 
Q 1375 441 1716 441 
Q 2309 441 2620 675 
Q 2931 909 2931 1356 
Q 2931 1769 2642 2001 
Q 2353 2234 1838 2234 
L 1294 2234 
L 1294 2753 
L 1863 2753 
Q 2328 2753 2575 2939 
Q 2822 3125 2822 3475 
Q 2822 3834 2567 4026 
Q 2313 4219 1838 4219 
Q 1578 4219 1281 4162 
Q 984 4106 628 3988 
L 628 4550 
Q 988 4650 1302 4700 
Q 1616 4750 1894 4750 
Q 2613 4750 3031 4423 
Q 3450 4097 3450 3541 
Q 3450 3153 3228 2886 
Q 3006 2619 2597 2516 
z
" transform="scale(0.015625)"/>
       </defs>
       <use xlink:href="#DejaVuSans-33"/>
      </g>
     </g>
    </g>
    <g id="xtick_14">
     <g id="line2d_26">
      <g>
       <use xlink:href="#mf2f5b34ee1" x="385.75" y="1038.04" style="stroke: #000000; stroke-width: 0.8"/>
      </g>
     </g>
     <g id="text_15">
      <!-- 4 -->
      <g transform="translate(382.56875 1052.638438) scale(0.1 -0.1)">
       <use xlink:href="#DejaVuSans-34"/>
      </g>
     </g>
    </g>
    <g id="xtick_15">
     <g id="line2d_27">
      <g>
       <use xlink:href="#mf2f5b34ee1" x="459.261364" y="1038.04" style="stroke: #000000; stroke-width: 0.8"/>
      </g>
     </g>
     <g id="text_16">
      <!-- 5 -->
      <g transform="translate(456.080114 1052.638438) scale(0.1 -0.1)">
       <defs>
        <path id="DejaVuSans-35" d="M 691 4666 
L 3169 4666 
L 3169 4134 
L 1269 4134 
L 1269 2991 
Q 1406 3038 1543 3061 
Q 1681 3084 1819 3084 
Q 2600 3084 3056 2656 
Q 3513 2228 3513 1497 
Q 3513 744 3044 326 
Q 2575 -91 1722 -91 
Q 1428 -91 1123 -41 
Q 819 9 494 109 
L 494 744 
Q 775 591 1075 516 
Q 1375 441 1709 441 
Q 2250 441 2565 725 
Q 2881 1009 2881 1497 
Q 2881 1984 2565 2268 
Q 2250 2553 1709 2553 
Q 1456 2553 1204 2497 
Q 953 2441 691 2322 
L 691 4666 
z
" transform="scale(0.015625)"/>
       </defs>
       <use xlink:href="#DejaVuSans-35"/>
      </g>
     </g>
    </g>
    <g id="xtick_16">
     <g id="line2d_28">
      <g>
       <use xlink:href="#mf2f5b34ee1" x="532.772727" y="1038.04" style="stroke: #000000; stroke-width: 0.8"/>
      </g>
     </g>
     <g id="text_17">
      <!-- 6 -->
      <g transform="translate(529.591477 1052.638438) scale(0.1 -0.1)">
       <use xlink:href="#DejaVuSans-36"/>
      </g>
     </g>
    </g>
    <g id="xtick_17">
     <g id="line2d_29">
      <g>
       <use xlink:href="#mf2f5b34ee1" x="606.284091" y="1038.04" style="stroke: #000000; stroke-width: 0.8"/>
      </g>
     </g>
     <g id="text_18">
      <!-- 7 -->
      <g transform="translate(603.102841 1052.638438) scale(0.1 -0.1)">
       <defs>
        <path id="DejaVuSans-37" d="M 525 4666 
L 3525 4666 
L 3525 4397 
L 1831 0 
L 1172 0 
L 2766 4134 
L 525 4134 
L 525 4666 
z
" transform="scale(0.015625)"/>
       </defs>
       <use xlink:href="#DejaVuSans-37"/>
      </g>
     </g>
    </g>
    <g id="xtick_18">
     <g id="line2d_30">
      <g>
       <use xlink:href="#mf2f5b34ee1" x="679.795455" y="1038.04" style="stroke: #000000; stroke-width: 0.8"/>
      </g>
     </g>
     <g id="text_19">
      <!-- 8 -->
      <g transform="translate(676.614205 1052.638438) scale(0.1 -0.1)">
       <use xlink:href="#DejaVuSans-38"/>
      </g>
     </g>
    </g>
    <g id="text_20">
     <!-- Time (days) -->
     <g transform="translate(356.223438 1066.316563) scale(0.1 -0.1)">
      <defs>
       <path id="DejaVuSans-54" d="M -19 4666 
L 3928 4666 
L 3928 4134 
L 2272 4134 
L 2272 0 
L 1638 0 
L 1638 4134 
L -19 4134 
L -19 4666 
z
" transform="scale(0.015625)"/>
       <path id="DejaVuSans-6d" d="M 3328 2828 
Q 3544 3216 3844 3400 
Q 4144 3584 4550 3584 
Q 5097 3584 5394 3201 
Q 5691 2819 5691 2113 
L 5691 0 
L 5113 0 
L 5113 2094 
Q 5113 2597 4934 2840 
Q 4756 3084 4391 3084 
Q 3944 3084 3684 2787 
Q 3425 2491 3425 1978 
L 3425 0 
L 2847 0 
L 2847 2094 
Q 2847 2600 2669 2842 
Q 2491 3084 2119 3084 
Q 1678 3084 1418 2786 
Q 1159 2488 1159 1978 
L 1159 0 
L 581 0 
L 581 3500 
L 1159 3500 
L 1159 2956 
Q 1356 3278 1631 3431 
Q 1906 3584 2284 3584 
Q 2666 3584 2933 3390 
Q 3200 3197 3328 2828 
z
" transform="scale(0.015625)"/>
       <path id="DejaVuSans-65" d="M 3597 1894 
L 3597 1613 
L 953 1613 
Q 991 1019 1311 708 
Q 1631 397 2203 397 
Q 2534 397 2845 478 
Q 3156 559 3463 722 
L 3463 178 
Q 3153 47 2828 -22 
Q 2503 -91 2169 -91 
Q 1331 -91 842 396 
Q 353 884 353 1716 
Q 353 2575 817 3079 
Q 1281 3584 2069 3584 
Q 2775 3584 3186 3129 
Q 3597 2675 3597 1894 
z
M 3022 2063 
Q 3016 2534 2758 2815 
Q 2500 3097 2075 3097 
Q 1594 3097 1305 2825 
Q 1016 2553 972 2059 
L 3022 2063 
z
" transform="scale(0.015625)"/>
       <path id="DejaVuSans-20" transform="scale(0.015625)"/>
       <path id="DejaVuSans-28" d="M 1984 4856 
Q 1566 4138 1362 3434 
Q 1159 2731 1159 2009 
Q 1159 1288 1364 580 
Q 1569 -128 1984 -844 
L 1484 -844 
Q 1016 -109 783 600 
Q 550 1309 550 2009 
Q 550 2706 781 3412 
Q 1013 4119 1484 4856 
L 1984 4856 
z
" transform="scale(0.015625)"/>
       <path id="DejaVuSans-64" d="M 2906 2969 
L 2906 4863 
L 3481 4863 
L 3481 0 
L 2906 0 
L 2906 525 
Q 2725 213 2448 61 
Q 2172 -91 1784 -91 
Q 1150 -91 751 415 
Q 353 922 353 1747 
Q 353 2572 751 3078 
Q 1150 3584 1784 3584 
Q 2172 3584 2448 3432 
Q 2725 3281 2906 2969 
z
M 947 1747 
Q 947 1113 1208 752 
Q 1469 391 1925 391 
Q 2381 391 2643 752 
Q 2906 1113 2906 1747 
Q 2906 2381 2643 2742 
Q 2381 3103 1925 3103 
Q 1469 3103 1208 2742 
Q 947 2381 947 1747 
z
" transform="scale(0.015625)"/>
       <path id="DejaVuSans-79" d="M 2059 -325 
Q 1816 -950 1584 -1140 
Q 1353 -1331 966 -1331 
L 506 -1331 
L 506 -850 
L 844 -850 
Q 1081 -850 1212 -737 
Q 1344 -625 1503 -206 
L 1606 56 
L 191 3500 
L 800 3500 
L 1894 763 
L 2988 3500 
L 3597 3500 
L 2059 -325 
z
" transform="scale(0.015625)"/>
       <path id="DejaVuSans-73" d="M 2834 3397 
L 2834 2853 
Q 2591 2978 2328 3040 
Q 2066 3103 1784 3103 
Q 1356 3103 1142 2972 
Q 928 2841 928 2578 
Q 928 2378 1081 2264 
Q 1234 2150 1697 2047 
L 1894 2003 
Q 2506 1872 2764 1633 
Q 3022 1394 3022 966 
Q 3022 478 2636 193 
Q 2250 -91 1575 -91 
Q 1294 -91 989 -36 
Q 684 19 347 128 
L 347 722 
Q 666 556 975 473 
Q 1284 391 1588 391 
Q 1994 391 2212 530 
Q 2431 669 2431 922 
Q 2431 1156 2273 1281 
Q 2116 1406 1581 1522 
L 1381 1569 
Q 847 1681 609 1914 
Q 372 2147 372 2553 
Q 372 3047 722 3315 
Q 1072 3584 1716 3584 
Q 2034 3584 2315 3537 
Q 2597 3491 2834 3397 
z
" transform="scale(0.015625)"/>
       <path id="DejaVuSans-29" d="M 513 4856 
L 1013 4856 
Q 1481 4119 1714 3412 
Q 1947 2706 1947 2009 
Q 1947 1309 1714 600 
Q 1481 -109 1013 -844 
L 513 -844 
Q 928 -128 1133 580 
Q 1338 1288 1338 2009 
Q 1338 2731 1133 3434 
Q 928 4138 513 4856 
z
" transform="scale(0.015625)"/>
      </defs>
      <use xlink:href="#DejaVuSans-54"/>
      <use xlink:href="#DejaVuSans-69" x="57.958984"/>
      <use xlink:href="#DejaVuSans-6d" x="85.742188"/>
      <use xlink:href="#DejaVuSans-65" x="183.154297"/>
      <use xlink:href="#DejaVuSans-20" x="244.677734"/>
      <use xlink:href="#DejaVuSans-28" x="276.464844"/>
      <use xlink:href="#DejaVuSans-64" x="315.478516"/>
      <use xlink:href="#DejaVuSans-61" x="378.955078"/>
      <use xlink:href="#DejaVuSans-79" x="440.234375"/>
      <use xlink:href="#DejaVuSans-73" x="499.414062"/>
      <use xlink:href="#DejaVuSans-29" x="551.513672"/>
     </g>
    </g>
   </g>
   <g id="matplotlib.axis_4">
    <g id="ytick_7">
     <g id="line2d_31">
      <g>
       <use xlink:href="#mdfa7955c8e" x="62.3" y="968.975909" style="stroke: #000000; stroke-width: 0.8"/>
      </g>
     </g>
     <g id="text_21">
      <!-- −0.04 -->
      <g transform="translate(24.654688 972.775128) scale(0.1 -0.1)">
       <defs>
        <path id="DejaVuSans-2212" d="M 678 2272 
L 4684 2272 
L 4684 1741 
L 678 1741 
L 678 2272 
z
" transform="scale(0.015625)"/>
        <path id="DejaVuSans-2e" d="M 684 794 
L 1344 794 
L 1344 0 
L 684 0 
L 684 794 
z
" transform="scale(0.015625)"/>
       </defs>
       <use xlink:href="#DejaVuSans-2212"/>
       <use xlink:href="#DejaVuSans-30" x="83.789062"/>
       <use xlink:href="#DejaVuSans-2e" x="147.412109"/>
       <use xlink:href="#DejaVuSans-30" x="179.199219"/>
       <use xlink:href="#DejaVuSans-34" x="242.822266"/>
      </g>
     </g>
    </g>
    <g id="ytick_8">
     <g id="line2d_32">
      <g>
       <use xlink:href="#mdfa7955c8e" x="62.3" y="876.890455" style="stroke: #000000; stroke-width: 0.8"/>
      </g>
     </g>
     <g id="text_22">
      <!-- −0.02 -->
      <g transform="translate(24.654688 880.689673) scale(0.1 -0.1)">
       <use xlink:href="#DejaVuSans-2212"/>
       <use xlink:href="#DejaVuSans-30" x="83.789062"/>
       <use xlink:href="#DejaVuSans-2e" x="147.412109"/>
       <use xlink:href="#DejaVuSans-30" x="179.199219"/>
       <use xlink:href="#DejaVuSans-32" x="242.822266"/>
      </g>
     </g>
    </g>
    <g id="ytick_9">
     <g id="line2d_33">
      <g>
       <use xlink:href="#mdfa7955c8e" x="62.3" y="784.805" style="stroke: #000000; stroke-width: 0.8"/>
      </g>
     </g>
     <g id="text_23">
      <!-- 0.00 -->
      <g transform="translate(33.034375 788.604219) scale(0.1 -0.1)">
       <use xlink:href="#DejaVuSans-30"/>
       <use xlink:href="#DejaVuSans-2e" x="63.623047"/>
       <use xlink:href="#DejaVuSans-30" x="95.410156"/>
       <use xlink:href="#DejaVuSans-30" x="159.033203"/>
      </g>
     </g>
    </g>
    <g id="ytick_10">
     <g id="line2d_34">
      <g>
       <use xlink:href="#mdfa7955c8e" x="62.3" y="692.719545" style="stroke: #000000; stroke-width: 0.8"/>
      </g>
     </g>
     <g id="text_24">
      <!-- 0.02 -->
      <g transform="translate(33.034375 696.518764) scale(0.1 -0.1)">
       <use xlink:href="#DejaVuSans-30"/>
       <use xlink:href="#DejaVuSans-2e" x="63.623047"/>
       <use xlink:href="#DejaVuSans-30" x="95.410156"/>
       <use xlink:href="#DejaVuSans-32" x="159.033203"/>
      </g>
     </g>
    </g>
    <g id="ytick_11">
     <g id="line2d_35">
      <g>
       <use xlink:href="#mdfa7955c8e" x="62.3" y="600.634091" style="stroke: #000000; stroke-width: 0.8"/>
      </g>
     </g>
     <g id="text_25">
      <!-- 0.04 -->
      <g transform="translate(33.034375 604.43331) scale(0.1 -0.1)">
       <use xlink:href="#DejaVuSans-30"/>
       <use xlink:href="#DejaVuSans-2e" x="63.623047"/>
       <use xlink:href="#DejaVuSans-30" x="95.410156"/>
       <use xlink:href="#DejaVuSans-34" x="159.033203"/>
      </g>
     </g>
    </g>
    <g id="text_26">
     <!-- Population -->
     <g transform="translate(18.575 811.071406) rotate(-90) scale(0.1 -0.1)">
      <use xlink:href="#DejaVuSans-50"/>
      <use xlink:href="#DejaVuSans-6f" x="56.677734"/>
      <use xlink:href="#DejaVuSans-70" x="117.859375"/>
      <use xlink:href="#DejaVuSans-75" x="181.335938"/>
      <use xlink:href="#DejaVuSans-6c" x="244.714844"/>
      <use xlink:href="#DejaVuSans-61" x="272.498047"/>
      <use xlink:href="#DejaVuSans-74" x="333.777344"/>
      <use xlink:href="#DejaVuSans-69" x="372.986328"/>
      <use xlink:href="#DejaVuSans-6f" x="400.769531"/>
      <use xlink:href="#DejaVuSans-6e" x="461.951172"/>
     </g>
    </g>
   </g>
   <g id="line2d_36">
    <path d="M 91.704545 784.805 
L 679.795455 784.805 
L 679.795455 784.805 
" clip-path="url(#pe139effe71)" style="fill: none; stroke: #0000ff; stroke-width: 1.5; stroke-linecap: square"/>
   </g>
   <g id="line2d_37">
    <path d="M 91.704545 784.805 
L 679.795455 784.805 
L 679.795455 784.805 
" clip-path="url(#pe139effe71)" style="fill: none; stroke: #008000; stroke-width: 1.5; stroke-linecap: square"/>
   </g>
   <g id="line2d_38">
    <path d="M 91.704545 784.805 
L 679.795455 784.805 
L 679.795455 784.805 
" clip-path="url(#pe139effe71)" style="fill: none; stroke: #ff0000; stroke-width: 1.5; stroke-linecap: square"/>
   </g>
   <g id="patch_9">
    <path d="M 62.3 1038.04 
L 62.3 531.57 
" style="fill: none; stroke: #000000; stroke-width: 0.8; stroke-linejoin: miter; stroke-linecap: square"/>
   </g>
   <g id="patch_10">
    <path d="M 709.2 1038.04 
L 709.2 531.57 
" style="fill: none; stroke: #000000; stroke-width: 0.8; stroke-linejoin: miter; stroke-linecap: square"/>
   </g>
   <g id="patch_11">
    <path d="M 62.3 1038.04 
L 709.2 1038.04 
" style="fill: none; stroke: #000000; stroke-width: 0.8; stroke-linejoin: miter; stroke-linecap: square"/>
   </g>
   <g id="patch_12">
    <path d="M 62.3 531.57 
L 709.2 531.57 
" style="fill: none; stroke: #000000; stroke-width: 0.8; stroke-linejoin: miter; stroke-linecap: square"/>
   </g>
   <g id="legend_2">
    <g id="patch_13">
     <path d="M 650.223438 584.43875 
L 702.2 584.43875 
Q 704.2 584.43875 704.2 582.43875 
L 704.2 538.57 
Q 704.2 536.57 702.2 536.57 
L 650.223438 536.57 
Q 648.223438 536.57 648.223438 538.57 
L 648.223438 582.43875 
Q 648.223438 584.43875 650.223438 584.43875 
z
" style="fill: #ffffff; opacity: 0.8; stroke: #cccccc; stroke-linejoin: miter"/>
    </g>
    <g id="line2d_39">
     <path d="M 652.223438 544.668437 
L 662.223438 544.668437 
L 672.223438 544.668437 
" style="fill: none; stroke: #0000ff; stroke-width: 1.5; stroke-linecap: square"/>
    </g>
    <g id="text_27">
     <!-- E_S -->
     <g transform="translate(680.223438 548.168437) scale(0.1 -0.1)">
      <use xlink:href="#DejaVuSans-45"/>
      <use xlink:href="#DejaVuSans-5f" x="63.183594"/>
      <use xlink:href="#DejaVuSans-53" x="113.183594"/>
     </g>
    </g>
    <g id="line2d_40">
     <path d="M 652.223438 559.624687 
L 662.223438 559.624687 
L 672.223438 559.624687 
" style="fill: none; stroke: #008000; stroke-width: 1.5; stroke-linecap: square"/>
    </g>
    <g id="text_28">
     <!-- H_S -->
     <g transform="translate(680.223438 563.124687) scale(0.1 -0.1)">
      <use xlink:href="#DejaVuSans-48"/>
      <use xlink:href="#DejaVuSans-5f" x="75.195312"/>
      <use xlink:href="#DejaVuSans-53" x="125.195312"/>
     </g>
    </g>
    <g id="line2d_41">
     <path d="M 652.223438 574.580938 
L 662.223438 574.580938 
L 672.223438 574.580938 
" style="fill: none; stroke: #ff0000; stroke-width: 1.5; stroke-linecap: square"/>
    </g>
    <g id="text_29">
     <!-- M_S -->
     <g transform="translate(680.223438 578.080938) scale(0.1 -0.1)">
      <use xlink:href="#DejaVuSans-4d"/>
      <use xlink:href="#DejaVuSans-5f" x="86.279297"/>
      <use xlink:href="#DejaVuSans-53" x="136.279297"/>
     </g>
    </g>
   </g>
  </g>
 </g>
 <defs>
  <clipPath id="p5554b268c4">
   <rect x="62.3" y="10.8" width="646.9" height="506.47"/>
  </clipPath>
  <clipPath id="pe139effe71">
   <rect x="62.3" y="531.57" width="646.9" height="506.47"/>
  </clipPath>
 </defs>
</svg>
