<?xml version="1.0" encoding="utf-8" standalone="no"?>
<!DOCTYPE svg PUBLIC "-//W3C//DTD SVG 1.1//EN"
  "http://www.w3.org/Graphics/SVG/1.1/DTD/svg11.dtd">
<svg xmlns:xlink="http://www.w3.org/1999/xlink" width="720pt" height="1080pt" viewBox="0 0 720 1080" xmlns="http://www.w3.org/2000/svg" version="1.1">
 <metadata>
  <rdf:RDF xmlns:dc="http://purl.org/dc/elements/1.1/" xmlns:cc="http://creativecommons.org/ns#" xmlns:rdf="http://www.w3.org/1999/02/22-rdf-syntax-ns#">
   <cc:Work>
    <dc:type rdf:resource="http://purl.org/dc/dcmitype/StillImage"/>
    <dc:date>2023-06-26T21:38:28.993309</dc:date>
    <dc:format>image/svg+xml</dc:format>
    <dc:creator>
     <cc:Agent>
      <dc:title>Matplotlib v3.6.2, https://matplotlib.org/</dc:title>
     </cc:Agent>
    </dc:creator>
   </cc:Work>
  </rdf:RDF>
 </metadata>
 <defs>
  <style type="text/css">*{stroke-linejoin: round; stroke-linecap: butt}</style>
 </defs>
 <g id="figure_1">
  <g id="patch_1">
   <path d="M 0 1080 
L 720 1080 
L 720 0 
L 0 0 
z
" style="fill: #ffffff"/>
  </g>
  <g id="axes_1">
   <g id="patch_2">
    <path d="M 50.87 517.27 
L 709.2 517.27 
L 709.2 10.8 
L 50.87 10.8 
z
" style="fill: #ffffff"/>
   </g>
   <g id="matplotlib.axis_1">
    <g id="xtick_1">
     <g id="line2d_1">
      <defs>
       <path id="m7fcccff725" d="M 0 0 
L 0 3.5 
" style="stroke: #000000; stroke-width: 0.8"/>
      </defs>
      <g>
       <use xlink:href="#m7fcccff725" x="80.794091" y="517.27" style="stroke: #000000; stroke-width: 0.8"/>
      </g>
     </g>
    </g>
    <g id="xtick_2">
     <g id="line2d_2">
      <g>
       <use xlink:href="#m7fcccff725" x="155.604318" y="517.27" style="stroke: #000000; stroke-width: 0.8"/>
      </g>
     </g>
    </g>
    <g id="xtick_3">
     <g id="line2d_3">
      <g>
       <use xlink:href="#m7fcccff725" x="230.414545" y="517.27" style="stroke: #000000; stroke-width: 0.8"/>
      </g>
     </g>
    </g>
    <g id="xtick_4">
     <g id="line2d_4">
      <g>
       <use xlink:href="#m7fcccff725" x="305.224773" y="517.27" style="stroke: #000000; stroke-width: 0.8"/>
      </g>
     </g>
    </g>
    <g id="xtick_5">
     <g id="line2d_5">
      <g>
       <use xlink:href="#m7fcccff725" x="380.035" y="517.27" style="stroke: #000000; stroke-width: 0.8"/>
      </g>
     </g>
    </g>
    <g id="xtick_6">
     <g id="line2d_6">
      <g>
       <use xlink:href="#m7fcccff725" x="454.845227" y="517.27" style="stroke: #000000; stroke-width: 0.8"/>
      </g>
     </g>
    </g>
    <g id="xtick_7">
     <g id="line2d_7">
      <g>
       <use xlink:href="#m7fcccff725" x="529.655455" y="517.27" style="stroke: #000000; stroke-width: 0.8"/>
      </g>
     </g>
    </g>
    <g id="xtick_8">
     <g id="line2d_8">
      <g>
       <use xlink:href="#m7fcccff725" x="604.465682" y="517.27" style="stroke: #000000; stroke-width: 0.8"/>
      </g>
     </g>
    </g>
    <g id="xtick_9">
     <g id="line2d_9">
      <g>
       <use xlink:href="#m7fcccff725" x="679.275909" y="517.27" style="stroke: #000000; stroke-width: 0.8"/>
      </g>
     </g>
    </g>
   </g>
   <g id="matplotlib.axis_2">
    <g id="ytick_1">
     <g id="line2d_10">
      <defs>
       <path id="ma01883171b" d="M 0 0 
L -3.5 0 
" style="stroke: #000000; stroke-width: 0.8"/>
      </defs>
      <g>
       <use xlink:href="#ma01883171b" x="50.87" y="494.248636" style="stroke: #000000; stroke-width: 0.8"/>
      </g>
     </g>
     <g id="text_1">
      <!-- 0 -->
      <g transform="translate(37.5075 498.047855) scale(0.1 -0.1)">
       <defs>
        <path id="DejaVuSans-30" d="M 2034 4250 
Q 1547 4250 1301 3770 
Q 1056 3291 1056 2328 
Q 1056 1369 1301 889 
Q 1547 409 2034 409 
Q 2525 409 2770 889 
Q 3016 1369 3016 2328 
Q 3016 3291 2770 3770 
Q 2525 4250 2034 4250 
z
M 2034 4750 
Q 2819 4750 3233 4129 
Q 3647 3509 3647 2328 
Q 3647 1150 3233 529 
Q 2819 -91 2034 -91 
Q 1250 -91 836 529 
Q 422 1150 422 2328 
Q 422 3509 836 4129 
Q 1250 4750 2034 4750 
z
" transform="scale(0.015625)"/>
       </defs>
       <use xlink:href="#DejaVuSans-30"/>
      </g>
     </g>
    </g>
    <g id="ytick_2">
     <g id="line2d_11">
      <g>
       <use xlink:href="#ma01883171b" x="50.87" y="402.163182" style="stroke: #000000; stroke-width: 0.8"/>
      </g>
     </g>
     <g id="text_2">
      <!-- 20 -->
      <g transform="translate(31.145 405.962401) scale(0.1 -0.1)">
       <defs>
        <path id="DejaVuSans-32" d="M 1228 531 
L 3431 531 
L 3431 0 
L 469 0 
L 469 531 
Q 828 903 1448 1529 
Q 2069 2156 2228 2338 
Q 2531 2678 2651 2914 
Q 2772 3150 2772 3378 
Q 2772 3750 2511 3984 
Q 2250 4219 1831 4219 
Q 1534 4219 1204 4116 
Q 875 4013 500 3803 
L 500 4441 
Q 881 4594 1212 4672 
Q 1544 4750 1819 4750 
Q 2544 4750 2975 4387 
Q 3406 4025 3406 3419 
Q 3406 3131 3298 2873 
Q 3191 2616 2906 2266 
Q 2828 2175 2409 1742 
Q 1991 1309 1228 531 
z
" transform="scale(0.015625)"/>
       </defs>
       <use xlink:href="#DejaVuSans-32"/>
       <use xlink:href="#DejaVuSans-30" x="63.623047"/>
      </g>
     </g>
    </g>
    <g id="ytick_3">
     <g id="line2d_12">
      <g>
       <use xlink:href="#ma01883171b" x="50.87" y="310.077727" style="stroke: #000000; stroke-width: 0.8"/>
      </g>
     </g>
     <g id="text_3">
      <!-- 40 -->
      <g transform="translate(31.145 313.876946) scale(0.1 -0.1)">
       <defs>
        <path id="DejaVuSans-34" d="M 2419 4116 
L 825 1625 
L 2419 1625 
L 2419 4116 
z
M 2253 4666 
L 3047 4666 
L 3047 1625 
L 3713 1625 
L 3713 1100 
L 3047 1100 
L 3047 0 
L 2419 0 
L 2419 1100 
L 313 1100 
L 313 1709 
L 2253 4666 
z
" transform="scale(0.015625)"/>
       </defs>
       <use xlink:href="#DejaVuSans-34"/>
       <use xlink:href="#DejaVuSans-30" x="63.623047"/>
      </g>
     </g>
    </g>
    <g id="ytick_4">
     <g id="line2d_13">
      <g>
       <use xlink:href="#ma01883171b" x="50.87" y="217.992273" style="stroke: #000000; stroke-width: 0.8"/>
      </g>
     </g>
     <g id="text_4">
      <!-- 60 -->
      <g transform="translate(31.145 221.791491) scale(0.1 -0.1)">
       <defs>
        <path id="DejaVuSans-36" d="M 2113 2584 
Q 1688 2584 1439 2293 
Q 1191 2003 1191 1497 
Q 1191 994 1439 701 
Q 1688 409 2113 409 
Q 2538 409 2786 701 
Q 3034 994 3034 1497 
Q 3034 2003 2786 2293 
Q 2538 2584 2113 2584 
z
M 3366 4563 
L 3366 3988 
Q 3128 4100 2886 4159 
Q 2644 4219 2406 4219 
Q 1781 4219 1451 3797 
Q 1122 3375 1075 2522 
Q 1259 2794 1537 2939 
Q 1816 3084 2150 3084 
Q 2853 3084 3261 2657 
Q 3669 2231 3669 1497 
Q 3669 778 3244 343 
Q 2819 -91 2113 -91 
Q 1303 -91 875 529 
Q 447 1150 447 2328 
Q 447 3434 972 4092 
Q 1497 4750 2381 4750 
Q 2619 4750 2861 4703 
Q 3103 4656 3366 4563 
z
" transform="scale(0.015625)"/>
       </defs>
       <use xlink:href="#DejaVuSans-36"/>
       <use xlink:href="#DejaVuSans-30" x="63.623047"/>
      </g>
     </g>
    </g>
    <g id="ytick_5">
     <g id="line2d_14">
      <g>
       <use xlink:href="#ma01883171b" x="50.87" y="125.906818" style="stroke: #000000; stroke-width: 0.8"/>
      </g>
     </g>
     <g id="text_5">
      <!-- 80 -->
      <g transform="translate(31.145 129.706037) scale(0.1 -0.1)">
       <defs>
        <path id="DejaVuSans-38" d="M 2034 2216 
Q 1584 2216 1326 1975 
Q 1069 1734 1069 1313 
Q 1069 891 1326 650 
Q 1584 409 2034 409 
Q 2484 409 2743 651 
Q 3003 894 3003 1313 
Q 3003 1734 2745 1975 
Q 2488 2216 2034 2216 
z
M 1403 2484 
Q 997 2584 770 2862 
Q 544 3141 544 3541 
Q 544 4100 942 4425 
Q 1341 4750 2034 4750 
Q 2731 4750 3128 4425 
Q 3525 4100 3525 3541 
Q 3525 3141 3298 2862 
Q 3072 2584 2669 2484 
Q 3125 2378 3379 2068 
Q 3634 1759 3634 1313 
Q 3634 634 3220 271 
Q 2806 -91 2034 -91 
Q 1263 -91 848 271 
Q 434 634 434 1313 
Q 434 1759 690 2068 
Q 947 2378 1403 2484 
z
M 1172 3481 
Q 1172 3119 1398 2916 
Q 1625 2713 2034 2713 
Q 2441 2713 2670 2916 
Q 2900 3119 2900 3481 
Q 2900 3844 2670 4047 
Q 2441 4250 2034 4250 
Q 1625 4250 1398 4047 
Q 1172 3844 1172 3481 
z
" transform="scale(0.015625)"/>
       </defs>
       <use xlink:href="#DejaVuSans-38"/>
       <use xlink:href="#DejaVuSans-30" x="63.623047"/>
      </g>
     </g>
    </g>
    <g id="ytick_6">
     <g id="line2d_15">
      <g>
       <use xlink:href="#ma01883171b" x="50.87" y="33.821364" style="stroke: #000000; stroke-width: 0.8"/>
      </g>
     </g>
     <g id="text_6">
      <!-- 100 -->
      <g transform="translate(24.7825 37.620582) scale(0.1 -0.1)">
       <defs>
        <path id="DejaVuSans-31" d="M 794 531 
L 1825 531 
L 1825 4091 
L 703 3866 
L 703 4441 
L 1819 4666 
L 2450 4666 
L 2450 531 
L 3481 531 
L 3481 0 
L 794 0 
L 794 531 
z
" transform="scale(0.015625)"/>
       </defs>
       <use xlink:href="#DejaVuSans-31"/>
       <use xlink:href="#DejaVuSans-30" x="63.623047"/>
       <use xlink:href="#DejaVuSans-30" x="127.246094"/>
      </g>
     </g>
    </g>
    <g id="text_7">
     <!-- Population -->
     <g transform="translate(18.702813 290.301406) rotate(-90) scale(0.1 -0.1)">
      <defs>
       <path id="DejaVuSans-50" d="M 1259 4147 
L 1259 2394 
L 2053 2394 
Q 2494 2394 2734 2622 
Q 2975 2850 2975 3272 
Q 2975 3691 2734 3919 
Q 2494 4147 2053 4147 
L 1259 4147 
z
M 628 4666 
L 2053 4666 
Q 2838 4666 3239 4311 
Q 3641 3956 3641 3272 
Q 3641 2581 3239 2228 
Q 2838 1875 2053 1875 
L 1259 1875 
L 1259 0 
L 628 0 
L 628 4666 
z
" transform="scale(0.015625)"/>
       <path id="DejaVuSans-6f" d="M 1959 3097 
Q 1497 3097 1228 2736 
Q 959 2375 959 1747 
Q 959 1119 1226 758 
Q 1494 397 1959 397 
Q 2419 397 2687 759 
Q 2956 1122 2956 1747 
Q 2956 2369 2687 2733 
Q 2419 3097 1959 3097 
z
M 1959 3584 
Q 2709 3584 3137 3096 
Q 3566 2609 3566 1747 
Q 3566 888 3137 398 
Q 2709 -91 1959 -91 
Q 1206 -91 779 398 
Q 353 888 353 1747 
Q 353 2609 779 3096 
Q 1206 3584 1959 3584 
z
" transform="scale(0.015625)"/>
       <path id="DejaVuSans-70" d="M 1159 525 
L 1159 -1331 
L 581 -1331 
L 581 3500 
L 1159 3500 
L 1159 2969 
Q 1341 3281 1617 3432 
Q 1894 3584 2278 3584 
Q 2916 3584 3314 3078 
Q 3713 2572 3713 1747 
Q 3713 922 3314 415 
Q 2916 -91 2278 -91 
Q 1894 -91 1617 61 
Q 1341 213 1159 525 
z
M 3116 1747 
Q 3116 2381 2855 2742 
Q 2594 3103 2138 3103 
Q 1681 3103 1420 2742 
Q 1159 2381 1159 1747 
Q 1159 1113 1420 752 
Q 1681 391 2138 391 
Q 2594 391 2855 752 
Q 3116 1113 3116 1747 
z
" transform="scale(0.015625)"/>
       <path id="DejaVuSans-75" d="M 544 1381 
L 544 3500 
L 1119 3500 
L 1119 1403 
Q 1119 906 1312 657 
Q 1506 409 1894 409 
Q 2359 409 2629 706 
Q 2900 1003 2900 1516 
L 2900 3500 
L 3475 3500 
L 3475 0 
L 2900 0 
L 2900 538 
Q 2691 219 2414 64 
Q 2138 -91 1772 -91 
Q 1169 -91 856 284 
Q 544 659 544 1381 
z
M 1991 3584 
L 1991 3584 
z
" transform="scale(0.015625)"/>
       <path id="DejaVuSans-6c" d="M 603 4863 
L 1178 4863 
L 1178 0 
L 603 0 
L 603 4863 
z
" transform="scale(0.015625)"/>
       <path id="DejaVuSans-61" d="M 2194 1759 
Q 1497 1759 1228 1600 
Q 959 1441 959 1056 
Q 959 750 1161 570 
Q 1363 391 1709 391 
Q 2188 391 2477 730 
Q 2766 1069 2766 1631 
L 2766 1759 
L 2194 1759 
z
M 3341 1997 
L 3341 0 
L 2766 0 
L 2766 531 
Q 2569 213 2275 61 
Q 1981 -91 1556 -91 
Q 1019 -91 701 211 
Q 384 513 384 1019 
Q 384 1609 779 1909 
Q 1175 2209 1959 2209 
L 2766 2209 
L 2766 2266 
Q 2766 2663 2505 2880 
Q 2244 3097 1772 3097 
Q 1472 3097 1187 3025 
Q 903 2953 641 2809 
L 641 3341 
Q 956 3463 1253 3523 
Q 1550 3584 1831 3584 
Q 2591 3584 2966 3190 
Q 3341 2797 3341 1997 
z
" transform="scale(0.015625)"/>
       <path id="DejaVuSans-74" d="M 1172 4494 
L 1172 3500 
L 2356 3500 
L 2356 3053 
L 1172 3053 
L 1172 1153 
Q 1172 725 1289 603 
Q 1406 481 1766 481 
L 2356 481 
L 2356 0 
L 1766 0 
Q 1100 0 847 248 
Q 594 497 594 1153 
L 594 3053 
L 172 3053 
L 172 3500 
L 594 3500 
L 594 4494 
L 1172 4494 
z
" transform="scale(0.015625)"/>
       <path id="DejaVuSans-69" d="M 603 3500 
L 1178 3500 
L 1178 0 
L 603 0 
L 603 3500 
z
M 603 4863 
L 1178 4863 
L 1178 4134 
L 603 4134 
L 603 4863 
z
" transform="scale(0.015625)"/>
       <path id="DejaVuSans-6e" d="M 3513 2113 
L 3513 0 
L 2938 0 
L 2938 2094 
Q 2938 2591 2744 2837 
Q 2550 3084 2163 3084 
Q 1697 3084 1428 2787 
Q 1159 2491 1159 1978 
L 1159 0 
L 581 0 
L 581 3500 
L 1159 3500 
L 1159 2956 
Q 1366 3272 1645 3428 
Q 1925 3584 2291 3584 
Q 2894 3584 3203 3211 
Q 3513 2838 3513 2113 
z
" transform="scale(0.015625)"/>
      </defs>
      <use xlink:href="#DejaVuSans-50"/>
      <use xlink:href="#DejaVuSans-6f" x="56.677734"/>
      <use xlink:href="#DejaVuSans-70" x="117.859375"/>
      <use xlink:href="#DejaVuSans-75" x="181.335938"/>
      <use xlink:href="#DejaVuSans-6c" x="244.714844"/>
      <use xlink:href="#DejaVuSans-61" x="272.498047"/>
      <use xlink:href="#DejaVuSans-74" x="333.777344"/>
      <use xlink:href="#DejaVuSans-69" x="372.986328"/>
      <use xlink:href="#DejaVuSans-6f" x="400.769531"/>
      <use xlink:href="#DejaVuSans-6e" x="461.951172"/>
     </g>
    </g>
   </g>
   <g id="line2d_16">
    <path d="M 80.794091 33.821364 
L 83.911184 44.871618 
L 90.145369 72.497255 
L 93.262462 89.533064 
L 96.379555 100.583318 
L 99.496648 115.316991 
L 102.613741 130.971518 
L 105.730833 140.640491 
L 108.847926 153.072027 
L 111.965019 166.424418 
L 115.082112 173.791255 
L 118.199205 184.381082 
L 121.316297 196.352191 
L 124.43339 205.100309 
L 127.550483 214.769282 
L 130.667576 227.661245 
L 133.784669 232.265518 
L 136.901761 242.855345 
L 140.018854 248.380473 
L 143.135947 255.286882 
L 146.25304 260.812009 
L 149.370133 267.718418 
L 152.487225 276.466536 
L 155.604318 281.070809 
L 158.721411 289.818927 
L 161.838504 295.804482 
L 164.955597 299.4879 
L 168.072689 306.854736 
L 171.189782 312.840291 
L 174.306875 322.048836 
L 177.423968 326.192682 
L 180.541061 333.099091 
L 183.658153 337.242936 
L 186.775246 342.768064 
L 189.892339 345.530627 
L 193.009432 348.753618 
L 196.126525 354.739173 
L 199.243617 357.962164 
L 202.36071 364.408145 
L 205.477803 369.933273 
L 208.594896 375.918827 
L 211.711989 380.983527 
L 214.829081 383.285664 
L 217.946174 386.969082 
L 221.063267 389.271218 
L 224.18036 394.796345 
L 227.297453 396.638055 
L 230.414545 400.321473 
L 236.648731 405.8466 
L 239.765824 409.069591 
L 246.000009 414.594718 
L 249.117102 415.976 
L 255.351288 422.421982 
L 258.468381 424.724118 
L 261.585473 427.486682 
L 264.702566 429.328391 
L 267.819659 432.551382 
L 270.936752 434.393091 
L 274.053845 435.313945 
L 277.170938 437.155655 
L 280.28803 439.918218 
L 286.522216 441.759927 
L 289.639309 444.062064 
L 295.873494 447.745482 
L 298.990587 450.047618 
L 305.224773 450.968473 
L 308.341866 451.889327 
L 311.458958 454.651891 
L 314.576051 455.112318 
L 317.693144 457.414455 
L 320.810237 458.335309 
L 323.92733 458.795736 
L 336.395701 462.479155 
L 339.512794 462.479155 
L 342.629886 462.939582 
L 348.864072 465.702145 
L 351.981165 465.702145 
L 358.21535 466.623 
L 364.449536 466.623 
L 370.683722 468.464709 
L 373.800814 468.464709 
L 380.035 469.385564 
L 383.152093 469.385564 
L 386.269186 470.306418 
L 389.386278 470.766845 
L 392.503371 472.148127 
L 395.620464 473.068982 
L 398.737557 473.529409 
L 404.971742 475.371118 
L 414.323021 476.7524 
L 417.440114 476.7524 
L 423.674299 477.673255 
L 426.791392 477.673255 
L 429.908485 478.133682 
L 436.14267 479.975391 
L 439.259763 480.435818 
L 442.376856 481.356673 
L 451.728134 482.737955 
L 454.845227 483.658809 
L 457.96232 484.119236 
L 464.196506 484.119236 
L 467.313598 484.579664 
L 470.430691 484.579664 
L 473.547784 485.040091 
L 486.016155 485.040091 
L 489.133248 485.500518 
L 492.250341 485.500518 
L 495.367434 485.960945 
L 501.601619 485.960945 
L 504.718712 486.421373 
L 514.069991 486.421373 
L 517.187083 487.802655 
L 520.304176 488.263082 
L 523.421269 488.263082 
L 526.538362 488.723509 
L 539.006733 488.723509 
L 545.240919 489.644364 
L 551.475104 489.644364 
L 557.70929 490.565218 
L 582.646032 490.565218 
L 585.763125 491.025645 
L 607.582775 491.025645 
L 610.699867 491.486073 
L 616.934053 491.486073 
L 620.051146 491.9465 
L 626.285331 491.9465 
L 629.402424 492.406927 
L 651.222074 492.406927 
L 654.339167 492.867355 
L 679.275909 492.867355 
L 679.275909 492.867355 
" clip-path="url(#pe27bae51bf)" style="fill: none; stroke: #0000ff; stroke-width: 1.5; stroke-linecap: square"/>
   </g>
   <g id="line2d_17">
    <path d="M 80.794091 494.248636 
L 83.911184 488.263082 
L 87.028277 479.054536 
L 90.145369 470.306418 
L 93.262462 457.874882 
L 96.379555 450.047618 
L 99.496648 441.759927 
L 102.613741 432.551382 
L 105.730833 426.565827 
L 108.847926 416.436427 
L 111.965019 407.227882 
L 115.082112 402.163182 
L 118.199205 394.796345 
L 121.316297 389.731645 
L 124.43339 385.127373 
L 127.550483 377.760536 
L 130.667576 372.235409 
L 133.784669 369.472845 
L 136.901761 359.803873 
L 140.018854 355.660027 
L 143.135947 353.818318 
L 146.25304 351.055755 
L 152.487225 343.688918 
L 155.604318 341.386782 
L 158.721411 335.401227 
L 161.838504 334.019945 
L 164.955597 334.019945 
L 168.072689 328.494818 
L 171.189782 325.732255 
L 174.306875 321.127982 
L 177.423968 319.7467 
L 180.541061 314.221573 
L 183.658153 315.602855 
L 186.775246 314.682 
L 193.009432 311.919436 
L 196.126525 308.696445 
L 199.243617 308.236018 
L 202.36071 306.394309 
L 205.477803 302.250464 
L 208.594896 300.869182 
L 211.711989 299.948327 
L 214.829081 300.869182 
L 217.946174 300.869182 
L 221.063267 301.329609 
L 224.18036 299.4879 
L 227.297453 299.948327 
L 230.414545 300.869182 
L 233.531638 298.106618 
L 239.765824 297.185764 
L 242.882917 298.567045 
L 246.000009 297.185764 
L 249.117102 301.790036 
L 252.234195 302.250464 
L 255.351288 303.171318 
L 258.468381 305.933882 
L 261.585473 304.5526 
L 264.702566 304.5526 
L 267.819659 302.710891 
L 270.936752 302.250464 
L 274.053845 305.933882 
L 277.170938 307.315164 
L 283.405123 312.840291 
L 286.522216 316.984136 
L 289.639309 317.904991 
L 292.756402 321.588409 
L 295.873494 320.207127 
L 298.990587 320.667555 
L 302.10768 320.207127 
L 305.224773 324.8114 
L 308.341866 327.573964 
L 311.458958 329.415673 
L 314.576051 332.178236 
L 317.693144 332.638664 
L 320.810237 334.9408 
L 323.92733 339.084645 
L 327.044422 338.624218 
L 330.161515 339.545073 
L 333.278608 340.0055 
L 336.395701 341.386782 
L 339.512794 343.688918 
L 345.746979 347.372336 
L 348.864072 346.451482 
L 358.21535 354.739173 
L 361.332443 357.962164 
L 364.449536 358.422591 
L 367.566629 359.803873 
L 370.683722 361.645582 
L 373.800814 363.947718 
L 376.917907 367.170709 
L 380.035 367.631136 
L 383.152093 369.012418 
L 386.269186 370.854127 
L 389.386278 373.156264 
L 392.503371 374.077118 
L 395.620464 374.537545 
L 398.737557 376.839682 
L 404.971742 382.364809 
L 408.088835 383.285664 
L 411.205928 382.825236 
L 414.323021 383.285664 
L 417.440114 386.048227 
L 420.557206 386.508655 
L 423.674299 385.5878 
L 426.791392 388.350364 
L 433.025578 390.192073 
L 436.14267 389.271218 
L 439.259763 390.6525 
L 442.376856 392.494209 
L 445.493949 394.796345 
L 448.611042 396.638055 
L 451.728134 398.940191 
L 454.845227 399.861045 
L 457.96232 399.400618 
L 461.079413 400.7819 
L 464.196506 401.702755 
L 467.313598 402.163182 
L 470.430691 403.084036 
L 473.547784 403.544464 
L 476.664877 408.148736 
L 479.78197 407.688309 
L 482.899063 409.530018 
L 486.016155 409.990445 
L 489.133248 411.371727 
L 492.250341 412.292582 
L 495.367434 412.753009 
L 501.601619 414.594718 
L 504.718712 415.055145 
L 507.835805 417.357282 
L 514.069991 420.119845 
L 526.538362 421.961555 
L 529.655455 421.961555 
L 535.88964 424.724118 
L 542.123826 423.803264 
L 548.358011 428.407536 
L 551.475104 428.407536 
L 554.592197 427.947109 
L 557.70929 428.407536 
L 560.826383 430.249245 
L 563.943475 429.788818 
L 567.060568 430.249245 
L 570.177661 432.090955 
L 576.411847 433.011809 
L 582.646032 434.853518 
L 585.763125 436.2348 
L 588.880218 437.155655 
L 591.997311 438.536936 
L 595.114403 438.536936 
L 601.348589 442.220355 
L 607.582775 444.062064 
L 613.81696 444.062064 
L 616.934053 445.903773 
L 623.168239 446.824627 
L 626.285331 447.745482 
L 629.402424 447.745482 
L 632.519517 449.126764 
L 635.63661 450.047618 
L 638.753703 452.349755 
L 644.987888 453.270609 
L 651.222074 453.270609 
L 654.339167 452.810182 
L 660.573352 454.651891 
L 666.807538 455.572745 
L 673.041723 455.572745 
L 679.275909 457.414455 
L 679.275909 457.414455 
" clip-path="url(#pe27bae51bf)" style="fill: none; stroke: #008000; stroke-width: 1.5; stroke-linecap: square"/>
   </g>
   <g id="line2d_18">
    <path d="M 80.794091 494.248636 
L 87.028277 494.248636 
L 90.145369 493.327782 
L 99.496648 491.9465 
L 102.613741 489.183936 
L 105.730833 488.723509 
L 108.847926 487.802655 
L 111.965019 487.342227 
L 115.082112 485.960945 
L 118.199205 484.119236 
L 121.316297 481.356673 
L 124.43339 479.054536 
L 130.667576 473.529409 
L 133.784669 470.306418 
L 136.901761 470.306418 
L 140.018854 469.385564 
L 143.135947 466.623 
L 149.370133 462.939582 
L 152.487225 462.018727 
L 155.604318 460.177018 
L 158.721411 455.572745 
L 161.838504 453.270609 
L 164.955597 450.047618 
L 168.072689 447.285055 
L 171.189782 444.982918 
L 174.306875 444.982918 
L 177.423968 441.759927 
L 180.541061 441.2995 
L 183.658153 437.155655 
L 189.892339 432.551382 
L 193.009432 429.328391 
L 196.126525 429.328391 
L 199.243617 427.026255 
L 202.36071 424.263691 
L 205.477803 423.342836 
L 208.594896 421.0407 
L 211.711989 419.659418 
L 214.829081 417.817709 
L 217.946174 414.134291 
L 221.063267 414.594718 
L 224.18036 413.213436 
L 227.297453 409.069591 
L 230.414545 406.307027 
L 233.531638 403.084036 
L 239.765824 397.558909 
L 242.882917 394.335918 
L 246.000009 393.875491 
L 249.117102 390.192073 
L 252.234195 388.350364 
L 255.351288 387.889936 
L 258.468381 385.127373 
L 261.585473 383.285664 
L 267.819659 377.760536 
L 270.936752 376.379255 
L 274.053845 372.695836 
L 280.28803 369.012418 
L 286.522216 362.566436 
L 289.639309 358.883018 
L 292.756402 354.739173 
L 295.873494 353.357891 
L 298.990587 351.055755 
L 302.10768 349.214045 
L 305.224773 344.149345 
L 308.341866 342.307636 
L 311.458958 340.0055 
L 314.576051 335.861655 
L 317.693144 334.019945 
L 320.810237 331.717809 
L 323.92733 328.034391 
L 327.044422 325.732255 
L 330.161515 323.890545 
L 333.278608 325.271827 
L 336.395701 324.350973 
L 339.512794 323.890545 
L 342.629886 319.7467 
L 345.746979 317.904991 
L 351.981165 315.142427 
L 355.098258 310.998582 
L 358.21535 308.236018 
L 361.332443 306.394309 
L 364.449536 306.394309 
L 367.566629 305.933882 
L 370.683722 303.631745 
L 373.800814 302.250464 
L 376.917907 301.790036 
L 380.035 299.948327 
L 386.269186 298.106618 
L 389.386278 298.106618 
L 392.503371 295.344055 
L 395.620464 296.725336 
L 398.737557 294.883627 
L 401.85465 293.502345 
L 404.971742 291.200209 
L 414.323021 287.056364 
L 420.557206 283.372945 
L 423.674299 283.833373 
L 426.791392 283.372945 
L 429.908485 281.991664 
L 433.025578 281.070809 
L 436.14267 279.689527 
L 439.259763 279.689527 
L 442.376856 279.2291 
L 445.493949 277.387391 
L 448.611042 275.085255 
L 451.728134 274.624827 
L 454.845227 272.783118 
L 457.96232 271.401836 
L 461.079413 268.639273 
L 464.196506 268.639273 
L 467.313598 268.178845 
L 470.430691 268.178845 
L 473.547784 268.639273 
L 476.664877 265.876709 
L 486.016155 264.495427 
L 489.133248 263.574573 
L 492.250341 261.732864 
L 495.367434 260.351582 
L 498.484527 260.351582 
L 504.718712 263.114145 
L 507.835805 263.114145 
L 510.952898 264.955855 
L 514.069991 264.955855 
L 517.187083 266.337136 
L 523.421269 264.495427 
L 526.538362 265.416282 
L 532.772547 263.574573 
L 535.88964 263.574573 
L 539.006733 262.653718 
L 542.123826 260.812009 
L 545.240919 262.653718 
L 548.358011 260.812009 
L 551.475104 258.509873 
L 554.592197 258.509873 
L 557.70929 259.430727 
L 560.826383 257.128591 
L 570.177661 254.366027 
L 573.294754 252.524318 
L 576.411847 251.143036 
L 579.528939 252.984745 
L 585.763125 251.143036 
L 588.880218 251.603464 
L 591.997311 250.682609 
L 595.114403 251.143036 
L 598.231496 248.8409 
L 607.582775 247.459618 
L 610.699867 246.538764 
L 613.81696 246.078336 
L 616.934053 246.078336 
L 620.051146 246.538764 
L 623.168239 245.157482 
L 626.285331 244.236627 
L 629.402424 244.697055 
L 632.519517 241.474064 
L 635.63661 239.632355 
L 638.753703 238.7115 
L 641.870795 237.330218 
L 644.987888 237.330218 
L 651.222074 239.171927 
L 654.339167 239.632355 
L 657.456259 238.7115 
L 660.573352 238.7115 
L 666.807538 237.790645 
L 673.041723 238.7115 
L 676.158816 239.632355 
L 679.275909 240.092782 
L 679.275909 240.092782 
" clip-path="url(#pe27bae51bf)" style="fill: none; stroke: #ff0000; stroke-width: 1.5; stroke-linecap: square"/>
   </g>
   <g id="patch_3">
    <path d="M 50.87 517.27 
L 50.87 10.8 
" style="fill: none; stroke: #000000; stroke-width: 0.8; stroke-linejoin: miter; stroke-linecap: square"/>
   </g>
   <g id="patch_4">
    <path d="M 709.2 517.27 
L 709.2 10.8 
" style="fill: none; stroke: #000000; stroke-width: 0.8; stroke-linejoin: miter; stroke-linecap: square"/>
   </g>
   <g id="patch_5">
    <path d="M 50.87 517.27 
L 709.2 517.27 
" style="fill: none; stroke: #000000; stroke-width: 0.8; stroke-linejoin: miter; stroke-linecap: square"/>
   </g>
   <g id="patch_6">
    <path d="M 50.87 10.8 
L 709.2 10.8 
" style="fill: none; stroke: #000000; stroke-width: 0.8; stroke-linejoin: miter; stroke-linecap: square"/>
   </g>
   <g id="legend_1">
    <g id="patch_7">
     <path d="M 642.742188 63.66875 
L 702.2 63.66875 
Q 704.2 63.66875 704.2 61.66875 
L 704.2 17.8 
Q 704.2 15.8 702.2 15.8 
L 642.742188 15.8 
Q 640.742188 15.8 640.742188 17.8 
L 640.742188 61.66875 
Q 640.742188 63.66875 642.742188 63.66875 
z
" style="fill: #ffffff; opacity: 0.8; stroke: #cccccc; stroke-linejoin: miter"/>
    </g>
    <g id="line2d_19">
     <path d="M 644.742188 23.898438 
L 654.742188 23.898438 
L 664.742188 23.898438 
" style="fill: none; stroke: #0000ff; stroke-width: 1.5; stroke-linecap: square"/>
    </g>
    <g id="text_8">
     <!-- E_NS -->
     <g transform="translate(672.742188 27.398438) scale(0.1 -0.1)">
      <defs>
       <path id="DejaVuSans-45" d="M 628 4666 
L 3578 4666 
L 3578 4134 
L 1259 4134 
L 1259 2753 
L 3481 2753 
L 3481 2222 
L 1259 2222 
L 1259 531 
L 3634 531 
L 3634 0 
L 628 0 
L 628 4666 
z
" transform="scale(0.015625)"/>
       <path id="DejaVuSans-5f" d="M 3263 -1063 
L 3263 -1509 
L -63 -1509 
L -63 -1063 
L 3263 -1063 
z
" transform="scale(0.015625)"/>
       <path id="DejaVuSans-4e" d="M 628 4666 
L 1478 4666 
L 3547 763 
L 3547 4666 
L 4159 4666 
L 4159 0 
L 3309 0 
L 1241 3903 
L 1241 0 
L 628 0 
L 628 4666 
z
" transform="scale(0.015625)"/>
       <path id="DejaVuSans-53" d="M 3425 4513 
L 3425 3897 
Q 3066 4069 2747 4153 
Q 2428 4238 2131 4238 
Q 1616 4238 1336 4038 
Q 1056 3838 1056 3469 
Q 1056 3159 1242 3001 
Q 1428 2844 1947 2747 
L 2328 2669 
Q 3034 2534 3370 2195 
Q 3706 1856 3706 1288 
Q 3706 609 3251 259 
Q 2797 -91 1919 -91 
Q 1588 -91 1214 -16 
Q 841 59 441 206 
L 441 856 
Q 825 641 1194 531 
Q 1563 422 1919 422 
Q 2459 422 2753 634 
Q 3047 847 3047 1241 
Q 3047 1584 2836 1778 
Q 2625 1972 2144 2069 
L 1759 2144 
Q 1053 2284 737 2584 
Q 422 2884 422 3419 
Q 422 4038 858 4394 
Q 1294 4750 2059 4750 
Q 2388 4750 2728 4690 
Q 3069 4631 3425 4513 
z
" transform="scale(0.015625)"/>
      </defs>
      <use xlink:href="#DejaVuSans-45"/>
      <use xlink:href="#DejaVuSans-5f" x="63.183594"/>
      <use xlink:href="#DejaVuSans-4e" x="113.183594"/>
      <use xlink:href="#DejaVuSans-53" x="187.988281"/>
     </g>
    </g>
    <g id="line2d_20">
     <path d="M 644.742188 38.854687 
L 654.742188 38.854687 
L 664.742188 38.854687 
" style="fill: none; stroke: #008000; stroke-width: 1.5; stroke-linecap: square"/>
    </g>
    <g id="text_9">
     <!-- H_NS -->
     <g transform="translate(672.742188 42.354687) scale(0.1 -0.1)">
      <defs>
       <path id="DejaVuSans-48" d="M 628 4666 
L 1259 4666 
L 1259 2753 
L 3553 2753 
L 3553 4666 
L 4184 4666 
L 4184 0 
L 3553 0 
L 3553 2222 
L 1259 2222 
L 1259 0 
L 628 0 
L 628 4666 
z
" transform="scale(0.015625)"/>
      </defs>
      <use xlink:href="#DejaVuSans-48"/>
      <use xlink:href="#DejaVuSans-5f" x="75.195312"/>
      <use xlink:href="#DejaVuSans-4e" x="125.195312"/>
      <use xlink:href="#DejaVuSans-53" x="200"/>
     </g>
    </g>
    <g id="line2d_21">
     <path d="M 644.742188 53.810938 
L 654.742188 53.810938 
L 664.742188 53.810938 
" style="fill: none; stroke: #ff0000; stroke-width: 1.5; stroke-linecap: square"/>
    </g>
    <g id="text_10">
     <!-- M_NS -->
     <g transform="translate(672.742188 57.310938) scale(0.1 -0.1)">
      <defs>
       <path id="DejaVuSans-4d" d="M 628 4666 
L 1569 4666 
L 2759 1491 
L 3956 4666 
L 4897 4666 
L 4897 0 
L 4281 0 
L 4281 4097 
L 3078 897 
L 2444 897 
L 1241 4097 
L 1241 0 
L 628 0 
L 628 4666 
z
" transform="scale(0.015625)"/>
      </defs>
      <use xlink:href="#DejaVuSans-4d"/>
      <use xlink:href="#DejaVuSans-5f" x="86.279297"/>
      <use xlink:href="#DejaVuSans-4e" x="136.279297"/>
      <use xlink:href="#DejaVuSans-53" x="211.083984"/>
     </g>
    </g>
   </g>
  </g>
  <g id="axes_2">
   <g id="patch_8">
    <path d="M 50.87 1038.04 
L 709.2 1038.04 
L 709.2 531.57 
L 50.87 531.57 
z
" style="fill: #ffffff"/>
   </g>
   <g id="matplotlib.axis_3">
    <g id="xtick_10">
     <g id="line2d_22">
      <g>
       <use xlink:href="#m7fcccff725" x="80.794091" y="1038.04" style="stroke: #000000; stroke-width: 0.8"/>
      </g>
     </g>
     <g id="text_11">
      <!-- 0 -->
      <g transform="translate(77.612841 1052.638438) scale(0.1 -0.1)">
       <use xlink:href="#DejaVuSans-30"/>
      </g>
     </g>
    </g>
    <g id="xtick_11">
     <g id="line2d_23">
      <g>
       <use xlink:href="#m7fcccff725" x="155.604318" y="1038.04" style="stroke: #000000; stroke-width: 0.8"/>
      </g>
     </g>
     <g id="text_12">
      <!-- 1 -->
      <g transform="translate(152.423068 1052.638438) scale(0.1 -0.1)">
       <use xlink:href="#DejaVuSans-31"/>
      </g>
     </g>
    </g>
    <g id="xtick_12">
     <g id="line2d_24">
      <g>
       <use xlink:href="#m7fcccff725" x="230.414545" y="1038.04" style="stroke: #000000; stroke-width: 0.8"/>
      </g>
     </g>
     <g id="text_13">
      <!-- 2 -->
      <g transform="translate(227.233295 1052.638438) scale(0.1 -0.1)">
       <use xlink:href="#DejaVuSans-32"/>
      </g>
     </g>
    </g>
    <g id="xtick_13">
     <g id="line2d_25">
      <g>
       <use xlink:href="#m7fcccff725" x="305.224773" y="1038.04" style="stroke: #000000; stroke-width: 0.8"/>
      </g>
     </g>
     <g id="text_14">
      <!-- 3 -->
      <g transform="translate(302.043523 1052.638438) scale(0.1 -0.1)">
       <defs>
        <path id="DejaVuSans-33" d="M 2597 2516 
Q 3050 2419 3304 2112 
Q 3559 1806 3559 1356 
Q 3559 666 3084 287 
Q 2609 -91 1734 -91 
Q 1441 -91 1130 -33 
Q 819 25 488 141 
L 488 750 
Q 750 597 1062 519 
Q 1375 441 1716 441 
Q 2309 441 2620 675 
Q 2931 909 2931 1356 
Q 2931 1769 2642 2001 
Q 2353 2234 1838 2234 
L 1294 2234 
L 1294 2753 
L 1863 2753 
Q 2328 2753 2575 2939 
Q 2822 3125 2822 3475 
Q 2822 3834 2567 4026 
Q 2313 4219 1838 4219 
Q 1578 4219 1281 4162 
Q 984 4106 628 3988 
L 628 4550 
Q 988 4650 1302 4700 
Q 1616 4750 1894 4750 
Q 2613 4750 3031 4423 
Q 3450 4097 3450 3541 
Q 3450 3153 3228 2886 
Q 3006 2619 2597 2516 
z
" transform="scale(0.015625)"/>
       </defs>
       <use xlink:href="#DejaVuSans-33"/>
      </g>
     </g>
    </g>
    <g id="xtick_14">
     <g id="line2d_26">
      <g>
       <use xlink:href="#m7fcccff725" x="380.035" y="1038.04" style="stroke: #000000; stroke-width: 0.8"/>
      </g>
     </g>
     <g id="text_15">
      <!-- 4 -->
      <g transform="translate(376.85375 1052.638438) scale(0.1 -0.1)">
       <use xlink:href="#DejaVuSans-34"/>
      </g>
     </g>
    </g>
    <g id="xtick_15">
     <g id="line2d_27">
      <g>
       <use xlink:href="#m7fcccff725" x="454.845227" y="1038.04" style="stroke: #000000; stroke-width: 0.8"/>
      </g>
     </g>
     <g id="text_16">
      <!-- 5 -->
      <g transform="translate(451.663977 1052.638438) scale(0.1 -0.1)">
       <defs>
        <path id="DejaVuSans-35" d="M 691 4666 
L 3169 4666 
L 3169 4134 
L 1269 4134 
L 1269 2991 
Q 1406 3038 1543 3061 
Q 1681 3084 1819 3084 
Q 2600 3084 3056 2656 
Q 3513 2228 3513 1497 
Q 3513 744 3044 326 
Q 2575 -91 1722 -91 
Q 1428 -91 1123 -41 
Q 819 9 494 109 
L 494 744 
Q 775 591 1075 516 
Q 1375 441 1709 441 
Q 2250 441 2565 725 
Q 2881 1009 2881 1497 
Q 2881 1984 2565 2268 
Q 2250 2553 1709 2553 
Q 1456 2553 1204 2497 
Q 953 2441 691 2322 
L 691 4666 
z
" transform="scale(0.015625)"/>
       </defs>
       <use xlink:href="#DejaVuSans-35"/>
      </g>
     </g>
    </g>
    <g id="xtick_16">
     <g id="line2d_28">
      <g>
       <use xlink:href="#m7fcccff725" x="529.655455" y="1038.04" style="stroke: #000000; stroke-width: 0.8"/>
      </g>
     </g>
     <g id="text_17">
      <!-- 6 -->
      <g transform="translate(526.474205 1052.638438) scale(0.1 -0.1)">
       <use xlink:href="#DejaVuSans-36"/>
      </g>
     </g>
    </g>
    <g id="xtick_17">
     <g id="line2d_29">
      <g>
       <use xlink:href="#m7fcccff725" x="604.465682" y="1038.04" style="stroke: #000000; stroke-width: 0.8"/>
      </g>
     </g>
     <g id="text_18">
      <!-- 7 -->
      <g transform="translate(601.284432 1052.638438) scale(0.1 -0.1)">
       <defs>
        <path id="DejaVuSans-37" d="M 525 4666 
L 3525 4666 
L 3525 4397 
L 1831 0 
L 1172 0 
L 2766 4134 
L 525 4134 
L 525 4666 
z
" transform="scale(0.015625)"/>
       </defs>
       <use xlink:href="#DejaVuSans-37"/>
      </g>
     </g>
    </g>
    <g id="xtick_18">
     <g id="line2d_30">
      <g>
       <use xlink:href="#m7fcccff725" x="679.275909" y="1038.04" style="stroke: #000000; stroke-width: 0.8"/>
      </g>
     </g>
     <g id="text_19">
      <!-- 8 -->
      <g transform="translate(676.094659 1052.638438) scale(0.1 -0.1)">
       <use xlink:href="#DejaVuSans-38"/>
      </g>
     </g>
    </g>
    <g id="text_20">
     <!-- Time (days) -->
     <g transform="translate(350.508438 1066.316563) scale(0.1 -0.1)">
      <defs>
       <path id="DejaVuSans-54" d="M -19 4666 
L 3928 4666 
L 3928 4134 
L 2272 4134 
L 2272 0 
L 1638 0 
L 1638 4134 
L -19 4134 
L -19 4666 
z
" transform="scale(0.015625)"/>
       <path id="DejaVuSans-6d" d="M 3328 2828 
Q 3544 3216 3844 3400 
Q 4144 3584 4550 3584 
Q 5097 3584 5394 3201 
Q 5691 2819 5691 2113 
L 5691 0 
L 5113 0 
L 5113 2094 
Q 5113 2597 4934 2840 
Q 4756 3084 4391 3084 
Q 3944 3084 3684 2787 
Q 3425 2491 3425 1978 
L 3425 0 
L 2847 0 
L 2847 2094 
Q 2847 2600 2669 2842 
Q 2491 3084 2119 3084 
Q 1678 3084 1418 2786 
Q 1159 2488 1159 1978 
L 1159 0 
L 581 0 
L 581 3500 
L 1159 3500 
L 1159 2956 
Q 1356 3278 1631 3431 
Q 1906 3584 2284 3584 
Q 2666 3584 2933 3390 
Q 3200 3197 3328 2828 
z
" transform="scale(0.015625)"/>
       <path id="DejaVuSans-65" d="M 3597 1894 
L 3597 1613 
L 953 1613 
Q 991 1019 1311 708 
Q 1631 397 2203 397 
Q 2534 397 2845 478 
Q 3156 559 3463 722 
L 3463 178 
Q 3153 47 2828 -22 
Q 2503 -91 2169 -91 
Q 1331 -91 842 396 
Q 353 884 353 1716 
Q 353 2575 817 3079 
Q 1281 3584 2069 3584 
Q 2775 3584 3186 3129 
Q 3597 2675 3597 1894 
z
M 3022 2063 
Q 3016 2534 2758 2815 
Q 2500 3097 2075 3097 
Q 1594 3097 1305 2825 
Q 1016 2553 972 2059 
L 3022 2063 
z
" transform="scale(0.015625)"/>
       <path id="DejaVuSans-20" transform="scale(0.015625)"/>
       <path id="DejaVuSans-28" d="M 1984 4856 
Q 1566 4138 1362 3434 
Q 1159 2731 1159 2009 
Q 1159 1288 1364 580 
Q 1569 -128 1984 -844 
L 1484 -844 
Q 1016 -109 783 600 
Q 550 1309 550 2009 
Q 550 2706 781 3412 
Q 1013 4119 1484 4856 
L 1984 4856 
z
" transform="scale(0.015625)"/>
       <path id="DejaVuSans-64" d="M 2906 2969 
L 2906 4863 
L 3481 4863 
L 3481 0 
L 2906 0 
L 2906 525 
Q 2725 213 2448 61 
Q 2172 -91 1784 -91 
Q 1150 -91 751 415 
Q 353 922 353 1747 
Q 353 2572 751 3078 
Q 1150 3584 1784 3584 
Q 2172 3584 2448 3432 
Q 2725 3281 2906 2969 
z
M 947 1747 
Q 947 1113 1208 752 
Q 1469 391 1925 391 
Q 2381 391 2643 752 
Q 2906 1113 2906 1747 
Q 2906 2381 2643 2742 
Q 2381 3103 1925 3103 
Q 1469 3103 1208 2742 
Q 947 2381 947 1747 
z
" transform="scale(0.015625)"/>
       <path id="DejaVuSans-79" d="M 2059 -325 
Q 1816 -950 1584 -1140 
Q 1353 -1331 966 -1331 
L 506 -1331 
L 506 -850 
L 844 -850 
Q 1081 -850 1212 -737 
Q 1344 -625 1503 -206 
L 1606 56 
L 191 3500 
L 800 3500 
L 1894 763 
L 2988 3500 
L 3597 3500 
L 2059 -325 
z
" transform="scale(0.015625)"/>
       <path id="DejaVuSans-73" d="M 2834 3397 
L 2834 2853 
Q 2591 2978 2328 3040 
Q 2066 3103 1784 3103 
Q 1356 3103 1142 2972 
Q 928 2841 928 2578 
Q 928 2378 1081 2264 
Q 1234 2150 1697 2047 
L 1894 2003 
Q 2506 1872 2764 1633 
Q 3022 1394 3022 966 
Q 3022 478 2636 193 
Q 2250 -91 1575 -91 
Q 1294 -91 989 -36 
Q 684 19 347 128 
L 347 722 
Q 666 556 975 473 
Q 1284 391 1588 391 
Q 1994 391 2212 530 
Q 2431 669 2431 922 
Q 2431 1156 2273 1281 
Q 2116 1406 1581 1522 
L 1381 1569 
Q 847 1681 609 1914 
Q 372 2147 372 2553 
Q 372 3047 722 3315 
Q 1072 3584 1716 3584 
Q 2034 3584 2315 3537 
Q 2597 3491 2834 3397 
z
" transform="scale(0.015625)"/>
       <path id="DejaVuSans-29" d="M 513 4856 
L 1013 4856 
Q 1481 4119 1714 3412 
Q 1947 2706 1947 2009 
Q 1947 1309 1714 600 
Q 1481 -109 1013 -844 
L 513 -844 
Q 928 -128 1133 580 
Q 1338 1288 1338 2009 
Q 1338 2731 1133 3434 
Q 928 4138 513 4856 
z
" transform="scale(0.015625)"/>
      </defs>
      <use xlink:href="#DejaVuSans-54"/>
      <use xlink:href="#DejaVuSans-69" x="57.958984"/>
      <use xlink:href="#DejaVuSans-6d" x="85.742188"/>
      <use xlink:href="#DejaVuSans-65" x="183.154297"/>
      <use xlink:href="#DejaVuSans-20" x="244.677734"/>
      <use xlink:href="#DejaVuSans-28" x="276.464844"/>
      <use xlink:href="#DejaVuSans-64" x="315.478516"/>
      <use xlink:href="#DejaVuSans-61" x="378.955078"/>
      <use xlink:href="#DejaVuSans-79" x="440.234375"/>
      <use xlink:href="#DejaVuSans-73" x="499.414062"/>
      <use xlink:href="#DejaVuSans-29" x="551.513672"/>
     </g>
    </g>
   </g>
   <g id="matplotlib.axis_4">
    <g id="ytick_7">
     <g id="line2d_31">
      <g>
       <use xlink:href="#ma01883171b" x="50.87" y="1015.018636" style="stroke: #000000; stroke-width: 0.8"/>
      </g>
     </g>
     <g id="text_21">
      <!-- 0 -->
      <g transform="translate(37.5075 1018.817855) scale(0.1 -0.1)">
       <use xlink:href="#DejaVuSans-30"/>
      </g>
     </g>
    </g>
    <g id="ytick_8">
     <g id="line2d_32">
      <g>
       <use xlink:href="#ma01883171b" x="50.87" y="951.423709" style="stroke: #000000; stroke-width: 0.8"/>
      </g>
     </g>
     <g id="text_22">
      <!-- 5 -->
      <g transform="translate(37.5075 955.222928) scale(0.1 -0.1)">
       <use xlink:href="#DejaVuSans-35"/>
      </g>
     </g>
    </g>
    <g id="ytick_9">
     <g id="line2d_33">
      <g>
       <use xlink:href="#ma01883171b" x="50.87" y="887.828782" style="stroke: #000000; stroke-width: 0.8"/>
      </g>
     </g>
     <g id="text_23">
      <!-- 10 -->
      <g transform="translate(31.145 891.628001) scale(0.1 -0.1)">
       <use xlink:href="#DejaVuSans-31"/>
       <use xlink:href="#DejaVuSans-30" x="63.623047"/>
      </g>
     </g>
    </g>
    <g id="ytick_10">
     <g id="line2d_34">
      <g>
       <use xlink:href="#ma01883171b" x="50.87" y="824.233855" style="stroke: #000000; stroke-width: 0.8"/>
      </g>
     </g>
     <g id="text_24">
      <!-- 15 -->
      <g transform="translate(31.145 828.033074) scale(0.1 -0.1)">
       <use xlink:href="#DejaVuSans-31"/>
       <use xlink:href="#DejaVuSans-35" x="63.623047"/>
      </g>
     </g>
    </g>
    <g id="ytick_11">
     <g id="line2d_35">
      <g>
       <use xlink:href="#ma01883171b" x="50.87" y="760.638928" style="stroke: #000000; stroke-width: 0.8"/>
      </g>
     </g>
     <g id="text_25">
      <!-- 20 -->
      <g transform="translate(31.145 764.438146) scale(0.1 -0.1)">
       <use xlink:href="#DejaVuSans-32"/>
       <use xlink:href="#DejaVuSans-30" x="63.623047"/>
      </g>
     </g>
    </g>
    <g id="ytick_12">
     <g id="line2d_36">
      <g>
       <use xlink:href="#ma01883171b" x="50.87" y="697.044001" style="stroke: #000000; stroke-width: 0.8"/>
      </g>
     </g>
     <g id="text_26">
      <!-- 25 -->
      <g transform="translate(31.145 700.843219) scale(0.1 -0.1)">
       <use xlink:href="#DejaVuSans-32"/>
       <use xlink:href="#DejaVuSans-35" x="63.623047"/>
      </g>
     </g>
    </g>
    <g id="ytick_13">
     <g id="line2d_37">
      <g>
       <use xlink:href="#ma01883171b" x="50.87" y="633.449073" style="stroke: #000000; stroke-width: 0.8"/>
      </g>
     </g>
     <g id="text_27">
      <!-- 30 -->
      <g transform="translate(31.145 637.248292) scale(0.1 -0.1)">
       <use xlink:href="#DejaVuSans-33"/>
       <use xlink:href="#DejaVuSans-30" x="63.623047"/>
      </g>
     </g>
    </g>
    <g id="ytick_14">
     <g id="line2d_38">
      <g>
       <use xlink:href="#ma01883171b" x="50.87" y="569.854146" style="stroke: #000000; stroke-width: 0.8"/>
      </g>
     </g>
     <g id="text_28">
      <!-- 35 -->
      <g transform="translate(31.145 573.653365) scale(0.1 -0.1)">
       <use xlink:href="#DejaVuSans-33"/>
       <use xlink:href="#DejaVuSans-35" x="63.623047"/>
      </g>
     </g>
    </g>
    <g id="text_29">
     <!-- Population -->
     <g transform="translate(25.065313 811.071406) rotate(-90) scale(0.1 -0.1)">
      <use xlink:href="#DejaVuSans-50"/>
      <use xlink:href="#DejaVuSans-6f" x="56.677734"/>
      <use xlink:href="#DejaVuSans-70" x="117.859375"/>
      <use xlink:href="#DejaVuSans-75" x="181.335938"/>
      <use xlink:href="#DejaVuSans-6c" x="244.714844"/>
      <use xlink:href="#DejaVuSans-61" x="272.498047"/>
      <use xlink:href="#DejaVuSans-74" x="333.777344"/>
      <use xlink:href="#DejaVuSans-69" x="372.986328"/>
      <use xlink:href="#DejaVuSans-6f" x="400.769531"/>
      <use xlink:href="#DejaVuSans-6e" x="461.951172"/>
     </g>
    </g>
   </g>
   <g id="line2d_39">
    <path d="M 80.794091 1015.018636 
L 83.911184 1001.027752 
L 87.028277 989.580665 
L 90.145369 979.405477 
L 93.262462 970.502187 
L 96.379555 967.95839 
L 99.496648 956.511303 
L 102.613741 948.879912 
L 105.730833 946.336115 
L 108.847926 945.064216 
L 111.965019 945.064216 
L 115.082112 947.608014 
L 118.199205 943.792318 
L 121.316297 938.704724 
L 124.43339 939.976622 
L 127.550483 942.520419 
L 130.667576 929.801434 
L 133.784669 936.160927 
L 136.901761 937.432825 
L 140.018854 945.064216 
L 143.135947 945.064216 
L 146.25304 948.879912 
L 149.370133 951.423709 
L 152.487225 950.151811 
L 155.604318 952.695608 
L 158.721411 950.151811 
L 161.838504 948.879912 
L 168.072689 956.511303 
L 171.189782 952.695608 
L 174.306875 953.967506 
L 177.423968 959.0551 
L 180.541061 961.598898 
L 183.658153 961.598898 
L 186.775246 967.95839 
L 189.892339 970.502187 
L 193.009432 978.133579 
L 196.126525 973.045984 
L 199.243617 974.317883 
L 205.477803 974.317883 
L 208.594896 973.045984 
L 211.711989 969.230289 
L 214.829081 967.95839 
L 217.946174 974.317883 
L 221.063267 976.86168 
L 224.18036 973.045984 
L 227.297453 980.677376 
L 230.414545 979.405477 
L 233.531638 985.76497 
L 236.648731 983.221173 
L 242.882917 985.76497 
L 249.117102 985.76497 
L 252.234195 988.308767 
L 255.351288 985.76497 
L 261.585473 983.221173 
L 264.702566 983.221173 
L 267.819659 987.036868 
L 274.053845 989.580665 
L 277.170938 989.580665 
L 280.28803 992.124463 
L 283.405123 992.124463 
L 286.522216 990.852564 
L 292.756402 985.76497 
L 295.873494 987.036868 
L 298.990587 989.580665 
L 302.10768 997.212057 
L 305.224773 997.212057 
L 308.341866 999.755854 
L 311.458958 994.66826 
L 314.576051 997.212057 
L 317.693144 997.212057 
L 320.810237 999.755854 
L 323.92733 1001.027752 
L 327.044422 1003.571549 
L 339.512794 1003.571549 
L 342.629886 1004.843448 
L 345.746979 1003.571549 
L 348.864072 1001.027752 
L 351.981165 1003.571549 
L 355.098258 1004.843448 
L 358.21535 1004.843448 
L 367.566629 1008.659144 
L 370.683722 1008.659144 
L 373.800814 1009.931042 
L 376.917907 1008.659144 
L 389.386278 1008.659144 
L 392.503371 1009.931042 
L 398.737557 1009.931042 
L 401.85465 1011.202941 
L 404.971742 1009.931042 
L 411.205928 1009.931042 
L 414.323021 1011.202941 
L 417.440114 1011.202941 
L 420.557206 1012.474839 
L 423.674299 1012.474839 
L 426.791392 1013.746738 
L 429.908485 1013.746738 
L 433.025578 1012.474839 
L 439.259763 1015.018636 
L 445.493949 1015.018636 
L 454.845227 1011.202941 
L 457.96232 1011.202941 
L 461.079413 1012.474839 
L 464.196506 1012.474839 
L 467.313598 1011.202941 
L 482.899063 1011.202941 
L 486.016155 1012.474839 
L 501.601619 1012.474839 
L 504.718712 1011.202941 
L 510.952898 1013.746738 
L 514.069991 1013.746738 
L 517.187083 1011.202941 
L 523.421269 1011.202941 
L 526.538362 1009.931042 
L 539.006733 1009.931042 
L 545.240919 1012.474839 
L 548.358011 1012.474839 
L 551.475104 1013.746738 
L 554.592197 1013.746738 
L 557.70929 1012.474839 
L 560.826383 1012.474839 
L 563.943475 1013.746738 
L 657.456259 1013.746738 
L 660.573352 1015.018636 
L 679.275909 1015.018636 
L 679.275909 1015.018636 
" clip-path="url(#p6ada1ee268)" style="fill: none; stroke: #0000ff; stroke-width: 1.5; stroke-linecap: square"/>
   </g>
   <g id="line2d_40">
    <path d="M 80.794091 1015.018636 
L 83.911184 1015.018636 
L 90.145369 1012.474839 
L 93.262462 1009.931042 
L 99.496648 999.755854 
L 102.613741 998.483955 
L 105.730833 994.66826 
L 108.847926 993.396361 
L 111.965019 983.221173 
L 115.082112 979.405477 
L 118.199205 981.949274 
L 121.316297 978.133579 
L 124.43339 971.774086 
L 130.667576 974.317883 
L 133.784669 974.317883 
L 136.901761 971.774086 
L 143.135947 961.598898 
L 146.25304 959.0551 
L 149.370133 957.783202 
L 152.487225 952.695608 
L 155.604318 951.423709 
L 158.721411 960.326999 
L 161.838504 960.326999 
L 164.955597 962.870796 
L 168.072689 962.870796 
L 171.189782 965.414593 
L 174.306875 957.783202 
L 180.541061 957.783202 
L 183.658153 960.326999 
L 186.775246 952.695608 
L 189.892339 952.695608 
L 193.009432 950.151811 
L 196.126525 951.423709 
L 199.243617 953.967506 
L 202.36071 955.239405 
L 205.477803 960.326999 
L 208.594896 960.326999 
L 214.829081 957.783202 
L 217.946174 952.695608 
L 221.063267 948.879912 
L 224.18036 952.695608 
L 227.297453 952.695608 
L 230.414545 951.423709 
L 233.531638 959.0551 
L 236.648731 964.142695 
L 239.765824 965.414593 
L 242.882917 961.598898 
L 246.000009 967.95839 
L 252.234195 965.414593 
L 255.351288 962.870796 
L 258.468381 961.598898 
L 261.585473 969.230289 
L 264.702566 974.317883 
L 267.819659 974.317883 
L 270.936752 975.589782 
L 274.053845 971.774086 
L 277.170938 973.045984 
L 280.28803 966.686492 
L 283.405123 969.230289 
L 286.522216 967.95839 
L 289.639309 971.774086 
L 292.756402 973.045984 
L 295.873494 976.86168 
L 298.990587 974.317883 
L 302.10768 974.317883 
L 305.224773 979.405477 
L 308.341866 975.589782 
L 311.458958 974.317883 
L 320.810237 974.317883 
L 323.92733 971.774086 
L 327.044422 978.133579 
L 330.161515 980.677376 
L 333.278608 980.677376 
L 342.629886 984.493071 
L 345.746979 983.221173 
L 348.864072 987.036868 
L 351.981165 985.76497 
L 355.098258 985.76497 
L 358.21535 987.036868 
L 361.332443 985.76497 
L 370.683722 985.76497 
L 373.800814 987.036868 
L 376.917907 987.036868 
L 383.152093 994.66826 
L 389.386278 992.124463 
L 392.503371 993.396361 
L 395.620464 990.852564 
L 398.737557 990.852564 
L 401.85465 985.76497 
L 404.971742 988.308767 
L 414.323021 992.124463 
L 417.440114 990.852564 
L 420.557206 992.124463 
L 423.674299 995.940158 
L 426.791392 992.124463 
L 429.908485 992.124463 
L 433.025578 993.396361 
L 436.14267 995.940158 
L 442.376856 990.852564 
L 445.493949 989.580665 
L 448.611042 992.124463 
L 451.728134 989.580665 
L 454.845227 989.580665 
L 457.96232 993.396361 
L 461.079413 994.66826 
L 464.196506 997.212057 
L 467.313598 997.212057 
L 470.430691 998.483955 
L 473.547784 997.212057 
L 476.664877 992.124463 
L 479.78197 995.940158 
L 486.016155 990.852564 
L 489.133248 989.580665 
L 492.250341 992.124463 
L 495.367434 992.124463 
L 498.484527 989.580665 
L 501.601619 989.580665 
L 504.718712 992.124463 
L 510.952898 984.493071 
L 514.069991 985.76497 
L 517.187083 985.76497 
L 520.304176 988.308767 
L 523.421269 992.124463 
L 526.538362 992.124463 
L 529.655455 994.66826 
L 532.772547 993.396361 
L 535.88964 994.66826 
L 539.006733 997.212057 
L 542.123826 997.212057 
L 545.240919 993.396361 
L 548.358011 994.66826 
L 554.592197 999.755854 
L 557.70929 999.755854 
L 560.826383 1002.299651 
L 563.943475 1006.115347 
L 567.060568 1007.387245 
L 570.177661 1006.115347 
L 573.294754 1009.931042 
L 588.880218 1003.571549 
L 591.997311 1003.571549 
L 598.231496 1006.115347 
L 601.348589 1006.115347 
L 607.582775 1008.659144 
L 610.699867 1008.659144 
L 613.81696 1011.202941 
L 616.934053 1009.931042 
L 620.051146 1009.931042 
L 623.168239 1011.202941 
L 629.402424 1011.202941 
L 632.519517 1012.474839 
L 638.753703 1012.474839 
L 641.870795 1015.018636 
L 657.456259 1015.018636 
L 660.573352 1013.746738 
L 666.807538 1013.746738 
L 669.924631 1015.018636 
L 673.041723 1015.018636 
L 676.158816 1013.746738 
L 679.275909 1011.202941 
L 679.275909 1011.202941 
" clip-path="url(#p6ada1ee268)" style="fill: none; stroke: #008000; stroke-width: 1.5; stroke-linecap: square"/>
   </g>
   <g id="line2d_41">
    <path d="M 80.794091 1015.018636 
L 99.496648 1015.018636 
L 102.613741 1013.746738 
L 105.730833 1011.202941 
L 108.847926 1009.931042 
L 111.965019 1009.931042 
L 115.082112 1008.659144 
L 121.316297 1003.571549 
L 124.43339 1003.571549 
L 127.550483 1001.027752 
L 130.667576 999.755854 
L 133.784669 997.212057 
L 136.901761 995.940158 
L 140.018854 992.124463 
L 143.135947 990.852564 
L 146.25304 987.036868 
L 152.487225 976.86168 
L 155.604318 974.317883 
L 158.721411 973.045984 
L 161.838504 967.95839 
L 164.955597 960.326999 
L 171.189782 957.783202 
L 174.306875 951.423709 
L 177.423968 947.608014 
L 180.541061 942.520419 
L 183.658153 936.160927 
L 186.775246 931.073332 
L 189.892339 931.073332 
L 193.009432 929.801434 
L 196.126525 925.985738 
L 199.243617 920.898144 
L 205.477803 908.179159 
L 208.594896 903.091565 
L 211.711989 900.547767 
L 217.946174 898.00397 
L 221.063267 890.372579 
L 224.18036 884.013086 
L 230.414545 878.925492 
L 233.531638 873.837898 
L 236.648731 872.565999 
L 239.765824 870.022202 
L 242.882917 870.022202 
L 246.000009 861.118913 
L 249.117102 856.031318 
L 252.234195 849.671826 
L 255.351288 844.584232 
L 258.468381 840.768536 
L 261.585473 835.680942 
L 264.702566 833.137145 
L 267.819659 833.137145 
L 270.936752 830.593348 
L 274.053845 830.593348 
L 277.170938 825.505753 
L 280.28803 819.146261 
L 283.405123 815.330565 
L 286.522216 812.786768 
L 289.639309 812.786768 
L 295.873494 807.699174 
L 298.990587 806.427275 
L 302.10768 803.883478 
L 305.224773 798.795884 
L 308.341866 794.980188 
L 314.576051 794.980188 
L 317.693144 792.436391 
L 320.810237 787.348797 
L 323.92733 786.076899 
L 327.044422 782.261203 
L 330.161515 779.717406 
L 333.278608 772.086015 
L 336.395701 766.99842 
L 339.512794 760.638928 
L 342.629886 763.182725 
L 345.746979 761.910826 
L 348.864072 763.182725 
L 351.981165 758.095131 
L 355.098258 759.367029 
L 358.21535 756.823232 
L 361.332443 753.007536 
L 364.449536 750.463739 
L 367.566629 744.104247 
L 370.683722 742.832348 
L 373.800814 737.744754 
L 376.917907 730.113363 
L 380.035 728.841464 
L 383.152093 723.75387 
L 386.269186 719.938174 
L 389.386278 713.578682 
L 392.503371 712.306783 
L 395.620464 707.219189 
L 401.85465 702.131595 
L 404.971742 697.044001 
L 408.088835 695.772102 
L 411.205928 698.315899 
L 417.440114 695.772102 
L 420.557206 695.772102 
L 426.791392 688.140711 
L 429.908485 688.140711 
L 433.025578 685.596914 
L 436.14267 685.596914 
L 442.376856 677.965522 
L 448.611042 675.421725 
L 451.728134 672.877928 
L 454.845227 674.149827 
L 457.96232 674.149827 
L 461.079413 675.421725 
L 464.196506 670.334131 
L 467.313598 670.334131 
L 470.430691 666.518435 
L 473.547784 663.974638 
L 476.664877 663.974638 
L 482.899063 661.430841 
L 486.016155 662.70274 
L 489.133248 661.430841 
L 492.250341 661.430841 
L 495.367434 662.70274 
L 498.484527 662.70274 
L 501.601619 656.343247 
L 504.718712 648.711856 
L 507.835805 644.89616 
L 510.952898 638.536668 
L 514.069991 633.449073 
L 517.187083 627.089581 
L 523.421269 622.001986 
L 526.538362 618.186291 
L 532.772547 618.186291 
L 535.88964 613.098697 
L 539.006733 614.370595 
L 542.123826 618.186291 
L 545.240919 608.011102 
L 548.358011 605.467305 
L 551.475104 608.011102 
L 554.592197 605.467305 
L 557.70929 601.65161 
L 563.943475 599.107813 
L 567.060568 599.107813 
L 570.177661 597.835914 
L 573.294754 597.835914 
L 576.411847 601.65161 
L 579.528939 595.292117 
L 582.646032 596.564016 
L 585.763125 595.292117 
L 588.880218 592.74832 
L 591.997311 591.476421 
L 595.114403 588.932624 
L 598.231496 588.932624 
L 601.348589 585.116929 
L 607.582775 580.029335 
L 610.699867 581.301233 
L 613.81696 580.029335 
L 620.051146 572.397943 
L 623.168239 573.669842 
L 626.285331 573.669842 
L 629.402424 571.126045 
L 632.519517 574.94174 
L 635.63661 577.485537 
L 638.753703 573.669842 
L 641.870795 573.669842 
L 644.987888 572.397943 
L 651.222074 567.310349 
L 654.339167 566.038451 
L 657.456259 566.038451 
L 660.573352 563.494653 
L 666.807538 563.494653 
L 669.924631 560.950856 
L 673.041723 559.678958 
L 676.158816 555.863262 
L 679.275909 554.591364 
L 679.275909 554.591364 
" clip-path="url(#p6ada1ee268)" style="fill: none; stroke: #ff0000; stroke-width: 1.5; stroke-linecap: square"/>
   </g>
   <g id="patch_9">
    <path d="M 50.87 1038.04 
L 50.87 531.57 
" style="fill: none; stroke: #000000; stroke-width: 0.8; stroke-linejoin: miter; stroke-linecap: square"/>
   </g>
   <g id="patch_10">
    <path d="M 709.2 1038.04 
L 709.2 531.57 
" style="fill: none; stroke: #000000; stroke-width: 0.8; stroke-linejoin: miter; stroke-linecap: square"/>
   </g>
   <g id="patch_11">
    <path d="M 50.87 1038.04 
L 709.2 1038.04 
" style="fill: none; stroke: #000000; stroke-width: 0.8; stroke-linejoin: miter; stroke-linecap: square"/>
   </g>
   <g id="patch_12">
    <path d="M 50.87 531.57 
L 709.2 531.57 
" style="fill: none; stroke: #000000; stroke-width: 0.8; stroke-linejoin: miter; stroke-linecap: square"/>
   </g>
   <g id="legend_2">
    <g id="patch_13">
     <path d="M 57.87 584.43875 
L 109.846563 584.43875 
Q 111.846563 584.43875 111.846563 582.43875 
L 111.846563 538.57 
Q 111.846563 536.57 109.846563 536.57 
L 57.87 536.57 
Q 55.87 536.57 55.87 538.57 
L 55.87 582.43875 
Q 55.87 584.43875 57.87 584.43875 
z
" style="fill: #ffffff; opacity: 0.8; stroke: #cccccc; stroke-linejoin: miter"/>
    </g>
    <g id="line2d_42">
     <path d="M 59.87 544.668437 
L 69.87 544.668437 
L 79.87 544.668437 
" style="fill: none; stroke: #0000ff; stroke-width: 1.5; stroke-linecap: square"/>
    </g>
    <g id="text_30">
     <!-- E_S -->
     <g transform="translate(87.87 548.168437) scale(0.1 -0.1)">
      <use xlink:href="#DejaVuSans-45"/>
      <use xlink:href="#DejaVuSans-5f" x="63.183594"/>
      <use xlink:href="#DejaVuSans-53" x="113.183594"/>
     </g>
    </g>
    <g id="line2d_43">
     <path d="M 59.87 559.624687 
L 69.87 559.624687 
L 79.87 559.624687 
" style="fill: none; stroke: #008000; stroke-width: 1.5; stroke-linecap: square"/>
    </g>
    <g id="text_31">
     <!-- H_S -->
     <g transform="translate(87.87 563.124687) scale(0.1 -0.1)">
      <use xlink:href="#DejaVuSans-48"/>
      <use xlink:href="#DejaVuSans-5f" x="75.195312"/>
      <use xlink:href="#DejaVuSans-53" x="125.195312"/>
     </g>
    </g>
    <g id="line2d_44">
     <path d="M 59.87 574.580938 
L 69.87 574.580938 
L 79.87 574.580938 
" style="fill: none; stroke: #ff0000; stroke-width: 1.5; stroke-linecap: square"/>
    </g>
    <g id="text_32">
     <!-- M_S -->
     <g transform="translate(87.87 578.080938) scale(0.1 -0.1)">
      <use xlink:href="#DejaVuSans-4d"/>
      <use xlink:href="#DejaVuSans-5f" x="86.279297"/>
      <use xlink:href="#DejaVuSans-53" x="136.279297"/>
     </g>
    </g>
   </g>
  </g>
 </g>
 <defs>
  <clipPath id="pe27bae51bf">
   <rect x="50.87" y="10.8" width="658.33" height="506.47"/>
  </clipPath>
  <clipPath id="p6ada1ee268">
   <rect x="50.87" y="531.57" width="658.33" height="506.47"/>
  </clipPath>
 </defs>
</svg>
