<?xml version="1.0" encoding="utf-8" standalone="no"?>
<!DOCTYPE svg PUBLIC "-//W3C//DTD SVG 1.1//EN"
  "http://www.w3.org/Graphics/SVG/1.1/DTD/svg11.dtd">
<svg xmlns:xlink="http://www.w3.org/1999/xlink" width="720pt" height="1080pt" viewBox="0 0 720 1080" xmlns="http://www.w3.org/2000/svg" version="1.1">
 <metadata>
  <rdf:RDF xmlns:dc="http://purl.org/dc/elements/1.1/" xmlns:cc="http://creativecommons.org/ns#" xmlns:rdf="http://www.w3.org/1999/02/22-rdf-syntax-ns#">
   <cc:Work>
    <dc:type rdf:resource="http://purl.org/dc/dcmitype/StillImage"/>
    <dc:date>2023-06-26T22:01:53.158859</dc:date>
    <dc:format>image/svg+xml</dc:format>
    <dc:creator>
     <cc:Agent>
      <dc:title>Matplotlib v3.6.2, https://matplotlib.org/</dc:title>
     </cc:Agent>
    </dc:creator>
   </cc:Work>
  </rdf:RDF>
 </metadata>
 <defs>
  <style type="text/css">*{stroke-linejoin: round; stroke-linecap: butt}</style>
 </defs>
 <g id="figure_1">
  <g id="patch_1">
   <path d="M 0 1080 
L 720 1080 
L 720 0 
L 0 0 
z
" style="fill: #ffffff"/>
  </g>
  <g id="axes_1">
   <g id="patch_2">
    <path d="M 44.57 517.27 
L 709.2 517.27 
L 709.2 10.8 
L 44.57 10.8 
z
" style="fill: #ffffff"/>
   </g>
   <g id="matplotlib.axis_1">
    <g id="xtick_1">
     <g id="line2d_1">
      <defs>
       <path id="m1c741c903c" d="M 0 0 
L 0 3.5 
" style="stroke: #000000; stroke-width: 0.8"/>
      </defs>
      <g>
       <use xlink:href="#m1c741c903c" x="74.780455" y="517.27" style="stroke: #000000; stroke-width: 0.8"/>
      </g>
     </g>
    </g>
    <g id="xtick_2">
     <g id="line2d_2">
      <g>
       <use xlink:href="#m1c741c903c" x="150.306591" y="517.27" style="stroke: #000000; stroke-width: 0.8"/>
      </g>
     </g>
    </g>
    <g id="xtick_3">
     <g id="line2d_3">
      <g>
       <use xlink:href="#m1c741c903c" x="225.832727" y="517.27" style="stroke: #000000; stroke-width: 0.8"/>
      </g>
     </g>
    </g>
    <g id="xtick_4">
     <g id="line2d_4">
      <g>
       <use xlink:href="#m1c741c903c" x="301.358864" y="517.27" style="stroke: #000000; stroke-width: 0.8"/>
      </g>
     </g>
    </g>
    <g id="xtick_5">
     <g id="line2d_5">
      <g>
       <use xlink:href="#m1c741c903c" x="376.885" y="517.27" style="stroke: #000000; stroke-width: 0.8"/>
      </g>
     </g>
    </g>
    <g id="xtick_6">
     <g id="line2d_6">
      <g>
       <use xlink:href="#m1c741c903c" x="452.411136" y="517.27" style="stroke: #000000; stroke-width: 0.8"/>
      </g>
     </g>
    </g>
    <g id="xtick_7">
     <g id="line2d_7">
      <g>
       <use xlink:href="#m1c741c903c" x="527.937273" y="517.27" style="stroke: #000000; stroke-width: 0.8"/>
      </g>
     </g>
    </g>
    <g id="xtick_8">
     <g id="line2d_8">
      <g>
       <use xlink:href="#m1c741c903c" x="603.463409" y="517.27" style="stroke: #000000; stroke-width: 0.8"/>
      </g>
     </g>
    </g>
    <g id="xtick_9">
     <g id="line2d_9">
      <g>
       <use xlink:href="#m1c741c903c" x="678.989545" y="517.27" style="stroke: #000000; stroke-width: 0.8"/>
      </g>
     </g>
    </g>
   </g>
   <g id="matplotlib.axis_2">
    <g id="ytick_1">
     <g id="line2d_10">
      <defs>
       <path id="m21fe74d147" d="M 0 0 
L -3.5 0 
" style="stroke: #000000; stroke-width: 0.8"/>
      </defs>
      <g>
       <use xlink:href="#m21fe74d147" x="44.57" y="494.248636" style="stroke: #000000; stroke-width: 0.8"/>
      </g>
     </g>
     <g id="text_1">
      <!-- 0 -->
      <g transform="translate(31.2075 498.047855) scale(0.1 -0.1)">
       <defs>
        <path id="DejaVuSans-30" d="M 2034 4250 
Q 1547 4250 1301 3770 
Q 1056 3291 1056 2328 
Q 1056 1369 1301 889 
Q 1547 409 2034 409 
Q 2525 409 2770 889 
Q 3016 1369 3016 2328 
Q 3016 3291 2770 3770 
Q 2525 4250 2034 4250 
z
M 2034 4750 
Q 2819 4750 3233 4129 
Q 3647 3509 3647 2328 
Q 3647 1150 3233 529 
Q 2819 -91 2034 -91 
Q 1250 -91 836 529 
Q 422 1150 422 2328 
Q 422 3509 836 4129 
Q 1250 4750 2034 4750 
z
" transform="scale(0.015625)"/>
       </defs>
       <use xlink:href="#DejaVuSans-30"/>
      </g>
     </g>
    </g>
    <g id="ytick_2">
     <g id="line2d_11">
      <g>
       <use xlink:href="#m21fe74d147" x="44.57" y="423.954396" style="stroke: #000000; stroke-width: 0.8"/>
      </g>
     </g>
     <g id="text_2">
      <!-- 10 -->
      <g transform="translate(24.845 427.753615) scale(0.1 -0.1)">
       <defs>
        <path id="DejaVuSans-31" d="M 794 531 
L 1825 531 
L 1825 4091 
L 703 3866 
L 703 4441 
L 1819 4666 
L 2450 4666 
L 2450 531 
L 3481 531 
L 3481 0 
L 794 0 
L 794 531 
z
" transform="scale(0.015625)"/>
       </defs>
       <use xlink:href="#DejaVuSans-31"/>
       <use xlink:href="#DejaVuSans-30" x="63.623047"/>
      </g>
     </g>
    </g>
    <g id="ytick_3">
     <g id="line2d_12">
      <g>
       <use xlink:href="#m21fe74d147" x="44.57" y="353.660156" style="stroke: #000000; stroke-width: 0.8"/>
      </g>
     </g>
     <g id="text_3">
      <!-- 20 -->
      <g transform="translate(24.845 357.459375) scale(0.1 -0.1)">
       <defs>
        <path id="DejaVuSans-32" d="M 1228 531 
L 3431 531 
L 3431 0 
L 469 0 
L 469 531 
Q 828 903 1448 1529 
Q 2069 2156 2228 2338 
Q 2531 2678 2651 2914 
Q 2772 3150 2772 3378 
Q 2772 3750 2511 3984 
Q 2250 4219 1831 4219 
Q 1534 4219 1204 4116 
Q 875 4013 500 3803 
L 500 4441 
Q 881 4594 1212 4672 
Q 1544 4750 1819 4750 
Q 2544 4750 2975 4387 
Q 3406 4025 3406 3419 
Q 3406 3131 3298 2873 
Q 3191 2616 2906 2266 
Q 2828 2175 2409 1742 
Q 1991 1309 1228 531 
z
" transform="scale(0.015625)"/>
       </defs>
       <use xlink:href="#DejaVuSans-32"/>
       <use xlink:href="#DejaVuSans-30" x="63.623047"/>
      </g>
     </g>
    </g>
    <g id="ytick_4">
     <g id="line2d_13">
      <g>
       <use xlink:href="#m21fe74d147" x="44.57" y="283.365916" style="stroke: #000000; stroke-width: 0.8"/>
      </g>
     </g>
     <g id="text_4">
      <!-- 30 -->
      <g transform="translate(24.845 287.165135) scale(0.1 -0.1)">
       <defs>
        <path id="DejaVuSans-33" d="M 2597 2516 
Q 3050 2419 3304 2112 
Q 3559 1806 3559 1356 
Q 3559 666 3084 287 
Q 2609 -91 1734 -91 
Q 1441 -91 1130 -33 
Q 819 25 488 141 
L 488 750 
Q 750 597 1062 519 
Q 1375 441 1716 441 
Q 2309 441 2620 675 
Q 2931 909 2931 1356 
Q 2931 1769 2642 2001 
Q 2353 2234 1838 2234 
L 1294 2234 
L 1294 2753 
L 1863 2753 
Q 2328 2753 2575 2939 
Q 2822 3125 2822 3475 
Q 2822 3834 2567 4026 
Q 2313 4219 1838 4219 
Q 1578 4219 1281 4162 
Q 984 4106 628 3988 
L 628 4550 
Q 988 4650 1302 4700 
Q 1616 4750 1894 4750 
Q 2613 4750 3031 4423 
Q 3450 4097 3450 3541 
Q 3450 3153 3228 2886 
Q 3006 2619 2597 2516 
z
" transform="scale(0.015625)"/>
       </defs>
       <use xlink:href="#DejaVuSans-33"/>
       <use xlink:href="#DejaVuSans-30" x="63.623047"/>
      </g>
     </g>
    </g>
    <g id="ytick_5">
     <g id="line2d_14">
      <g>
       <use xlink:href="#m21fe74d147" x="44.57" y="213.071676" style="stroke: #000000; stroke-width: 0.8"/>
      </g>
     </g>
     <g id="text_5">
      <!-- 40 -->
      <g transform="translate(24.845 216.870895) scale(0.1 -0.1)">
       <defs>
        <path id="DejaVuSans-34" d="M 2419 4116 
L 825 1625 
L 2419 1625 
L 2419 4116 
z
M 2253 4666 
L 3047 4666 
L 3047 1625 
L 3713 1625 
L 3713 1100 
L 3047 1100 
L 3047 0 
L 2419 0 
L 2419 1100 
L 313 1100 
L 313 1709 
L 2253 4666 
z
" transform="scale(0.015625)"/>
       </defs>
       <use xlink:href="#DejaVuSans-34"/>
       <use xlink:href="#DejaVuSans-30" x="63.623047"/>
      </g>
     </g>
    </g>
    <g id="ytick_6">
     <g id="line2d_15">
      <g>
       <use xlink:href="#m21fe74d147" x="44.57" y="142.777436" style="stroke: #000000; stroke-width: 0.8"/>
      </g>
     </g>
     <g id="text_6">
      <!-- 50 -->
      <g transform="translate(24.845 146.576655) scale(0.1 -0.1)">
       <defs>
        <path id="DejaVuSans-35" d="M 691 4666 
L 3169 4666 
L 3169 4134 
L 1269 4134 
L 1269 2991 
Q 1406 3038 1543 3061 
Q 1681 3084 1819 3084 
Q 2600 3084 3056 2656 
Q 3513 2228 3513 1497 
Q 3513 744 3044 326 
Q 2575 -91 1722 -91 
Q 1428 -91 1123 -41 
Q 819 9 494 109 
L 494 744 
Q 775 591 1075 516 
Q 1375 441 1709 441 
Q 2250 441 2565 725 
Q 2881 1009 2881 1497 
Q 2881 1984 2565 2268 
Q 2250 2553 1709 2553 
Q 1456 2553 1204 2497 
Q 953 2441 691 2322 
L 691 4666 
z
" transform="scale(0.015625)"/>
       </defs>
       <use xlink:href="#DejaVuSans-35"/>
       <use xlink:href="#DejaVuSans-30" x="63.623047"/>
      </g>
     </g>
    </g>
    <g id="ytick_7">
     <g id="line2d_16">
      <g>
       <use xlink:href="#m21fe74d147" x="44.57" y="72.483196" style="stroke: #000000; stroke-width: 0.8"/>
      </g>
     </g>
     <g id="text_7">
      <!-- 60 -->
      <g transform="translate(24.845 76.282414) scale(0.1 -0.1)">
       <defs>
        <path id="DejaVuSans-36" d="M 2113 2584 
Q 1688 2584 1439 2293 
Q 1191 2003 1191 1497 
Q 1191 994 1439 701 
Q 1688 409 2113 409 
Q 2538 409 2786 701 
Q 3034 994 3034 1497 
Q 3034 2003 2786 2293 
Q 2538 2584 2113 2584 
z
M 3366 4563 
L 3366 3988 
Q 3128 4100 2886 4159 
Q 2644 4219 2406 4219 
Q 1781 4219 1451 3797 
Q 1122 3375 1075 2522 
Q 1259 2794 1537 2939 
Q 1816 3084 2150 3084 
Q 2853 3084 3261 2657 
Q 3669 2231 3669 1497 
Q 3669 778 3244 343 
Q 2819 -91 2113 -91 
Q 1303 -91 875 529 
Q 447 1150 447 2328 
Q 447 3434 972 4092 
Q 1497 4750 2381 4750 
Q 2619 4750 2861 4703 
Q 3103 4656 3366 4563 
z
" transform="scale(0.015625)"/>
       </defs>
       <use xlink:href="#DejaVuSans-36"/>
       <use xlink:href="#DejaVuSans-30" x="63.623047"/>
      </g>
     </g>
    </g>
    <g id="text_8">
     <!-- Population -->
     <g transform="translate(18.765312 290.301406) rotate(-90) scale(0.1 -0.1)">
      <defs>
       <path id="DejaVuSans-50" d="M 1259 4147 
L 1259 2394 
L 2053 2394 
Q 2494 2394 2734 2622 
Q 2975 2850 2975 3272 
Q 2975 3691 2734 3919 
Q 2494 4147 2053 4147 
L 1259 4147 
z
M 628 4666 
L 2053 4666 
Q 2838 4666 3239 4311 
Q 3641 3956 3641 3272 
Q 3641 2581 3239 2228 
Q 2838 1875 2053 1875 
L 1259 1875 
L 1259 0 
L 628 0 
L 628 4666 
z
" transform="scale(0.015625)"/>
       <path id="DejaVuSans-6f" d="M 1959 3097 
Q 1497 3097 1228 2736 
Q 959 2375 959 1747 
Q 959 1119 1226 758 
Q 1494 397 1959 397 
Q 2419 397 2687 759 
Q 2956 1122 2956 1747 
Q 2956 2369 2687 2733 
Q 2419 3097 1959 3097 
z
M 1959 3584 
Q 2709 3584 3137 3096 
Q 3566 2609 3566 1747 
Q 3566 888 3137 398 
Q 2709 -91 1959 -91 
Q 1206 -91 779 398 
Q 353 888 353 1747 
Q 353 2609 779 3096 
Q 1206 3584 1959 3584 
z
" transform="scale(0.015625)"/>
       <path id="DejaVuSans-70" d="M 1159 525 
L 1159 -1331 
L 581 -1331 
L 581 3500 
L 1159 3500 
L 1159 2969 
Q 1341 3281 1617 3432 
Q 1894 3584 2278 3584 
Q 2916 3584 3314 3078 
Q 3713 2572 3713 1747 
Q 3713 922 3314 415 
Q 2916 -91 2278 -91 
Q 1894 -91 1617 61 
Q 1341 213 1159 525 
z
M 3116 1747 
Q 3116 2381 2855 2742 
Q 2594 3103 2138 3103 
Q 1681 3103 1420 2742 
Q 1159 2381 1159 1747 
Q 1159 1113 1420 752 
Q 1681 391 2138 391 
Q 2594 391 2855 752 
Q 3116 1113 3116 1747 
z
" transform="scale(0.015625)"/>
       <path id="DejaVuSans-75" d="M 544 1381 
L 544 3500 
L 1119 3500 
L 1119 1403 
Q 1119 906 1312 657 
Q 1506 409 1894 409 
Q 2359 409 2629 706 
Q 2900 1003 2900 1516 
L 2900 3500 
L 3475 3500 
L 3475 0 
L 2900 0 
L 2900 538 
Q 2691 219 2414 64 
Q 2138 -91 1772 -91 
Q 1169 -91 856 284 
Q 544 659 544 1381 
z
M 1991 3584 
L 1991 3584 
z
" transform="scale(0.015625)"/>
       <path id="DejaVuSans-6c" d="M 603 4863 
L 1178 4863 
L 1178 0 
L 603 0 
L 603 4863 
z
" transform="scale(0.015625)"/>
       <path id="DejaVuSans-61" d="M 2194 1759 
Q 1497 1759 1228 1600 
Q 959 1441 959 1056 
Q 959 750 1161 570 
Q 1363 391 1709 391 
Q 2188 391 2477 730 
Q 2766 1069 2766 1631 
L 2766 1759 
L 2194 1759 
z
M 3341 1997 
L 3341 0 
L 2766 0 
L 2766 531 
Q 2569 213 2275 61 
Q 1981 -91 1556 -91 
Q 1019 -91 701 211 
Q 384 513 384 1019 
Q 384 1609 779 1909 
Q 1175 2209 1959 2209 
L 2766 2209 
L 2766 2266 
Q 2766 2663 2505 2880 
Q 2244 3097 1772 3097 
Q 1472 3097 1187 3025 
Q 903 2953 641 2809 
L 641 3341 
Q 956 3463 1253 3523 
Q 1550 3584 1831 3584 
Q 2591 3584 2966 3190 
Q 3341 2797 3341 1997 
z
" transform="scale(0.015625)"/>
       <path id="DejaVuSans-74" d="M 1172 4494 
L 1172 3500 
L 2356 3500 
L 2356 3053 
L 1172 3053 
L 1172 1153 
Q 1172 725 1289 603 
Q 1406 481 1766 481 
L 2356 481 
L 2356 0 
L 1766 0 
Q 1100 0 847 248 
Q 594 497 594 1153 
L 594 3053 
L 172 3053 
L 172 3500 
L 594 3500 
L 594 4494 
L 1172 4494 
z
" transform="scale(0.015625)"/>
       <path id="DejaVuSans-69" d="M 603 3500 
L 1178 3500 
L 1178 0 
L 603 0 
L 603 3500 
z
M 603 4863 
L 1178 4863 
L 1178 4134 
L 603 4134 
L 603 4863 
z
" transform="scale(0.015625)"/>
       <path id="DejaVuSans-6e" d="M 3513 2113 
L 3513 0 
L 2938 0 
L 2938 2094 
Q 2938 2591 2744 2837 
Q 2550 3084 2163 3084 
Q 1697 3084 1428 2787 
Q 1159 2491 1159 1978 
L 1159 0 
L 581 0 
L 581 3500 
L 1159 3500 
L 1159 2956 
Q 1366 3272 1645 3428 
Q 1925 3584 2291 3584 
Q 2894 3584 3203 3211 
Q 3513 2838 3513 2113 
z
" transform="scale(0.015625)"/>
      </defs>
      <use xlink:href="#DejaVuSans-50"/>
      <use xlink:href="#DejaVuSans-6f" x="56.677734"/>
      <use xlink:href="#DejaVuSans-70" x="117.859375"/>
      <use xlink:href="#DejaVuSans-75" x="181.335938"/>
      <use xlink:href="#DejaVuSans-6c" x="244.714844"/>
      <use xlink:href="#DejaVuSans-61" x="272.498047"/>
      <use xlink:href="#DejaVuSans-74" x="333.777344"/>
      <use xlink:href="#DejaVuSans-69" x="372.986328"/>
      <use xlink:href="#DejaVuSans-6f" x="400.769531"/>
      <use xlink:href="#DejaVuSans-6e" x="461.951172"/>
     </g>
    </g>
   </g>
   <g id="line2d_17">
    <path d="M 74.780455 33.821364 
L 81.074299 53.503751 
L 84.221222 67.562599 
L 87.368144 78.106735 
L 90.515066 92.165583 
L 93.661989 102.709719 
L 96.808911 119.580337 
L 99.955833 131.530357 
L 103.102756 139.262724 
L 106.249678 149.80686 
L 109.3966 161.756881 
L 112.543523 171.598074 
L 115.690445 180.033383 
L 118.837367 187.765749 
L 121.98429 199.012828 
L 125.131212 207.448137 
L 128.278134 214.477561 
L 131.425057 220.804042 
L 134.571979 227.833466 
L 137.718902 236.971718 
L 140.865824 248.218796 
L 144.012746 253.842335 
L 147.159669 263.683529 
L 150.306591 269.307068 
L 153.453513 279.148262 
L 159.747358 290.39534 
L 166.041203 303.048303 
L 169.188125 307.9689 
L 172.335047 316.404209 
L 175.48197 322.73069 
L 178.628892 328.35423 
L 181.775814 335.383654 
L 184.922737 339.601308 
L 188.069659 343.11602 
L 191.216581 348.739559 
L 194.363504 352.957214 
L 197.510426 357.877811 
L 200.657348 362.095465 
L 203.804271 371.233716 
L 206.951193 375.451371 
L 210.098116 380.371967 
L 213.245038 383.183737 
L 216.39196 383.886679 
L 219.538883 386.698449 
L 222.685805 393.024931 
L 225.832727 395.133758 
L 232.126572 400.757297 
L 235.273494 404.974951 
L 238.420417 407.786721 
L 241.567339 411.301433 
L 244.714261 415.519087 
L 247.861184 419.033799 
L 257.301951 425.360281 
L 260.448873 426.766166 
L 263.595795 429.577935 
L 266.742718 433.092647 
L 269.88964 435.201475 
L 273.036562 436.607359 
L 276.183485 440.825014 
L 288.771174 443.636783 
L 291.918097 447.854438 
L 298.211941 452.072092 
L 301.358864 453.477977 
L 304.505786 454.18092 
L 307.652708 454.18092 
L 310.799631 454.883862 
L 313.946553 456.992689 
L 317.093475 458.398574 
L 320.240398 459.101516 
L 323.38732 463.319171 
L 329.681165 464.725056 
L 332.828087 464.725056 
L 335.975009 465.427998 
L 345.415777 469.645652 
L 348.562699 469.645652 
L 351.709621 472.457422 
L 358.003466 472.457422 
L 361.150388 473.863307 
L 367.444233 475.269192 
L 370.591155 475.269192 
L 373.738078 475.972134 
L 376.885 475.972134 
L 380.031922 476.675076 
L 383.178845 476.675076 
L 386.325767 477.378019 
L 392.619612 477.378019 
L 398.913456 478.783904 
L 402.060379 478.783904 
L 408.354223 480.189788 
L 430.38268 480.189788 
L 436.676525 481.595673 
L 439.823447 481.595673 
L 442.970369 483.001558 
L 455.558059 483.001558 
L 458.704981 483.7045 
L 493.321127 483.7045 
L 496.468049 484.407443 
L 502.761894 484.407443 
L 505.908816 485.110385 
L 515.349583 485.110385 
L 518.496506 485.813328 
L 527.937273 485.813328 
L 537.37804 487.922155 
L 540.524962 487.922155 
L 543.671884 488.625097 
L 549.965729 488.625097 
L 553.112652 489.32804 
L 565.700341 489.32804 
L 568.847263 490.733924 
L 575.141108 490.733924 
L 578.28803 491.436867 
L 584.581875 491.436867 
L 587.728797 492.842752 
L 616.051098 492.842752 
L 619.198021 493.545694 
L 653.814167 493.545694 
L 656.961089 494.248636 
L 678.989545 494.248636 
L 678.989545 494.248636 
" clip-path="url(#pbf0872d51c)" style="fill: none; stroke: #0000ff; stroke-width: 1.5; stroke-linecap: square"/>
   </g>
   <g id="line2d_18">
    <path d="M 74.780455 267.901183 
L 77.927377 260.168817 
L 81.074299 256.654105 
L 84.221222 246.812911 
L 87.368144 243.298199 
L 90.515066 241.189372 
L 93.661989 238.377602 
L 96.808911 225.021697 
L 99.955833 220.1011 
L 103.102756 215.883446 
L 106.249678 207.448137 
L 109.3966 197.606943 
L 112.543523 190.577519 
L 115.690445 187.062807 
L 118.837367 182.14221 
L 121.98429 170.192189 
L 125.131212 169.489247 
L 128.278134 165.271593 
L 131.425057 161.756881 
L 134.571979 157.539226 
L 137.718902 154.024514 
L 140.865824 144.886263 
L 144.012746 144.886263 
L 147.159669 135.748012 
L 150.306591 133.639185 
L 153.453513 129.42153 
L 156.600436 126.609761 
L 159.747358 125.203876 
L 162.89428 129.42153 
L 166.041203 128.718588 
L 169.188125 123.797991 
L 172.335047 118.174452 
L 175.48197 117.471509 
L 178.628892 116.065625 
L 184.922737 107.630316 
L 188.069659 104.115604 
L 191.216581 101.303834 
L 194.363504 97.08618 
L 200.657348 95.680295 
L 203.804271 90.056756 
L 206.951193 92.165583 
L 210.098116 92.165583 
L 213.245038 93.571468 
L 216.39196 98.492065 
L 219.538883 97.789122 
L 222.685805 94.27441 
L 225.832727 93.571468 
L 228.97965 94.27441 
L 232.126572 92.868525 
L 235.273494 95.680295 
L 238.420417 94.27441 
L 241.567339 94.977353 
L 244.714261 92.868525 
L 247.861184 94.977353 
L 254.155028 97.789122 
L 257.301951 97.789122 
L 263.595795 100.600892 
L 266.742718 100.600892 
L 269.88964 104.818546 
L 273.036562 104.115604 
L 276.183485 102.006777 
L 279.330407 106.927373 
L 282.47733 113.253855 
L 288.771174 113.253855 
L 291.918097 118.174452 
L 295.065019 120.283279 
L 298.211941 121.689164 
L 301.358864 121.689164 
L 304.505786 118.174452 
L 307.652708 125.203876 
L 310.799631 122.392106 
L 313.946553 124.500933 
L 317.093475 127.312703 
L 320.240398 132.2333 
L 323.38732 131.530357 
L 326.534242 128.718588 
L 329.681165 129.42153 
L 332.828087 130.827415 
L 335.975009 129.42153 
L 339.121932 128.718588 
L 342.268854 131.530357 
L 345.415777 132.936242 
L 348.562699 136.450954 
L 351.709621 137.856839 
L 354.856544 140.668609 
L 358.003466 144.886263 
L 361.150388 152.618629 
L 364.297311 151.915687 
L 367.444233 154.024514 
L 373.738078 162.459823 
L 376.885 168.083362 
L 380.031922 169.489247 
L 383.178845 172.301017 
L 386.325767 171.598074 
L 389.472689 174.409844 
L 392.619612 177.924556 
L 395.766534 183.548095 
L 398.913456 186.359865 
L 402.060379 186.359865 
L 405.207301 187.062807 
L 408.354223 191.280461 
L 411.501146 196.201058 
L 414.648068 201.824598 
L 417.794991 205.33931 
L 420.941913 208.151079 
L 424.088835 206.745194 
L 427.235758 208.854022 
L 430.38268 211.665791 
L 433.529602 215.883446 
L 439.823447 217.28933 
L 442.970369 218.695215 
L 446.117292 220.804042 
L 452.411136 222.209927 
L 455.558059 225.021697 
L 458.704981 229.239351 
L 461.851903 230.645236 
L 471.29267 232.754063 
L 474.439593 236.971718 
L 477.586515 239.080545 
L 480.733437 240.48643 
L 483.88036 242.595257 
L 487.027282 241.892314 
L 490.174205 244.001142 
L 493.321127 246.812911 
L 496.468049 246.812911 
L 499.614972 247.515854 
L 502.761894 249.624681 
L 505.908816 249.624681 
L 509.055739 250.327623 
L 512.202661 253.842335 
L 515.349583 254.545278 
L 518.496506 255.951162 
L 521.643428 255.24822 
L 524.79035 255.24822 
L 527.937273 256.654105 
L 531.084195 263.683529 
L 534.231117 262.980586 
L 537.37804 263.683529 
L 540.524962 265.089414 
L 543.671884 267.198241 
L 546.818807 268.604126 
L 549.965729 269.307068 
L 553.112652 270.712953 
L 556.259574 272.82178 
L 559.406496 273.524722 
L 562.553419 274.930607 
L 565.700341 274.930607 
L 568.847263 274.227665 
L 571.994186 274.227665 
L 578.28803 275.63355 
L 581.434953 277.039434 
L 584.581875 281.257089 
L 587.728797 282.662974 
L 590.87572 285.474743 
L 594.022642 287.58357 
L 597.169564 291.801225 
L 600.316487 293.910052 
L 603.463409 293.910052 
L 609.757254 295.315937 
L 612.904176 296.721822 
L 616.051098 296.721822 
L 619.198021 294.612994 
L 622.344943 296.018879 
L 625.491866 298.127706 
L 628.638788 300.939476 
L 631.78571 302.345361 
L 634.932633 302.345361 
L 638.079555 303.048303 
L 641.226477 304.454188 
L 644.3734 303.751246 
L 656.961089 306.563015 
L 660.108011 306.563015 
L 663.254934 305.860073 
L 666.401856 307.265958 
L 669.548778 306.563015 
L 675.842623 309.374785 
L 678.989545 311.483612 
L 678.989545 311.483612 
" clip-path="url(#pbf0872d51c)" style="fill: none; stroke: #008000; stroke-width: 1.5; stroke-linecap: square"/>
   </g>
   <g id="line2d_19">
    <path d="M 74.780455 478.080961 
L 87.368144 478.080961 
L 90.515066 478.783904 
L 93.661989 478.783904 
L 96.808911 476.675076 
L 99.955833 475.972134 
L 103.102756 474.566249 
L 106.249678 474.566249 
L 112.543523 473.160364 
L 115.690445 471.051537 
L 118.837367 469.645652 
L 121.98429 469.645652 
L 125.131212 470.348595 
L 128.278134 470.348595 
L 137.718902 468.239768 
L 140.865824 466.833883 
L 144.012746 464.725056 
L 147.159669 464.022113 
L 150.306591 461.210344 
L 156.600436 458.398574 
L 159.747358 455.586804 
L 162.89428 454.883862 
L 166.041203 453.477977 
L 169.188125 449.963265 
L 172.335047 449.260323 
L 175.48197 447.854438 
L 178.628892 447.151495 
L 181.775814 444.339726 
L 184.922737 443.636783 
L 188.069659 438.716187 
L 194.363504 437.310302 
L 197.510426 434.498532 
L 200.657348 433.092647 
L 203.804271 430.280878 
L 206.951193 428.172051 
L 210.098116 428.874993 
L 216.39196 423.251454 
L 222.685805 421.845569 
L 225.832727 420.439684 
L 228.97965 418.330857 
L 232.126572 418.330857 
L 235.273494 415.519087 
L 244.714261 409.192606 
L 247.861184 405.677894 
L 254.155028 402.866124 
L 257.301951 400.054355 
L 260.448873 397.945527 
L 263.595795 394.430815 
L 266.742718 393.024931 
L 269.88964 393.024931 
L 273.036562 394.430815 
L 276.183485 395.133758 
L 288.771174 392.321988 
L 291.918097 389.510219 
L 295.065019 388.807276 
L 298.211941 385.995507 
L 301.358864 385.995507 
L 307.652708 383.183737 
L 313.946553 377.560198 
L 317.093475 378.26314 
L 320.240398 379.669025 
L 323.38732 376.857255 
L 326.534242 373.342543 
L 329.681165 371.936659 
L 342.268854 369.124889 
L 345.415777 367.719004 
L 348.562699 364.907235 
L 351.709621 361.392523 
L 354.856544 360.68958 
L 358.003466 359.283695 
L 361.150388 355.768983 
L 364.297311 356.471926 
L 367.444233 355.768983 
L 370.591155 353.660156 
L 373.738078 348.036617 
L 376.885 345.92779 
L 383.178845 340.304251 
L 392.619612 338.195423 
L 395.766534 336.086596 
L 398.913456 334.680711 
L 402.060379 331.165999 
L 405.207301 331.868942 
L 408.354223 331.165999 
L 414.648068 328.35423 
L 417.794991 326.245402 
L 420.941913 324.839518 
L 430.38268 318.513036 
L 433.529602 319.215978 
L 436.676525 317.810094 
L 439.823447 317.107151 
L 442.970369 317.810094 
L 449.264214 320.621863 
L 452.411136 319.918921 
L 455.558059 314.998324 
L 458.704981 313.592439 
L 461.851903 310.78067 
L 464.998826 306.563015 
L 468.145748 306.563015 
L 471.29267 305.860073 
L 474.439593 306.563015 
L 477.586515 304.454188 
L 480.733437 303.751246 
L 483.88036 303.751246 
L 487.027282 302.345361 
L 490.174205 301.642418 
L 493.321127 298.127706 
L 496.468049 296.018879 
L 499.614972 293.20711 
L 502.761894 292.504167 
L 505.908816 293.20711 
L 509.055739 293.20711 
L 512.202661 294.612994 
L 515.349583 291.098282 
L 518.496506 288.286513 
L 521.643428 286.880628 
L 527.937273 286.880628 
L 531.084195 284.771801 
L 537.37804 281.960031 
L 540.524962 281.960031 
L 543.671884 282.662974 
L 546.818807 281.257089 
L 549.965729 275.63355 
L 553.112652 273.524722 
L 556.259574 274.227665 
L 559.406496 274.227665 
L 562.553419 273.524722 
L 565.700341 271.415895 
L 568.847263 270.712953 
L 571.994186 272.82178 
L 575.141108 270.01001 
L 578.28803 268.604126 
L 581.434953 268.604126 
L 584.581875 267.198241 
L 587.728797 267.198241 
L 590.87572 264.386471 
L 594.022642 264.386471 
L 597.169564 260.871759 
L 600.316487 261.574702 
L 603.463409 260.871759 
L 606.610331 259.465874 
L 609.757254 259.465874 
L 612.904176 260.871759 
L 616.051098 259.465874 
L 619.198021 260.168817 
L 622.344943 259.465874 
L 625.491866 256.654105 
L 628.638788 257.357047 
L 631.78571 254.545278 
L 634.932633 255.951162 
L 638.079555 253.842335 
L 641.226477 255.24822 
L 644.3734 252.43645 
L 647.520322 253.842335 
L 653.814167 253.842335 
L 656.961089 251.733508 
L 660.108011 247.515854 
L 663.254934 249.624681 
L 666.401856 250.327623 
L 672.695701 247.515854 
L 675.842623 246.812911 
L 678.989545 244.001142 
L 678.989545 244.001142 
" clip-path="url(#pbf0872d51c)" style="fill: none; stroke: #ff0000; stroke-width: 1.5; stroke-linecap: square"/>
   </g>
   <g id="patch_3">
    <path d="M 44.57 517.27 
L 44.57 10.8 
" style="fill: none; stroke: #000000; stroke-width: 0.8; stroke-linejoin: miter; stroke-linecap: square"/>
   </g>
   <g id="patch_4">
    <path d="M 709.2 517.27 
L 709.2 10.8 
" style="fill: none; stroke: #000000; stroke-width: 0.8; stroke-linejoin: miter; stroke-linecap: square"/>
   </g>
   <g id="patch_5">
    <path d="M 44.57 517.27 
L 709.2 517.27 
" style="fill: none; stroke: #000000; stroke-width: 0.8; stroke-linejoin: miter; stroke-linecap: square"/>
   </g>
   <g id="patch_6">
    <path d="M 44.57 10.8 
L 709.2 10.8 
" style="fill: none; stroke: #000000; stroke-width: 0.8; stroke-linejoin: miter; stroke-linecap: square"/>
   </g>
   <g id="legend_1">
    <g id="patch_7">
     <path d="M 642.742188 63.66875 
L 702.2 63.66875 
Q 704.2 63.66875 704.2 61.66875 
L 704.2 17.8 
Q 704.2 15.8 702.2 15.8 
L 642.742188 15.8 
Q 640.742188 15.8 640.742188 17.8 
L 640.742188 61.66875 
Q 640.742188 63.66875 642.742188 63.66875 
z
" style="fill: #ffffff; opacity: 0.8; stroke: #cccccc; stroke-linejoin: miter"/>
    </g>
    <g id="line2d_20">
     <path d="M 644.742188 23.898438 
L 654.742188 23.898438 
L 664.742188 23.898438 
" style="fill: none; stroke: #0000ff; stroke-width: 1.5; stroke-linecap: square"/>
    </g>
    <g id="text_9">
     <!-- E_NS -->
     <g transform="translate(672.742188 27.398438) scale(0.1 -0.1)">
      <defs>
       <path id="DejaVuSans-45" d="M 628 4666 
L 3578 4666 
L 3578 4134 
L 1259 4134 
L 1259 2753 
L 3481 2753 
L 3481 2222 
L 1259 2222 
L 1259 531 
L 3634 531 
L 3634 0 
L 628 0 
L 628 4666 
z
" transform="scale(0.015625)"/>
       <path id="DejaVuSans-5f" d="M 3263 -1063 
L 3263 -1509 
L -63 -1509 
L -63 -1063 
L 3263 -1063 
z
" transform="scale(0.015625)"/>
       <path id="DejaVuSans-4e" d="M 628 4666 
L 1478 4666 
L 3547 763 
L 3547 4666 
L 4159 4666 
L 4159 0 
L 3309 0 
L 1241 3903 
L 1241 0 
L 628 0 
L 628 4666 
z
" transform="scale(0.015625)"/>
       <path id="DejaVuSans-53" d="M 3425 4513 
L 3425 3897 
Q 3066 4069 2747 4153 
Q 2428 4238 2131 4238 
Q 1616 4238 1336 4038 
Q 1056 3838 1056 3469 
Q 1056 3159 1242 3001 
Q 1428 2844 1947 2747 
L 2328 2669 
Q 3034 2534 3370 2195 
Q 3706 1856 3706 1288 
Q 3706 609 3251 259 
Q 2797 -91 1919 -91 
Q 1588 -91 1214 -16 
Q 841 59 441 206 
L 441 856 
Q 825 641 1194 531 
Q 1563 422 1919 422 
Q 2459 422 2753 634 
Q 3047 847 3047 1241 
Q 3047 1584 2836 1778 
Q 2625 1972 2144 2069 
L 1759 2144 
Q 1053 2284 737 2584 
Q 422 2884 422 3419 
Q 422 4038 858 4394 
Q 1294 4750 2059 4750 
Q 2388 4750 2728 4690 
Q 3069 4631 3425 4513 
z
" transform="scale(0.015625)"/>
      </defs>
      <use xlink:href="#DejaVuSans-45"/>
      <use xlink:href="#DejaVuSans-5f" x="63.183594"/>
      <use xlink:href="#DejaVuSans-4e" x="113.183594"/>
      <use xlink:href="#DejaVuSans-53" x="187.988281"/>
     </g>
    </g>
    <g id="line2d_21">
     <path d="M 644.742188 38.854687 
L 654.742188 38.854687 
L 664.742188 38.854687 
" style="fill: none; stroke: #008000; stroke-width: 1.5; stroke-linecap: square"/>
    </g>
    <g id="text_10">
     <!-- H_NS -->
     <g transform="translate(672.742188 42.354687) scale(0.1 -0.1)">
      <defs>
       <path id="DejaVuSans-48" d="M 628 4666 
L 1259 4666 
L 1259 2753 
L 3553 2753 
L 3553 4666 
L 4184 4666 
L 4184 0 
L 3553 0 
L 3553 2222 
L 1259 2222 
L 1259 0 
L 628 0 
L 628 4666 
z
" transform="scale(0.015625)"/>
      </defs>
      <use xlink:href="#DejaVuSans-48"/>
      <use xlink:href="#DejaVuSans-5f" x="75.195312"/>
      <use xlink:href="#DejaVuSans-4e" x="125.195312"/>
      <use xlink:href="#DejaVuSans-53" x="200"/>
     </g>
    </g>
    <g id="line2d_22">
     <path d="M 644.742188 53.810938 
L 654.742188 53.810938 
L 664.742188 53.810938 
" style="fill: none; stroke: #ff0000; stroke-width: 1.5; stroke-linecap: square"/>
    </g>
    <g id="text_11">
     <!-- M_NS -->
     <g transform="translate(672.742188 57.310938) scale(0.1 -0.1)">
      <defs>
       <path id="DejaVuSans-4d" d="M 628 4666 
L 1569 4666 
L 2759 1491 
L 3956 4666 
L 4897 4666 
L 4897 0 
L 4281 0 
L 4281 4097 
L 3078 897 
L 2444 897 
L 1241 4097 
L 1241 0 
L 628 0 
L 628 4666 
z
" transform="scale(0.015625)"/>
      </defs>
      <use xlink:href="#DejaVuSans-4d"/>
      <use xlink:href="#DejaVuSans-5f" x="86.279297"/>
      <use xlink:href="#DejaVuSans-4e" x="136.279297"/>
      <use xlink:href="#DejaVuSans-53" x="211.083984"/>
     </g>
    </g>
   </g>
  </g>
  <g id="axes_2">
   <g id="patch_8">
    <path d="M 44.57 1038.04 
L 709.2 1038.04 
L 709.2 531.57 
L 44.57 531.57 
z
" style="fill: #ffffff"/>
   </g>
   <g id="matplotlib.axis_3">
    <g id="xtick_10">
     <g id="line2d_23">
      <g>
       <use xlink:href="#m1c741c903c" x="74.780455" y="1038.04" style="stroke: #000000; stroke-width: 0.8"/>
      </g>
     </g>
     <g id="text_12">
      <!-- 0 -->
      <g transform="translate(71.599205 1052.638438) scale(0.1 -0.1)">
       <use xlink:href="#DejaVuSans-30"/>
      </g>
     </g>
    </g>
    <g id="xtick_11">
     <g id="line2d_24">
      <g>
       <use xlink:href="#m1c741c903c" x="150.306591" y="1038.04" style="stroke: #000000; stroke-width: 0.8"/>
      </g>
     </g>
     <g id="text_13">
      <!-- 1 -->
      <g transform="translate(147.125341 1052.638438) scale(0.1 -0.1)">
       <use xlink:href="#DejaVuSans-31"/>
      </g>
     </g>
    </g>
    <g id="xtick_12">
     <g id="line2d_25">
      <g>
       <use xlink:href="#m1c741c903c" x="225.832727" y="1038.04" style="stroke: #000000; stroke-width: 0.8"/>
      </g>
     </g>
     <g id="text_14">
      <!-- 2 -->
      <g transform="translate(222.651477 1052.638438) scale(0.1 -0.1)">
       <use xlink:href="#DejaVuSans-32"/>
      </g>
     </g>
    </g>
    <g id="xtick_13">
     <g id="line2d_26">
      <g>
       <use xlink:href="#m1c741c903c" x="301.358864" y="1038.04" style="stroke: #000000; stroke-width: 0.8"/>
      </g>
     </g>
     <g id="text_15">
      <!-- 3 -->
      <g transform="translate(298.177614 1052.638438) scale(0.1 -0.1)">
       <use xlink:href="#DejaVuSans-33"/>
      </g>
     </g>
    </g>
    <g id="xtick_14">
     <g id="line2d_27">
      <g>
       <use xlink:href="#m1c741c903c" x="376.885" y="1038.04" style="stroke: #000000; stroke-width: 0.8"/>
      </g>
     </g>
     <g id="text_16">
      <!-- 4 -->
      <g transform="translate(373.70375 1052.638438) scale(0.1 -0.1)">
       <use xlink:href="#DejaVuSans-34"/>
      </g>
     </g>
    </g>
    <g id="xtick_15">
     <g id="line2d_28">
      <g>
       <use xlink:href="#m1c741c903c" x="452.411136" y="1038.04" style="stroke: #000000; stroke-width: 0.8"/>
      </g>
     </g>
     <g id="text_17">
      <!-- 5 -->
      <g transform="translate(449.229886 1052.638438) scale(0.1 -0.1)">
       <use xlink:href="#DejaVuSans-35"/>
      </g>
     </g>
    </g>
    <g id="xtick_16">
     <g id="line2d_29">
      <g>
       <use xlink:href="#m1c741c903c" x="527.937273" y="1038.04" style="stroke: #000000; stroke-width: 0.8"/>
      </g>
     </g>
     <g id="text_18">
      <!-- 6 -->
      <g transform="translate(524.756023 1052.638438) scale(0.1 -0.1)">
       <use xlink:href="#DejaVuSans-36"/>
      </g>
     </g>
    </g>
    <g id="xtick_17">
     <g id="line2d_30">
      <g>
       <use xlink:href="#m1c741c903c" x="603.463409" y="1038.04" style="stroke: #000000; stroke-width: 0.8"/>
      </g>
     </g>
     <g id="text_19">
      <!-- 7 -->
      <g transform="translate(600.282159 1052.638438) scale(0.1 -0.1)">
       <defs>
        <path id="DejaVuSans-37" d="M 525 4666 
L 3525 4666 
L 3525 4397 
L 1831 0 
L 1172 0 
L 2766 4134 
L 525 4134 
L 525 4666 
z
" transform="scale(0.015625)"/>
       </defs>
       <use xlink:href="#DejaVuSans-37"/>
      </g>
     </g>
    </g>
    <g id="xtick_18">
     <g id="line2d_31">
      <g>
       <use xlink:href="#m1c741c903c" x="678.989545" y="1038.04" style="stroke: #000000; stroke-width: 0.8"/>
      </g>
     </g>
     <g id="text_20">
      <!-- 8 -->
      <g transform="translate(675.808295 1052.638438) scale(0.1 -0.1)">
       <defs>
        <path id="DejaVuSans-38" d="M 2034 2216 
Q 1584 2216 1326 1975 
Q 1069 1734 1069 1313 
Q 1069 891 1326 650 
Q 1584 409 2034 409 
Q 2484 409 2743 651 
Q 3003 894 3003 1313 
Q 3003 1734 2745 1975 
Q 2488 2216 2034 2216 
z
M 1403 2484 
Q 997 2584 770 2862 
Q 544 3141 544 3541 
Q 544 4100 942 4425 
Q 1341 4750 2034 4750 
Q 2731 4750 3128 4425 
Q 3525 4100 3525 3541 
Q 3525 3141 3298 2862 
Q 3072 2584 2669 2484 
Q 3125 2378 3379 2068 
Q 3634 1759 3634 1313 
Q 3634 634 3220 271 
Q 2806 -91 2034 -91 
Q 1263 -91 848 271 
Q 434 634 434 1313 
Q 434 1759 690 2068 
Q 947 2378 1403 2484 
z
M 1172 3481 
Q 1172 3119 1398 2916 
Q 1625 2713 2034 2713 
Q 2441 2713 2670 2916 
Q 2900 3119 2900 3481 
Q 2900 3844 2670 4047 
Q 2441 4250 2034 4250 
Q 1625 4250 1398 4047 
Q 1172 3844 1172 3481 
z
" transform="scale(0.015625)"/>
       </defs>
       <use xlink:href="#DejaVuSans-38"/>
      </g>
     </g>
    </g>
    <g id="text_21">
     <!-- Time (days) -->
     <g transform="translate(347.358437 1066.316563) scale(0.1 -0.1)">
      <defs>
       <path id="DejaVuSans-54" d="M -19 4666 
L 3928 4666 
L 3928 4134 
L 2272 4134 
L 2272 0 
L 1638 0 
L 1638 4134 
L -19 4134 
L -19 4666 
z
" transform="scale(0.015625)"/>
       <path id="DejaVuSans-6d" d="M 3328 2828 
Q 3544 3216 3844 3400 
Q 4144 3584 4550 3584 
Q 5097 3584 5394 3201 
Q 5691 2819 5691 2113 
L 5691 0 
L 5113 0 
L 5113 2094 
Q 5113 2597 4934 2840 
Q 4756 3084 4391 3084 
Q 3944 3084 3684 2787 
Q 3425 2491 3425 1978 
L 3425 0 
L 2847 0 
L 2847 2094 
Q 2847 2600 2669 2842 
Q 2491 3084 2119 3084 
Q 1678 3084 1418 2786 
Q 1159 2488 1159 1978 
L 1159 0 
L 581 0 
L 581 3500 
L 1159 3500 
L 1159 2956 
Q 1356 3278 1631 3431 
Q 1906 3584 2284 3584 
Q 2666 3584 2933 3390 
Q 3200 3197 3328 2828 
z
" transform="scale(0.015625)"/>
       <path id="DejaVuSans-65" d="M 3597 1894 
L 3597 1613 
L 953 1613 
Q 991 1019 1311 708 
Q 1631 397 2203 397 
Q 2534 397 2845 478 
Q 3156 559 3463 722 
L 3463 178 
Q 3153 47 2828 -22 
Q 2503 -91 2169 -91 
Q 1331 -91 842 396 
Q 353 884 353 1716 
Q 353 2575 817 3079 
Q 1281 3584 2069 3584 
Q 2775 3584 3186 3129 
Q 3597 2675 3597 1894 
z
M 3022 2063 
Q 3016 2534 2758 2815 
Q 2500 3097 2075 3097 
Q 1594 3097 1305 2825 
Q 1016 2553 972 2059 
L 3022 2063 
z
" transform="scale(0.015625)"/>
       <path id="DejaVuSans-20" transform="scale(0.015625)"/>
       <path id="DejaVuSans-28" d="M 1984 4856 
Q 1566 4138 1362 3434 
Q 1159 2731 1159 2009 
Q 1159 1288 1364 580 
Q 1569 -128 1984 -844 
L 1484 -844 
Q 1016 -109 783 600 
Q 550 1309 550 2009 
Q 550 2706 781 3412 
Q 1013 4119 1484 4856 
L 1984 4856 
z
" transform="scale(0.015625)"/>
       <path id="DejaVuSans-64" d="M 2906 2969 
L 2906 4863 
L 3481 4863 
L 3481 0 
L 2906 0 
L 2906 525 
Q 2725 213 2448 61 
Q 2172 -91 1784 -91 
Q 1150 -91 751 415 
Q 353 922 353 1747 
Q 353 2572 751 3078 
Q 1150 3584 1784 3584 
Q 2172 3584 2448 3432 
Q 2725 3281 2906 2969 
z
M 947 1747 
Q 947 1113 1208 752 
Q 1469 391 1925 391 
Q 2381 391 2643 752 
Q 2906 1113 2906 1747 
Q 2906 2381 2643 2742 
Q 2381 3103 1925 3103 
Q 1469 3103 1208 2742 
Q 947 2381 947 1747 
z
" transform="scale(0.015625)"/>
       <path id="DejaVuSans-79" d="M 2059 -325 
Q 1816 -950 1584 -1140 
Q 1353 -1331 966 -1331 
L 506 -1331 
L 506 -850 
L 844 -850 
Q 1081 -850 1212 -737 
Q 1344 -625 1503 -206 
L 1606 56 
L 191 3500 
L 800 3500 
L 1894 763 
L 2988 3500 
L 3597 3500 
L 2059 -325 
z
" transform="scale(0.015625)"/>
       <path id="DejaVuSans-73" d="M 2834 3397 
L 2834 2853 
Q 2591 2978 2328 3040 
Q 2066 3103 1784 3103 
Q 1356 3103 1142 2972 
Q 928 2841 928 2578 
Q 928 2378 1081 2264 
Q 1234 2150 1697 2047 
L 1894 2003 
Q 2506 1872 2764 1633 
Q 3022 1394 3022 966 
Q 3022 478 2636 193 
Q 2250 -91 1575 -91 
Q 1294 -91 989 -36 
Q 684 19 347 128 
L 347 722 
Q 666 556 975 473 
Q 1284 391 1588 391 
Q 1994 391 2212 530 
Q 2431 669 2431 922 
Q 2431 1156 2273 1281 
Q 2116 1406 1581 1522 
L 1381 1569 
Q 847 1681 609 1914 
Q 372 2147 372 2553 
Q 372 3047 722 3315 
Q 1072 3584 1716 3584 
Q 2034 3584 2315 3537 
Q 2597 3491 2834 3397 
z
" transform="scale(0.015625)"/>
       <path id="DejaVuSans-29" d="M 513 4856 
L 1013 4856 
Q 1481 4119 1714 3412 
Q 1947 2706 1947 2009 
Q 1947 1309 1714 600 
Q 1481 -109 1013 -844 
L 513 -844 
Q 928 -128 1133 580 
Q 1338 1288 1338 2009 
Q 1338 2731 1133 3434 
Q 928 4138 513 4856 
z
" transform="scale(0.015625)"/>
      </defs>
      <use xlink:href="#DejaVuSans-54"/>
      <use xlink:href="#DejaVuSans-69" x="57.958984"/>
      <use xlink:href="#DejaVuSans-6d" x="85.742188"/>
      <use xlink:href="#DejaVuSans-65" x="183.154297"/>
      <use xlink:href="#DejaVuSans-20" x="244.677734"/>
      <use xlink:href="#DejaVuSans-28" x="276.464844"/>
      <use xlink:href="#DejaVuSans-64" x="315.478516"/>
      <use xlink:href="#DejaVuSans-61" x="378.955078"/>
      <use xlink:href="#DejaVuSans-79" x="440.234375"/>
      <use xlink:href="#DejaVuSans-73" x="499.414062"/>
      <use xlink:href="#DejaVuSans-29" x="551.513672"/>
     </g>
    </g>
   </g>
   <g id="matplotlib.axis_4">
    <g id="ytick_8">
     <g id="line2d_32">
      <g>
       <use xlink:href="#m21fe74d147" x="44.57" y="1015.018636" style="stroke: #000000; stroke-width: 0.8"/>
      </g>
     </g>
     <g id="text_22">
      <!-- 0 -->
      <g transform="translate(31.2075 1018.817855) scale(0.1 -0.1)">
       <use xlink:href="#DejaVuSans-30"/>
      </g>
     </g>
    </g>
    <g id="ytick_9">
     <g id="line2d_33">
      <g>
       <use xlink:href="#m21fe74d147" x="44.57" y="953.954011" style="stroke: #000000; stroke-width: 0.8"/>
      </g>
     </g>
     <g id="text_23">
      <!-- 5 -->
      <g transform="translate(31.2075 957.75323) scale(0.1 -0.1)">
       <use xlink:href="#DejaVuSans-35"/>
      </g>
     </g>
    </g>
    <g id="ytick_10">
     <g id="line2d_34">
      <g>
       <use xlink:href="#m21fe74d147" x="44.57" y="892.889386" style="stroke: #000000; stroke-width: 0.8"/>
      </g>
     </g>
     <g id="text_24">
      <!-- 10 -->
      <g transform="translate(24.845 896.688605) scale(0.1 -0.1)">
       <use xlink:href="#DejaVuSans-31"/>
       <use xlink:href="#DejaVuSans-30" x="63.623047"/>
      </g>
     </g>
    </g>
    <g id="ytick_11">
     <g id="line2d_35">
      <g>
       <use xlink:href="#m21fe74d147" x="44.57" y="831.824761" style="stroke: #000000; stroke-width: 0.8"/>
      </g>
     </g>
     <g id="text_25">
      <!-- 15 -->
      <g transform="translate(24.845 835.62398) scale(0.1 -0.1)">
       <use xlink:href="#DejaVuSans-31"/>
       <use xlink:href="#DejaVuSans-35" x="63.623047"/>
      </g>
     </g>
    </g>
    <g id="ytick_12">
     <g id="line2d_36">
      <g>
       <use xlink:href="#m21fe74d147" x="44.57" y="770.760136" style="stroke: #000000; stroke-width: 0.8"/>
      </g>
     </g>
     <g id="text_26">
      <!-- 20 -->
      <g transform="translate(24.845 774.559355) scale(0.1 -0.1)">
       <use xlink:href="#DejaVuSans-32"/>
       <use xlink:href="#DejaVuSans-30" x="63.623047"/>
      </g>
     </g>
    </g>
    <g id="ytick_13">
     <g id="line2d_37">
      <g>
       <use xlink:href="#m21fe74d147" x="44.57" y="709.695511" style="stroke: #000000; stroke-width: 0.8"/>
      </g>
     </g>
     <g id="text_27">
      <!-- 25 -->
      <g transform="translate(24.845 713.49473) scale(0.1 -0.1)">
       <use xlink:href="#DejaVuSans-32"/>
       <use xlink:href="#DejaVuSans-35" x="63.623047"/>
      </g>
     </g>
    </g>
    <g id="ytick_14">
     <g id="line2d_38">
      <g>
       <use xlink:href="#m21fe74d147" x="44.57" y="648.630886" style="stroke: #000000; stroke-width: 0.8"/>
      </g>
     </g>
     <g id="text_28">
      <!-- 30 -->
      <g transform="translate(24.845 652.430105) scale(0.1 -0.1)">
       <use xlink:href="#DejaVuSans-33"/>
       <use xlink:href="#DejaVuSans-30" x="63.623047"/>
      </g>
     </g>
    </g>
    <g id="ytick_15">
     <g id="line2d_39">
      <g>
       <use xlink:href="#m21fe74d147" x="44.57" y="587.566261" style="stroke: #000000; stroke-width: 0.8"/>
      </g>
     </g>
     <g id="text_29">
      <!-- 35 -->
      <g transform="translate(24.845 591.36548) scale(0.1 -0.1)">
       <use xlink:href="#DejaVuSans-33"/>
       <use xlink:href="#DejaVuSans-35" x="63.623047"/>
      </g>
     </g>
    </g>
    <g id="text_30">
     <!-- Population -->
     <g transform="translate(18.765312 811.071406) rotate(-90) scale(0.1 -0.1)">
      <use xlink:href="#DejaVuSans-50"/>
      <use xlink:href="#DejaVuSans-6f" x="56.677734"/>
      <use xlink:href="#DejaVuSans-70" x="117.859375"/>
      <use xlink:href="#DejaVuSans-75" x="181.335938"/>
      <use xlink:href="#DejaVuSans-6c" x="244.714844"/>
      <use xlink:href="#DejaVuSans-61" x="272.498047"/>
      <use xlink:href="#DejaVuSans-74" x="333.777344"/>
      <use xlink:href="#DejaVuSans-69" x="372.986328"/>
      <use xlink:href="#DejaVuSans-6f" x="400.769531"/>
      <use xlink:href="#DejaVuSans-6e" x="461.951172"/>
     </g>
    </g>
   </g>
   <g id="line2d_40">
    <path d="M 74.780455 1015.018636 
L 77.927377 1012.576051 
L 81.074299 1007.690881 
L 84.221222 1004.027004 
L 90.515066 986.928909 
L 93.661989 983.265031 
L 96.808911 978.379861 
L 99.955833 975.937276 
L 103.102756 977.158569 
L 106.249678 974.715984 
L 109.3966 974.715984 
L 115.690445 972.273399 
L 118.837367 974.715984 
L 121.98429 973.494691 
L 125.131212 967.388229 
L 128.278134 969.830814 
L 131.425057 973.494691 
L 134.571979 974.715984 
L 137.718902 968.609521 
L 140.865824 969.830814 
L 144.012746 969.830814 
L 147.159669 968.609521 
L 150.306591 972.273399 
L 153.453513 972.273399 
L 156.600436 973.494691 
L 159.747358 971.052106 
L 162.89428 967.388229 
L 166.041203 973.494691 
L 169.188125 972.273399 
L 172.335047 968.609521 
L 175.48197 971.052106 
L 178.628892 967.388229 
L 181.775814 968.609521 
L 184.922737 974.715984 
L 188.069659 977.158569 
L 191.216581 975.937276 
L 197.510426 978.379861 
L 200.657348 983.265031 
L 203.804271 982.043739 
L 210.098116 982.043739 
L 213.245038 985.707616 
L 216.39196 985.707616 
L 219.538883 983.265031 
L 222.685805 985.707616 
L 225.832727 984.486324 
L 228.97965 982.043739 
L 232.126572 983.265031 
L 235.273494 980.822446 
L 238.420417 983.265031 
L 241.567339 980.822446 
L 244.714261 985.707616 
L 247.861184 986.928909 
L 251.008106 990.592786 
L 254.155028 991.814079 
L 257.301951 994.256664 
L 260.448873 994.256664 
L 263.595795 996.699249 
L 266.742718 995.477956 
L 269.88964 996.699249 
L 273.036562 1001.584419 
L 276.183485 1000.363126 
L 279.330407 1001.584419 
L 282.47733 1001.584419 
L 285.624252 1005.248296 
L 288.771174 1006.469589 
L 291.918097 1002.805711 
L 298.211941 1000.363126 
L 301.358864 1000.363126 
L 304.505786 1005.248296 
L 310.799631 1007.690881 
L 313.946553 1004.027004 
L 317.093475 1001.584419 
L 323.38732 1001.584419 
L 326.534242 1007.690881 
L 335.975009 1011.354759 
L 339.121932 1011.354759 
L 345.415777 1008.912174 
L 351.709621 1008.912174 
L 354.856544 1010.133466 
L 358.003466 1010.133466 
L 361.150388 1008.912174 
L 364.297311 1008.912174 
L 367.444233 1010.133466 
L 373.738078 1010.133466 
L 380.031922 1012.576051 
L 395.766534 1012.576051 
L 398.913456 1011.354759 
L 402.060379 1012.576051 
L 430.38268 1012.576051 
L 433.529602 1015.018636 
L 439.823447 1015.018636 
L 442.970369 1013.797344 
L 452.411136 1013.797344 
L 455.558059 1015.018636 
L 458.704981 1013.797344 
L 464.998826 1013.797344 
L 468.145748 1015.018636 
L 527.937273 1015.018636 
L 531.084195 1013.797344 
L 549.965729 1013.797344 
L 553.112652 1012.576051 
L 556.259574 1015.018636 
L 653.814167 1015.018636 
L 656.961089 1013.797344 
L 666.401856 1013.797344 
L 669.548778 1015.018636 
L 678.989545 1015.018636 
L 678.989545 1015.018636 
" clip-path="url(#p2a06ed8da9)" style="fill: none; stroke: #0000ff; stroke-width: 1.5; stroke-linecap: square"/>
   </g>
   <g id="line2d_41">
    <path d="M 74.780455 1015.018636 
L 77.927377 1013.797344 
L 81.074299 1010.133466 
L 84.221222 1008.912174 
L 87.368144 1006.469589 
L 90.515066 999.141834 
L 93.661989 993.035371 
L 96.808911 997.920541 
L 99.955833 991.814079 
L 103.102756 988.150201 
L 109.3966 985.707616 
L 112.543523 986.928909 
L 115.690445 985.707616 
L 118.837367 986.928909 
L 121.98429 989.371494 
L 125.131212 984.486324 
L 128.278134 980.822446 
L 131.425057 974.715984 
L 134.571979 969.830814 
L 140.865824 972.273399 
L 144.012746 969.830814 
L 147.159669 971.052106 
L 150.306591 971.052106 
L 153.453513 966.166936 
L 156.600436 964.945644 
L 159.747358 968.609521 
L 162.89428 964.945644 
L 166.041203 952.732719 
L 169.188125 962.503059 
L 172.335047 963.724351 
L 175.48197 958.839181 
L 178.628892 960.060474 
L 181.775814 966.166936 
L 184.922737 962.503059 
L 188.069659 967.388229 
L 191.216581 964.945644 
L 194.363504 968.609521 
L 197.510426 967.388229 
L 200.657348 960.060474 
L 203.804271 964.945644 
L 206.951193 964.945644 
L 210.098116 961.281766 
L 213.245038 961.281766 
L 216.39196 962.503059 
L 219.538883 966.166936 
L 222.685805 962.503059 
L 225.832727 964.945644 
L 228.97965 972.273399 
L 235.273494 969.830814 
L 238.420417 967.388229 
L 241.567339 969.830814 
L 244.714261 966.166936 
L 247.861184 967.388229 
L 251.008106 966.166936 
L 254.155028 968.609521 
L 257.301951 968.609521 
L 260.448873 969.830814 
L 263.595795 969.830814 
L 266.742718 972.273399 
L 269.88964 971.052106 
L 273.036562 967.388229 
L 276.183485 967.388229 
L 279.330407 961.281766 
L 282.47733 958.839181 
L 285.624252 957.617889 
L 288.771174 960.060474 
L 291.918097 960.060474 
L 295.065019 958.839181 
L 298.211941 958.839181 
L 301.358864 960.060474 
L 304.505786 964.945644 
L 307.652708 958.839181 
L 310.799631 964.945644 
L 313.946553 968.609521 
L 317.093475 966.166936 
L 320.240398 960.060474 
L 323.38732 958.839181 
L 326.534242 964.945644 
L 329.681165 966.166936 
L 335.975009 971.052106 
L 339.121932 972.273399 
L 342.268854 975.937276 
L 348.562699 975.937276 
L 358.003466 968.609521 
L 361.150388 967.388229 
L 370.591155 974.715984 
L 380.031922 974.715984 
L 383.178845 978.379861 
L 386.325767 980.822446 
L 389.472689 982.043739 
L 392.619612 978.379861 
L 395.766534 975.937276 
L 398.913456 978.379861 
L 402.060379 983.265031 
L 405.207301 982.043739 
L 408.354223 977.158569 
L 411.501146 975.937276 
L 417.794991 971.052106 
L 420.941913 972.273399 
L 424.088835 980.822446 
L 427.235758 983.265031 
L 430.38268 982.043739 
L 433.529602 977.158569 
L 436.676525 978.379861 
L 439.823447 982.043739 
L 442.970369 979.601154 
L 449.264214 979.601154 
L 455.558059 982.043739 
L 458.704981 979.601154 
L 461.851903 979.601154 
L 464.998826 984.486324 
L 468.145748 984.486324 
L 471.29267 986.928909 
L 477.586515 979.601154 
L 480.733437 979.601154 
L 483.88036 978.379861 
L 487.027282 984.486324 
L 493.321127 986.928909 
L 496.468049 986.928909 
L 499.614972 991.814079 
L 502.761894 991.814079 
L 505.908816 993.035371 
L 509.055739 993.035371 
L 512.202661 990.592786 
L 515.349583 995.477956 
L 518.496506 995.477956 
L 521.643428 997.920541 
L 527.937273 997.920541 
L 531.084195 993.035371 
L 534.231117 995.477956 
L 540.524962 997.920541 
L 543.671884 994.256664 
L 546.818807 995.477956 
L 549.965729 999.141834 
L 553.112652 1000.363126 
L 556.259574 996.699249 
L 559.406496 999.141834 
L 562.553419 999.141834 
L 565.700341 1000.363126 
L 575.141108 1000.363126 
L 578.28803 999.141834 
L 581.434953 999.141834 
L 587.728797 991.814079 
L 594.022642 994.256664 
L 597.169564 991.814079 
L 600.316487 990.592786 
L 606.610331 995.477956 
L 616.051098 995.477956 
L 619.198021 1000.363126 
L 625.491866 997.920541 
L 628.638788 994.256664 
L 631.78571 996.699249 
L 634.932633 997.920541 
L 638.079555 997.920541 
L 641.226477 996.699249 
L 644.3734 999.141834 
L 647.520322 997.920541 
L 650.667244 999.141834 
L 653.814167 999.141834 
L 656.961089 1000.363126 
L 660.108011 1004.027004 
L 663.254934 1005.248296 
L 666.401856 1004.027004 
L 669.548778 1004.027004 
L 672.695701 1002.805711 
L 678.989545 1002.805711 
L 678.989545 1002.805711 
" clip-path="url(#p2a06ed8da9)" style="fill: none; stroke: #008000; stroke-width: 1.5; stroke-linecap: square"/>
   </g>
   <g id="line2d_42">
    <path d="M 74.780455 1015.018636 
L 77.927377 1015.018636 
L 84.221222 1010.133466 
L 87.368144 1008.912174 
L 90.515066 1002.805711 
L 93.661989 999.141834 
L 99.955833 994.256664 
L 103.102756 993.035371 
L 106.249678 993.035371 
L 109.3966 991.814079 
L 112.543523 988.150201 
L 115.690445 985.707616 
L 118.837367 979.601154 
L 121.98429 979.601154 
L 128.278134 972.273399 
L 131.425057 971.052106 
L 134.571979 971.052106 
L 144.012746 960.060474 
L 147.159669 960.060474 
L 150.306591 955.175304 
L 156.600436 950.290134 
L 159.747358 946.626256 
L 162.89428 936.855916 
L 166.041203 935.634624 
L 169.188125 933.192039 
L 172.335047 931.970746 
L 175.48197 927.085576 
L 178.628892 923.421699 
L 181.775814 916.093944 
L 184.922737 914.872651 
L 188.069659 916.093944 
L 191.216581 916.093944 
L 194.363504 912.430066 
L 197.510426 909.987481 
L 200.657348 908.766189 
L 203.804271 903.881019 
L 206.951193 896.553264 
L 216.39196 878.233876 
L 219.538883 874.569999 
L 222.685805 872.127414 
L 225.832727 870.906121 
L 228.97965 863.578366 
L 232.126572 861.135781 
L 235.273494 857.471904 
L 238.420417 858.693196 
L 241.567339 855.029319 
L 244.714261 853.808026 
L 251.008106 841.595101 
L 254.155028 834.267346 
L 257.301951 833.046054 
L 260.448873 830.603469 
L 263.595795 826.939591 
L 266.742718 822.054421 
L 269.88964 811.062789 
L 273.036562 806.177619 
L 279.330407 798.849864 
L 282.47733 790.300816 
L 285.624252 787.858231 
L 288.771174 784.194354 
L 291.918097 776.866599 
L 295.065019 773.202721 
L 298.211941 773.202721 
L 301.358864 769.538844 
L 304.505786 767.096259 
L 307.652708 762.211089 
L 310.799631 763.432381 
L 313.946553 760.989796 
L 317.093475 757.325919 
L 320.240398 751.219456 
L 323.38732 751.219456 
L 329.681165 746.334286 
L 332.828087 741.449116 
L 339.121932 739.006531 
L 342.268854 730.457484 
L 348.562699 728.014899 
L 351.709621 729.236191 
L 358.003466 724.351021 
L 361.150388 717.023266 
L 364.297311 713.359389 
L 367.444233 706.031634 
L 370.591155 699.925171 
L 373.738078 701.146464 
L 376.885 693.818709 
L 380.031922 693.818709 
L 383.178845 690.154831 
L 386.325767 688.933539 
L 389.472689 684.048369 
L 392.619612 682.827076 
L 398.913456 673.056736 
L 402.060379 673.056736 
L 408.354223 668.171566 
L 414.648068 658.401226 
L 417.794991 658.401226 
L 420.941913 654.737349 
L 427.235758 649.852179 
L 430.38268 649.852179 
L 433.529602 642.524424 
L 436.676525 641.303131 
L 439.823447 637.639254 
L 442.970369 635.196669 
L 446.117292 629.090206 
L 449.264214 625.426329 
L 452.411136 624.205036 
L 455.558059 625.426329 
L 458.704981 622.983744 
L 461.851903 625.426329 
L 464.998826 626.647621 
L 471.29267 621.762451 
L 474.439593 616.877281 
L 477.586515 620.541159 
L 480.733437 619.319866 
L 487.027282 614.434696 
L 490.174205 610.770819 
L 493.321127 610.770819 
L 496.468049 613.213404 
L 499.614972 611.992111 
L 502.761894 609.549526 
L 505.908816 605.885649 
L 509.055739 604.664356 
L 512.202661 598.557894 
L 515.349583 598.557894 
L 521.643428 601.000479 
L 524.79035 601.000479 
L 527.937273 598.557894 
L 531.084195 594.894016 
L 534.231117 594.894016 
L 537.37804 593.672724 
L 540.524962 590.008846 
L 543.671884 587.566261 
L 546.818807 586.344969 
L 549.965729 591.230139 
L 553.112652 591.230139 
L 559.406496 583.902384 
L 562.553419 582.681091 
L 565.700341 585.123676 
L 568.847263 585.123676 
L 571.994186 581.459799 
L 575.141108 585.123676 
L 578.28803 586.344969 
L 581.434953 583.902384 
L 590.87572 580.238506 
L 594.022642 575.353336 
L 597.169564 576.574629 
L 600.316487 572.910751 
L 609.757254 569.246874 
L 612.904176 564.361704 
L 616.051098 566.804289 
L 619.198021 563.140411 
L 622.344943 563.140411 
L 625.491866 565.582996 
L 628.638788 563.140411 
L 631.78571 563.140411 
L 634.932633 559.476534 
L 638.079555 561.919119 
L 641.226477 558.255241 
L 644.3734 561.919119 
L 650.667244 557.033949 
L 653.814167 555.812656 
L 656.961089 557.033949 
L 660.108011 560.697826 
L 663.254934 557.033949 
L 666.401856 554.591364 
L 669.548778 557.033949 
L 672.695701 558.255241 
L 675.842623 557.033949 
L 678.989545 558.255241 
L 678.989545 558.255241 
" clip-path="url(#p2a06ed8da9)" style="fill: none; stroke: #ff0000; stroke-width: 1.5; stroke-linecap: square"/>
   </g>
   <g id="patch_9">
    <path d="M 44.57 1038.04 
L 44.57 531.57 
" style="fill: none; stroke: #000000; stroke-width: 0.8; stroke-linejoin: miter; stroke-linecap: square"/>
   </g>
   <g id="patch_10">
    <path d="M 709.2 1038.04 
L 709.2 531.57 
" style="fill: none; stroke: #000000; stroke-width: 0.8; stroke-linejoin: miter; stroke-linecap: square"/>
   </g>
   <g id="patch_11">
    <path d="M 44.57 1038.04 
L 709.2 1038.04 
" style="fill: none; stroke: #000000; stroke-width: 0.8; stroke-linejoin: miter; stroke-linecap: square"/>
   </g>
   <g id="patch_12">
    <path d="M 44.57 531.57 
L 709.2 531.57 
" style="fill: none; stroke: #000000; stroke-width: 0.8; stroke-linejoin: miter; stroke-linecap: square"/>
   </g>
   <g id="legend_2">
    <g id="patch_13">
     <path d="M 51.57 584.43875 
L 103.546562 584.43875 
Q 105.546562 584.43875 105.546562 582.43875 
L 105.546562 538.57 
Q 105.546562 536.57 103.546562 536.57 
L 51.57 536.57 
Q 49.57 536.57 49.57 538.57 
L 49.57 582.43875 
Q 49.57 584.43875 51.57 584.43875 
z
" style="fill: #ffffff; opacity: 0.8; stroke: #cccccc; stroke-linejoin: miter"/>
    </g>
    <g id="line2d_43">
     <path d="M 53.57 544.668437 
L 63.57 544.668437 
L 73.57 544.668437 
" style="fill: none; stroke: #0000ff; stroke-width: 1.5; stroke-linecap: square"/>
    </g>
    <g id="text_31">
     <!-- E_S -->
     <g transform="translate(81.57 548.168437) scale(0.1 -0.1)">
      <use xlink:href="#DejaVuSans-45"/>
      <use xlink:href="#DejaVuSans-5f" x="63.183594"/>
      <use xlink:href="#DejaVuSans-53" x="113.183594"/>
     </g>
    </g>
    <g id="line2d_44">
     <path d="M 53.57 559.624687 
L 63.57 559.624687 
L 73.57 559.624687 
" style="fill: none; stroke: #008000; stroke-width: 1.5; stroke-linecap: square"/>
    </g>
    <g id="text_32">
     <!-- H_S -->
     <g transform="translate(81.57 563.124687) scale(0.1 -0.1)">
      <use xlink:href="#DejaVuSans-48"/>
      <use xlink:href="#DejaVuSans-5f" x="75.195312"/>
      <use xlink:href="#DejaVuSans-53" x="125.195312"/>
     </g>
    </g>
    <g id="line2d_45">
     <path d="M 53.57 574.580938 
L 63.57 574.580938 
L 73.57 574.580938 
" style="fill: none; stroke: #ff0000; stroke-width: 1.5; stroke-linecap: square"/>
    </g>
    <g id="text_33">
     <!-- M_S -->
     <g transform="translate(81.57 578.080938) scale(0.1 -0.1)">
      <use xlink:href="#DejaVuSans-4d"/>
      <use xlink:href="#DejaVuSans-5f" x="86.279297"/>
      <use xlink:href="#DejaVuSans-53" x="136.279297"/>
     </g>
    </g>
   </g>
  </g>
 </g>
 <defs>
  <clipPath id="pbf0872d51c">
   <rect x="44.57" y="10.8" width="664.63" height="506.47"/>
  </clipPath>
  <clipPath id="p2a06ed8da9">
   <rect x="44.57" y="531.57" width="664.63" height="506.47"/>
  </clipPath>
 </defs>
</svg>
